<svg width="64" height="64" viewBox="0 0 64 64" fill="none" xmlns="http://www.w3.org/2000/svg">
<path d="M33.3228 2.20508H30.8612C14.5476 2.20508 1.32275 15.9589 1.32275 32.9251C1.32275 49.8913 14.5476 63.6451 30.8612 63.6451H33.3228C49.6364 63.6451 62.8612 49.8913 62.8612 32.9251C62.8612 15.9589 49.6364 2.20508 33.3228 2.20508Z" fill="#41A02D"/>
<path fill-rule="evenodd" clip-rule="evenodd" d="M16.1387 36.2435V30.8514H48.0451V36.2435C48.0451 38.635 48.0419 40.179 47.9496 41.3543C47.8609 42.4812 47.7108 42.899 47.6104 43.104C47.2278 43.8843 46.6179 44.5189 45.8673 44.9165C45.6702 45.0212 45.2684 45.1774 44.1849 45.2695C43.055 45.3655 41.5702 45.3686 39.2707 45.3686H24.913C22.6135 45.3686 21.1287 45.3655 19.9987 45.2695C18.9152 45.1774 18.5135 45.0212 18.3163 44.9165C17.5659 44.5189 16.9557 43.8843 16.5734 43.104C16.4729 42.899 16.3226 42.4812 16.2341 41.3543C16.1418 40.179 16.1387 38.635 16.1387 36.2435ZM51.1638 20.8635C51.9774 22.524 52.0296 24.6648 52.033 28.7399L52.0332 28.7775L52.033 28.8116L52.0332 29.6069V36.2435C52.0332 40.8894 52.0332 43.2126 51.1638 44.9869C50.399 46.548 49.1789 47.817 47.6781 48.6124C45.9717 49.5166 43.7381 49.5166 39.2707 49.5166H24.913C20.4456 49.5166 18.212 49.5166 16.5057 48.6124C15.0048 47.817 13.7845 46.548 13.0198 44.9869C12.1504 43.2126 12.1504 40.8894 12.1504 36.2435V29.6069C12.1504 24.961 12.1504 22.638 13.0198 20.8635C13.7845 19.3026 15.0048 18.0335 16.5057 17.2382C18.212 16.334 20.4456 16.334 24.913 16.334H39.2707C43.7381 16.334 45.9717 16.334 47.6781 17.2382C49.1789 18.0335 50.399 19.3026 51.1638 20.8635ZM16.1502 26.7034H48.0335C48.0214 25.8222 47.9976 25.1091 47.9496 24.4962C47.8609 23.3694 47.7108 22.9516 47.6104 22.7466C47.2278 21.9661 46.6179 21.3316 45.8673 20.9339C45.6702 20.8294 45.2684 20.6731 44.1849 20.5811C43.0548 20.4851 41.5702 20.4818 39.2707 20.4818L24.913 20.4818C22.6134 20.4818 21.1287 20.4851 19.9987 20.5811C18.9152 20.6731 18.5135 20.8294 18.3163 20.9339C17.5659 21.3316 16.9557 21.9661 16.5734 22.7466C16.4729 22.9516 16.3226 23.3694 16.2341 24.4962C16.186 25.1091 16.1621 25.8222 16.1502 26.7034ZM38.0744 37.074C36.9731 37.074 36.0803 38.0025 36.0803 39.1478C36.0803 40.2932 36.9731 41.2217 38.0744 41.2217H42.0625C43.1641 41.2217 44.0569 40.2932 44.0569 39.1478C44.0569 38.0025 43.1641 37.074 42.0625 37.074H38.0744Z" fill="white"/>
</svg>
