<svg width="263" height="68" viewBox="0 0 263 68" fill="none" xmlns="http://www.w3.org/2000/svg">
<path d="M41.7153 11.3125L64.8147 17.9225L44.8831 51.5308L31.8252 45.8747L41.7153 11.3125Z" fill="white"/>
<ellipse cx="24.3878" cy="17.5803" rx="17.2364" ry="10.4463" fill="white"/>
<path d="M42.0185 48.6485C42.4842 48.0908 42.5054 47.286 42.0696 46.7045C41.6339 46.123 40.8555 45.9174 40.1895 46.2078L30.6744 50.3564C30.3844 50.2511 30.066 50.2324 29.7596 50.3091C27.8442 50.7879 25.6597 51.0756 23.6084 51.2013C18.8472 51.1518 14.662 49.8752 11.6947 47.952C9.58291 46.5833 8.1751 44.9556 7.50927 43.2677C11.4996 46.4941 17.2224 48.4058 23.6244 48.3149C26.5395 48.4449 29.5049 47.9895 31.9611 47.3196C32.4318 47.1913 32.8159 46.8509 33 46.3991L33.9395 44.093C34.1679 43.5324 34.0529 42.8904 33.6442 42.4439C33.2355 41.9973 32.6061 41.8262 32.0275 42.0042C29.3711 42.8216 26.4531 43.3442 23.6485 43.3442C18.8663 43.3442 14.666 42.0954 11.6932 40.1735C9.69429 38.8812 8.32164 37.3414 7.61671 35.7176C11.5958 38.7274 17.2689 40.5687 23.6239 40.4151C27.5455 40.6315 31.3108 39.8073 34.5246 38.4041C34.9922 38.1999 35.3312 37.7808 35.433 37.2808L35.9028 34.9748C36.0234 34.3826 35.7927 33.7738 35.3099 33.4103C34.8271 33.0467 34.1783 32.9932 33.6425 33.2728C30.9471 34.6791 27.4156 35.5217 23.7423 35.402C23.7305 35.4016 23.7187 35.4013 23.7069 35.4012C23.695 35.4011 23.6832 35.4011 23.6713 35.4013C18.8945 35.462 14.702 34.2441 11.7359 32.3266C9.74697 31.0407 8.37275 29.4916 7.66454 27.8398C11.6484 30.9151 17.3243 32.8404 23.6665 32.9405C23.6892 32.9409 23.712 32.9408 23.7347 32.9401C28.5939 32.8051 33.1827 31.5019 36.9734 29.5163C37.4071 29.2891 37.7096 28.8724 37.7913 28.3897L38.2611 25.6139C38.3676 24.9842 38.0813 24.3528 37.5374 24.018C36.9934 23.6832 36.3008 23.7121 35.7866 24.091C32.8443 26.259 28.4396 27.7588 23.6746 27.9698C18.9056 27.8603 14.7199 26.5525 11.7539 24.5768C8.77825 22.5947 7.17015 20.0553 7.10903 17.4477C7.15285 15.0223 8.7264 12.5703 11.7189 10.6388C14.698 8.71607 18.9076 7.44713 23.6866 7.40356C29.2866 7.48752 34.3691 9.43096 37.3092 12.4004L37.5595 12.8072C37.8447 13.2706 38.3499 13.5529 38.894 13.5529H41.2428C41.8104 13.5529 42.3337 13.2459 42.6106 12.7503C42.8875 12.2548 42.8748 11.6482 42.5773 11.1647L42.2356 10.6096C42.2134 10.5735 42.1898 10.5383 42.1647 10.5042C38.5057 5.51462 31.3504 2.43409 23.6942 2.43328C17.8292 2.41143 12.4961 3.99825 8.58415 6.63504C4.68312 9.26449 2.05317 13.0575 2.05317 17.4094V17.8792V41.5801C2.05317 41.6081 2.05392 41.6361 2.05542 41.664C2.28199 45.8934 4.93738 49.5501 8.79549 52.0915C12.6637 54.6396 17.8705 56.1711 23.6011 56.172C31.182 56.2156 38.2005 53.2206 42.0185 48.6485Z" fill="black" stroke="white" stroke-width="3.13389" stroke-linejoin="round"/>
<path d="M34.9346 63.6412C34.762 64.3749 35.1361 65.1276 35.8253 65.4328C36.5145 65.738 37.3233 65.5094 37.7506 64.8885L63.5868 27.3513C63.7416 27.1264 63.8309 26.8721 63.8558 26.6134C64.515 26.5502 65.0706 26.0756 65.2285 25.4213L68.5168 11.7986C68.6295 11.3317 68.5218 10.8389 68.2247 10.4616C67.9276 10.0842 67.4739 9.86396 66.9936 9.86396H26.6379C25.9141 9.86396 25.2845 10.3597 25.1147 11.0632L21.8264 24.686C21.7137 25.1528 21.8214 25.6456 22.1185 26.023C22.4156 26.4003 22.8693 26.6206 23.3496 26.6206H34.0072L27.8892 52.3638C27.7519 52.9412 27.9527 53.5466 28.4078 53.9276C28.8629 54.3086 29.4941 54.3998 30.0384 54.1631L37.9768 50.7116L34.9346 63.6412ZM57.8682 26.6206L50.4757 29.7207L51.6383 26.6206H57.8682ZM34.4638 46.8017L39.8651 23.5722C39.9734 23.1067 39.8632 22.6171 39.566 22.2428C39.2687 21.8685 38.8169 21.6504 38.3389 21.6504H27.6395L29.2421 14.9196H62.661L61.0584 21.6504H49.6129C48.986 21.6504 48.4195 22.0239 48.1726 22.6001L42.5356 35.7531C42.2817 36.3455 42.4165 37.033 42.8753 37.4857C43.3341 37.9384 44.0233 38.064 44.6123 37.8022L52.3932 34.344L44.2629 46.6402L44.5729 45.0904C44.6873 44.5183 44.4744 43.9301 44.0205 43.5637C43.5665 43.1973 42.9466 43.1135 42.4116 43.3461L34.4638 46.8017Z" fill="black" stroke="white" stroke-width="3.13389" stroke-linejoin="round"/>
<mask id="path-5-outside-1_9_91" maskUnits="userSpaceOnUse" x="78.9224" y="6.96118" width="185" height="22" fill="black">
<rect fill="white" x="78.9224" y="6.96118" width="185" height="22"/>
<path d="M93.7693 20.6124C93.812 22.1071 93.3423 23.2601 92.4028 24.1142C91.4633 24.9682 90.1821 25.3953 88.5167 25.3953C86.8512 25.3953 85.4846 24.8401 84.4597 23.7725C83.4348 22.7049 82.9224 21.2957 82.9224 19.5875V16.8117C82.9224 15.1035 83.4348 13.6943 84.417 12.6267C85.4419 11.559 86.7658 11.0039 88.3885 11.0039C90.0967 11.0039 91.4206 11.4309 92.4028 12.2423C93.385 13.0964 93.8547 14.2494 93.812 15.7441V15.7868H91.0789C91.0789 14.89 90.8654 14.2067 90.4384 13.7797C90.0113 13.3526 89.328 13.1391 88.4312 13.1391C87.5772 13.1391 86.9366 13.4807 86.4668 14.164C85.9971 14.8473 85.7409 15.7014 85.7409 16.769V19.5875C85.7409 20.6551 85.9971 21.5519 86.4668 22.2352C86.9793 22.9184 87.6626 23.2601 88.5594 23.2601C89.4134 23.2601 90.0113 23.0465 90.4384 22.6195C90.8654 22.1925 91.0789 21.5092 91.0789 20.6124H93.7693ZM109.228 19.4594C109.228 21.1675 108.673 22.6195 107.606 23.7298C106.538 24.8401 105.129 25.3953 103.378 25.3953C101.627 25.3953 100.26 24.8401 99.1501 23.7298C98.0825 22.6195 97.5273 21.1675 97.5273 19.4594V16.9398C97.5273 15.2316 98.0825 13.8224 99.1501 12.6694C100.218 11.559 101.627 10.9612 103.335 10.9612C105.086 10.9612 106.495 11.5163 107.563 12.6694C108.673 13.7797 109.186 15.2316 109.186 16.9398V19.4594H109.228ZM106.41 16.8971C106.41 15.7868 106.154 14.9327 105.598 14.2067C105.043 13.5235 104.317 13.1391 103.335 13.1391C102.396 13.1391 101.627 13.4807 101.114 14.2067C100.602 14.89 100.303 15.7868 100.303 16.8971V19.4167C100.303 20.527 100.559 21.4238 101.114 22.1497C101.627 22.833 102.396 23.2174 103.335 23.2174C104.317 23.2174 105.043 22.8757 105.598 22.1497C106.154 21.4665 106.41 20.527 106.41 19.4167V16.8971ZM116.488 25.1818H113.67V11.1747H116.488V25.1818ZM132.673 25.1818H129.855L124.218 15.7441H124.175V25.1818H121.356V11.1747H124.175L129.812 20.6124H129.855V11.1747H132.673V25.1818ZM146.808 13.3526H142.794V25.1818H139.976V13.3526H136.047V11.1747H146.808V13.3526ZM158.424 19.0323H153.214V23.0465H159.406V25.1818H150.438V11.1747H159.406V13.3526H153.257V16.8544H158.467V19.0323H158.424ZM166.239 23.0465H172.516V25.1818H163.42V11.1747H166.239V23.0465ZM184.474 19.0323H179.264V23.0465H185.456V25.1818H176.488V11.1747H185.456V13.3526H179.306V16.8544H184.516V19.0323H184.474ZM200.232 23.3028C199.805 23.8579 199.164 24.3704 198.267 24.7974C197.413 25.2245 196.303 25.438 194.936 25.438C193.228 25.438 191.861 24.9255 190.794 23.8579C189.726 22.7903 189.171 21.4238 189.171 19.7156V16.769C189.171 15.0608 189.684 13.6943 190.751 12.6267C191.776 11.559 193.143 11.0039 194.765 11.0039C196.474 11.0039 197.797 11.4309 198.694 12.2423C199.591 13.0537 200.061 14.1213 200.018 15.4879V15.5306H197.37C197.37 14.8046 197.157 14.2067 196.73 13.7797C196.303 13.3526 195.662 13.1391 194.851 13.1391C193.997 13.1391 193.313 13.4807 192.758 14.1213C192.246 14.8046 191.99 15.6587 191.99 16.6836V19.6302C191.99 20.6978 192.246 21.5519 192.801 22.2352C193.356 22.9184 194.082 23.2174 194.979 23.2174C195.662 23.2174 196.175 23.1319 196.559 23.0038C196.943 22.8757 197.242 22.7049 197.456 22.4914V19.7583H194.765V17.7939H200.274V23.3028H200.232ZM207.491 19.5875V25.1818H204.673V11.1747H209.541C211.121 11.1747 212.402 11.559 213.299 12.285C214.196 13.011 214.666 14.0359 214.666 15.317C214.666 16.043 214.495 16.6409 214.111 17.196C213.726 17.7085 213.171 18.1355 212.445 18.4772C213.256 18.7334 213.854 19.1177 214.239 19.7156C214.58 20.2708 214.794 20.9967 214.794 21.8508V22.8757C214.794 23.2601 214.836 23.6871 214.965 24.1142C215.05 24.5412 215.264 24.8401 215.52 25.0537V25.2672H212.616C212.36 25.0537 212.189 24.712 212.103 24.2423C212.018 23.7725 211.975 23.3028 211.975 22.8757V21.8935C211.975 21.2103 211.804 20.6551 211.42 20.2708C211.036 19.8864 210.481 19.6729 209.797 19.6729H207.491V19.5875ZM207.491 17.4523H209.498C210.267 17.4523 210.865 17.2814 211.249 16.9398C211.634 16.5982 211.847 16.1284 211.847 15.4452C211.847 14.8046 211.634 14.2921 211.249 13.9078C210.865 13.5234 210.31 13.3526 209.541 13.3526H207.491V17.4523ZM226.58 22.1925H222.054L221.114 25.2245H218.167L222.908 11.2174H225.769L230.466 25.2245H227.52L226.58 22.1925ZM222.737 19.9718H225.897L224.36 15.0181H224.317L222.737 19.9718ZM236.701 20.0999V25.1818H233.883V11.1747H239.263C240.886 11.1747 242.125 11.6017 243.064 12.4131C244.004 13.2245 244.431 14.3348 244.431 15.6587C244.431 16.9825 243.961 18.0928 243.064 18.9042C242.125 19.7156 240.886 20.1426 239.263 20.1426H236.701V20.0999ZM236.701 17.9647H239.263C240.032 17.9647 240.63 17.7512 241.057 17.3241C241.441 16.8971 241.655 16.3419 241.655 15.7014C241.655 15.0181 241.441 14.4629 241.057 14.0359C240.673 13.6089 240.075 13.3953 239.263 13.3953H236.701V17.9647ZM259.847 25.1818H257.029V19.374H251.306V25.1818H248.488V11.1747H251.306V17.196H257.029V11.1747H259.847V25.1818Z"/>
</mask>
<path d="M93.7693 20.6124C93.812 22.1071 93.3423 23.2601 92.4028 24.1142C91.4633 24.9682 90.1821 25.3953 88.5167 25.3953C86.8512 25.3953 85.4846 24.8401 84.4597 23.7725C83.4348 22.7049 82.9224 21.2957 82.9224 19.5875V16.8117C82.9224 15.1035 83.4348 13.6943 84.417 12.6267C85.4419 11.559 86.7658 11.0039 88.3885 11.0039C90.0967 11.0039 91.4206 11.4309 92.4028 12.2423C93.385 13.0964 93.8547 14.2494 93.812 15.7441V15.7868H91.0789C91.0789 14.89 90.8654 14.2067 90.4384 13.7797C90.0113 13.3526 89.328 13.1391 88.4312 13.1391C87.5772 13.1391 86.9366 13.4807 86.4668 14.164C85.9971 14.8473 85.7409 15.7014 85.7409 16.769V19.5875C85.7409 20.6551 85.9971 21.5519 86.4668 22.2352C86.9793 22.9184 87.6626 23.2601 88.5594 23.2601C89.4134 23.2601 90.0113 23.0465 90.4384 22.6195C90.8654 22.1925 91.0789 21.5092 91.0789 20.6124H93.7693ZM109.228 19.4594C109.228 21.1675 108.673 22.6195 107.606 23.7298C106.538 24.8401 105.129 25.3953 103.378 25.3953C101.627 25.3953 100.26 24.8401 99.1501 23.7298C98.0825 22.6195 97.5273 21.1675 97.5273 19.4594V16.9398C97.5273 15.2316 98.0825 13.8224 99.1501 12.6694C100.218 11.559 101.627 10.9612 103.335 10.9612C105.086 10.9612 106.495 11.5163 107.563 12.6694C108.673 13.7797 109.186 15.2316 109.186 16.9398V19.4594H109.228ZM106.41 16.8971C106.41 15.7868 106.154 14.9327 105.598 14.2067C105.043 13.5235 104.317 13.1391 103.335 13.1391C102.396 13.1391 101.627 13.4807 101.114 14.2067C100.602 14.89 100.303 15.7868 100.303 16.8971V19.4167C100.303 20.527 100.559 21.4238 101.114 22.1497C101.627 22.833 102.396 23.2174 103.335 23.2174C104.317 23.2174 105.043 22.8757 105.598 22.1497C106.154 21.4665 106.41 20.527 106.41 19.4167V16.8971ZM116.488 25.1818H113.67V11.1747H116.488V25.1818ZM132.673 25.1818H129.855L124.218 15.7441H124.175V25.1818H121.356V11.1747H124.175L129.812 20.6124H129.855V11.1747H132.673V25.1818ZM146.808 13.3526H142.794V25.1818H139.976V13.3526H136.047V11.1747H146.808V13.3526ZM158.424 19.0323H153.214V23.0465H159.406V25.1818H150.438V11.1747H159.406V13.3526H153.257V16.8544H158.467V19.0323H158.424ZM166.239 23.0465H172.516V25.1818H163.42V11.1747H166.239V23.0465ZM184.474 19.0323H179.264V23.0465H185.456V25.1818H176.488V11.1747H185.456V13.3526H179.306V16.8544H184.516V19.0323H184.474ZM200.232 23.3028C199.805 23.8579 199.164 24.3704 198.267 24.7974C197.413 25.2245 196.303 25.438 194.936 25.438C193.228 25.438 191.861 24.9255 190.794 23.8579C189.726 22.7903 189.171 21.4238 189.171 19.7156V16.769C189.171 15.0608 189.684 13.6943 190.751 12.6267C191.776 11.559 193.143 11.0039 194.765 11.0039C196.474 11.0039 197.797 11.4309 198.694 12.2423C199.591 13.0537 200.061 14.1213 200.018 15.4879V15.5306H197.37C197.37 14.8046 197.157 14.2067 196.73 13.7797C196.303 13.3526 195.662 13.1391 194.851 13.1391C193.997 13.1391 193.313 13.4807 192.758 14.1213C192.246 14.8046 191.99 15.6587 191.99 16.6836V19.6302C191.99 20.6978 192.246 21.5519 192.801 22.2352C193.356 22.9184 194.082 23.2174 194.979 23.2174C195.662 23.2174 196.175 23.1319 196.559 23.0038C196.943 22.8757 197.242 22.7049 197.456 22.4914V19.7583H194.765V17.7939H200.274V23.3028H200.232ZM207.491 19.5875V25.1818H204.673V11.1747H209.541C211.121 11.1747 212.402 11.559 213.299 12.285C214.196 13.011 214.666 14.0359 214.666 15.317C214.666 16.043 214.495 16.6409 214.111 17.196C213.726 17.7085 213.171 18.1355 212.445 18.4772C213.256 18.7334 213.854 19.1177 214.239 19.7156C214.58 20.2708 214.794 20.9967 214.794 21.8508V22.8757C214.794 23.2601 214.836 23.6871 214.965 24.1142C215.05 24.5412 215.264 24.8401 215.52 25.0537V25.2672H212.616C212.36 25.0537 212.189 24.712 212.103 24.2423C212.018 23.7725 211.975 23.3028 211.975 22.8757V21.8935C211.975 21.2103 211.804 20.6551 211.42 20.2708C211.036 19.8864 210.481 19.6729 209.797 19.6729H207.491V19.5875ZM207.491 17.4523H209.498C210.267 17.4523 210.865 17.2814 211.249 16.9398C211.634 16.5982 211.847 16.1284 211.847 15.4452C211.847 14.8046 211.634 14.2921 211.249 13.9078C210.865 13.5234 210.31 13.3526 209.541 13.3526H207.491V17.4523ZM226.58 22.1925H222.054L221.114 25.2245H218.167L222.908 11.2174H225.769L230.466 25.2245H227.52L226.58 22.1925ZM222.737 19.9718H225.897L224.36 15.0181H224.317L222.737 19.9718ZM236.701 20.0999V25.1818H233.883V11.1747H239.263C240.886 11.1747 242.125 11.6017 243.064 12.4131C244.004 13.2245 244.431 14.3348 244.431 15.6587C244.431 16.9825 243.961 18.0928 243.064 18.9042C242.125 19.7156 240.886 20.1426 239.263 20.1426H236.701V20.0999ZM236.701 17.9647H239.263C240.032 17.9647 240.63 17.7512 241.057 17.3241C241.441 16.8971 241.655 16.3419 241.655 15.7014C241.655 15.0181 241.441 14.4629 241.057 14.0359C240.673 13.6089 240.075 13.3953 239.263 13.3953H236.701V17.9647ZM259.847 25.1818H257.029V19.374H251.306V25.1818H248.488V11.1747H251.306V17.196H257.029V11.1747H259.847V25.1818Z" fill="black"/>
<path d="M92.2024 20.5697V20.6124H95.3362V20.5697H92.2024ZM93.7693 20.6124L96.9019 20.5229C96.8535 18.8276 95.4652 17.4785 93.7693 17.4785V20.6124ZM84.417 12.6267L82.1563 10.4563C82.1409 10.4723 82.1257 10.4885 82.1107 10.5048L84.417 12.6267ZM92.4028 12.2423L94.4591 9.87746C94.4392 9.86012 94.419 9.84304 94.3987 9.82621L92.4028 12.2423ZM93.812 15.7441L90.6794 15.6546C90.6785 15.6844 90.6781 15.7142 90.6781 15.7441L93.812 15.7441ZM93.812 15.7868V18.9207C95.5428 18.9207 96.9459 17.5176 96.9459 15.7868H93.812ZM91.0789 15.7868H87.945C87.945 17.5176 89.3481 18.9207 91.0789 18.9207V15.7868ZM86.4668 22.2352L83.8844 24.0106C83.9088 24.0461 83.9339 24.0811 83.9597 24.1155L86.4668 22.2352ZM91.0789 20.6124V17.4785C89.3481 17.4785 87.945 18.8816 87.945 20.6124H91.0789ZM109.228 19.4594H112.362C112.362 17.7286 110.959 16.3255 109.228 16.3255V19.4594ZM99.1501 23.7298L96.8911 25.9019C96.9052 25.9167 96.9196 25.9313 96.9341 25.9458L99.1501 23.7298ZM99.1501 12.6694L96.8911 10.4972C96.8774 10.5114 96.8639 10.5257 96.8505 10.5402L99.1501 12.6694ZM107.563 12.6694L105.263 14.7986C105.291 14.828 105.318 14.857 105.347 14.8854L107.563 12.6694ZM109.186 19.4594H106.052C106.052 21.1902 107.455 22.5933 109.186 22.5933V19.4594ZM105.598 14.2067L108.088 12.303C108.069 12.2786 108.05 12.2544 108.031 12.2305L105.598 14.2067ZM101.114 14.2067L103.622 16.0871C103.64 16.063 103.657 16.0386 103.675 16.014L101.114 14.2067ZM101.114 22.1497L103.622 20.2694C103.616 20.2616 103.61 20.2538 103.604 20.2461L101.114 22.1497ZM105.598 22.1497L103.166 20.1735C103.147 20.1974 103.128 20.2216 103.109 20.2461L105.598 22.1497ZM116.488 25.1818V28.3157C118.219 28.3157 119.622 26.9126 119.622 25.1818H116.488ZM113.67 25.1818H110.536C110.536 26.9126 111.939 28.3157 113.67 28.3157V25.1818ZM113.67 11.1747V8.04081C111.939 8.04081 110.536 9.4439 110.536 11.1747H113.67ZM116.488 11.1747H119.622C119.622 9.4439 118.219 8.04081 116.488 8.04081V11.1747ZM132.673 25.1818V28.3157C134.404 28.3157 135.807 26.9126 135.807 25.1818H132.673ZM129.855 25.1818L127.164 26.7888C127.73 27.7358 128.752 28.3157 129.855 28.3157V25.1818ZM124.218 15.7441L126.908 14.1371C126.342 13.1901 125.321 12.6102 124.218 12.6102V15.7441ZM124.175 15.7441V12.6102C122.444 12.6102 121.041 14.0133 121.041 15.7441H124.175ZM124.175 25.1818V28.3157C125.906 28.3157 127.309 26.9126 127.309 25.1818H124.175ZM121.356 25.1818H118.223C118.223 26.9126 119.626 28.3157 121.356 28.3157V25.1818ZM121.356 11.1747V8.04081C119.626 8.04081 118.223 9.4439 118.223 11.1747H121.356ZM124.175 11.1747L126.865 9.5677C126.3 8.62071 125.278 8.04081 124.175 8.04081V11.1747ZM129.812 20.6124L127.121 22.2194C127.687 23.1664 128.709 23.7463 129.812 23.7463V20.6124ZM129.855 20.6124V23.7463C131.585 23.7463 132.988 22.3432 132.988 20.6124H129.855ZM129.855 11.1747V8.04081C128.124 8.04081 126.721 9.4439 126.721 11.1747H129.855ZM132.673 11.1747H135.807C135.807 9.4439 134.404 8.04081 132.673 8.04081V11.1747ZM146.808 13.3526V16.4865C148.539 16.4865 149.942 15.0834 149.942 13.3526H146.808ZM142.794 13.3526V10.2187C141.063 10.2187 139.66 11.6218 139.66 13.3526H142.794ZM142.794 25.1818V28.3157C144.525 28.3157 145.928 26.9126 145.928 25.1818H142.794ZM139.976 25.1818H136.842C136.842 26.9126 138.245 28.3157 139.976 28.3157V25.1818ZM139.976 13.3526H143.109C143.109 11.6218 141.706 10.2187 139.976 10.2187V13.3526ZM136.047 13.3526H132.913C132.913 15.0834 134.316 16.4865 136.047 16.4865V13.3526ZM136.047 11.1747V8.04081C134.316 8.04081 132.913 9.4439 132.913 11.1747H136.047ZM146.808 11.1747H149.942C149.942 9.4439 148.539 8.04081 146.808 8.04081V11.1747ZM153.214 19.0323V15.8984C151.483 15.8984 150.08 17.3015 150.08 19.0323H153.214ZM153.214 23.0465H150.08C150.08 24.7773 151.483 26.1804 153.214 26.1804V23.0465ZM159.406 23.0465H162.54C162.54 21.3157 161.137 19.9127 159.406 19.9127V23.0465ZM159.406 25.1818V28.3157C161.137 28.3157 162.54 26.9126 162.54 25.1818H159.406ZM150.438 25.1818H147.304C147.304 26.9126 148.707 28.3157 150.438 28.3157V25.1818ZM150.438 11.1747V8.04081C148.707 8.04081 147.304 9.4439 147.304 11.1747H150.438ZM159.406 11.1747H162.54C162.54 9.4439 161.137 8.04081 159.406 8.04081V11.1747ZM159.406 13.3526V16.4865C161.137 16.4865 162.54 15.0834 162.54 13.3526H159.406ZM153.257 13.3526V10.2187C151.526 10.2187 150.123 11.6218 150.123 13.3526H153.257ZM153.257 16.8544H150.123C150.123 18.5852 151.526 19.9883 153.257 19.9883V16.8544ZM158.467 16.8544H161.6C161.6 15.1236 160.197 13.7205 158.467 13.7205V16.8544ZM158.467 19.0323V22.1662C160.197 22.1662 161.6 20.7631 161.6 19.0323H158.467ZM166.239 23.0465H163.105C163.105 24.7773 164.508 26.1804 166.239 26.1804V23.0465ZM172.516 23.0465H175.65C175.65 21.3157 174.247 19.9127 172.516 19.9127V23.0465ZM172.516 25.1818V28.3157C174.247 28.3157 175.65 26.9126 175.65 25.1818H172.516ZM163.42 25.1818H160.286C160.286 26.9126 161.69 28.3157 163.42 28.3157V25.1818ZM163.42 11.1747V8.04081C161.69 8.04081 160.286 9.4439 160.286 11.1747H163.42ZM166.239 11.1747H169.373C169.373 9.4439 167.97 8.04081 166.239 8.04081V11.1747ZM179.264 19.0323V15.8984C177.533 15.8984 176.13 17.3015 176.13 19.0323H179.264ZM179.264 23.0465H176.13C176.13 24.7773 177.533 26.1804 179.264 26.1804V23.0465ZM185.456 23.0465H188.59C188.59 21.3157 187.187 19.9127 185.456 19.9127V23.0465ZM185.456 25.1818V28.3157C187.187 28.3157 188.59 26.9126 188.59 25.1818H185.456ZM176.488 25.1818H173.354C173.354 26.9126 174.757 28.3157 176.488 28.3157V25.1818ZM176.488 11.1747V8.04081C174.757 8.04081 173.354 9.4439 173.354 11.1747H176.488ZM185.456 11.1747H188.59C188.59 9.4439 187.187 8.04081 185.456 8.04081V11.1747ZM185.456 13.3526V16.4865C187.187 16.4865 188.59 15.0834 188.59 13.3526H185.456ZM179.306 13.3526V10.2187C177.576 10.2187 176.172 11.6218 176.172 13.3526H179.306ZM179.306 16.8544H176.172C176.172 18.5852 177.576 19.9883 179.306 19.9883V16.8544ZM184.516 16.8544H187.65C187.65 15.1236 186.247 13.7205 184.516 13.7205V16.8544ZM184.516 19.0323V22.1662C186.247 22.1662 187.65 20.7631 187.65 19.0323H184.516ZM200.232 23.3028V20.1689C199.259 20.1689 198.341 20.6208 197.748 21.392L200.232 23.3028ZM198.267 24.7974L196.92 21.968C196.902 21.9766 196.884 21.9854 196.866 21.9944L198.267 24.7974ZM190.751 12.6267L192.967 14.8426C192.982 14.8276 192.997 14.8124 193.012 14.797L190.751 12.6267ZM200.018 15.4879L196.886 15.39C196.885 15.4226 196.884 15.4552 196.884 15.4879L200.018 15.4879ZM200.018 15.5306V18.6644C201.749 18.6644 203.152 17.2614 203.152 15.5306H200.018ZM197.37 15.5306H194.236C194.236 17.2614 195.64 18.6644 197.37 18.6644V15.5306ZM192.758 14.1213L190.39 12.0688C190.342 12.1246 190.295 12.182 190.251 12.241L192.758 14.1213ZM197.456 22.4914L199.672 24.7074C200.259 24.1197 200.59 23.3225 200.59 22.4914H197.456ZM197.456 19.7583H200.59C200.59 18.0275 199.187 16.6244 197.456 16.6244V19.7583ZM194.765 19.7583H191.632C191.632 21.4891 193.035 22.8922 194.765 22.8922V19.7583ZM194.765 17.7939V14.66C193.035 14.66 191.632 16.0631 191.632 17.7939H194.765ZM200.274 17.7939H203.408C203.408 16.0631 202.005 14.66 200.274 14.66V17.7939ZM200.274 23.3028V26.4367C202.005 26.4367 203.408 25.0336 203.408 23.3028H200.274ZM210.625 19.5875C210.625 17.8567 209.222 16.4536 207.491 16.4536C205.761 16.4536 204.357 17.8567 204.357 19.5875H210.625ZM207.491 25.1818V28.3157C209.222 28.3157 210.625 26.9126 210.625 25.1818H207.491ZM204.673 25.1818H201.539C201.539 26.9126 202.942 28.3157 204.673 28.3157V25.1818ZM204.673 11.1747V8.04081C202.942 8.04081 201.539 9.4439 201.539 11.1747H204.673ZM214.111 17.196L216.618 19.0764C216.641 19.0447 216.665 19.0125 216.687 18.9799L214.111 17.196ZM212.445 18.4772L211.111 15.6416C209.943 16.1909 209.232 17.3996 209.318 18.6869C209.405 19.9742 210.271 21.0771 211.501 21.4656L212.445 18.4772ZM214.239 19.7156L216.908 18.0731C216.897 18.0556 216.886 18.0382 216.875 18.0209L214.239 19.7156ZM214.965 24.1142L218.038 23.4995C218.018 23.4032 217.995 23.3078 217.966 23.2136L214.965 24.1142ZM215.52 25.0537H218.654C218.654 24.1236 218.241 23.2416 217.526 22.6461L215.52 25.0537ZM215.52 25.2672V28.4011C217.251 28.4011 218.654 26.998 218.654 25.2672H215.52ZM212.616 25.2672L210.61 27.6747C211.173 28.144 211.883 28.4011 212.616 28.4011V25.2672ZM207.491 19.6729H204.357C204.357 21.4037 205.761 22.8068 207.491 22.8068V19.6729ZM207.491 17.4523H204.357C204.357 19.1831 205.761 20.5861 207.491 20.5861V17.4523ZM211.249 16.9398L213.331 19.2821L211.249 16.9398ZM211.249 13.9078L213.465 11.6918L211.249 13.9078ZM207.491 13.3526V10.2187C205.761 10.2187 204.357 11.6218 204.357 13.3526H207.491ZM226.58 22.1925L229.574 21.2649C229.167 19.9529 227.954 19.0586 226.58 19.0586V22.1925ZM222.054 22.1925V19.0586C220.68 19.0586 219.467 19.9529 219.06 21.2649L222.054 22.1925ZM221.114 25.2245V28.3584C222.488 28.3584 223.701 27.464 224.108 26.152L221.114 25.2245ZM218.167 25.2245L215.199 24.2199C214.875 25.1765 215.032 26.2305 215.621 27.0511C216.21 27.8717 217.158 28.3584 218.167 28.3584V25.2245ZM222.908 11.2174V8.08352C221.564 8.08352 220.37 8.94007 219.939 10.2128L222.908 11.2174ZM225.769 11.2174L228.74 10.221C228.312 8.94404 227.116 8.08352 225.769 8.08352V11.2174ZM230.466 25.2245V28.3584C231.475 28.3584 232.421 27.8731 233.01 27.0546C233.599 26.236 233.758 25.1841 233.438 24.228L230.466 25.2245ZM227.52 25.2245L224.526 26.152C224.933 27.464 226.146 28.3584 227.52 28.3584V25.2245ZM222.737 19.9718L219.751 19.0195C219.447 19.9724 219.616 21.0131 220.206 21.8207C220.796 22.6283 221.737 23.1057 222.737 23.1057V19.9718ZM225.897 19.9718V23.1057C226.893 23.1057 227.829 22.6324 228.42 21.8306C229.011 21.0289 229.185 19.9941 228.89 19.043L225.897 19.9718ZM224.36 15.0181L227.353 14.0892C226.946 12.7779 225.733 11.8842 224.36 11.8842V15.0181ZM224.317 15.0181V11.8842C222.953 11.8842 221.746 12.7664 221.331 14.0658L224.317 15.0181ZM239.835 20.0999C239.835 18.3691 238.432 16.966 236.701 16.966C234.97 16.966 233.567 18.3691 233.567 20.0999H239.835ZM236.701 25.1818V28.3157C238.432 28.3157 239.835 26.9126 239.835 25.1818H236.701ZM233.883 25.1818H230.749C230.749 26.9126 232.152 28.3157 233.883 28.3157V25.1818ZM233.883 11.1747V8.04081C232.152 8.04081 230.749 9.4439 230.749 11.1747H233.883ZM243.064 18.9042L245.113 21.276C245.131 21.2603 245.149 21.2443 245.167 21.2281L243.064 18.9042ZM236.701 20.1426H233.567C233.567 21.8734 234.97 23.2765 236.701 23.2765V20.1426ZM236.701 17.9647H233.567C233.567 19.6955 234.97 21.0986 236.701 21.0986V17.9647ZM241.057 17.3241L243.273 19.5401C243.312 19.5013 243.35 19.4614 243.386 19.4206L241.057 17.3241ZM236.701 13.3953V10.2614C234.97 10.2614 233.567 11.6645 233.567 13.3953H236.701ZM259.847 25.1818V28.3157C261.578 28.3157 262.981 26.9126 262.981 25.1818H259.847ZM257.029 25.1818H253.895C253.895 26.9126 255.298 28.3157 257.029 28.3157V25.1818ZM257.029 19.374H260.162C260.162 17.6432 258.759 16.2401 257.029 16.2401V19.374ZM251.306 19.374V16.2401C249.575 16.2401 248.172 17.6432 248.172 19.374H251.306ZM251.306 25.1818V28.3157C253.037 28.3157 254.44 26.9126 254.44 25.1818H251.306ZM248.488 25.1818H245.354C245.354 26.9126 246.757 28.3157 248.488 28.3157V25.1818ZM248.488 11.1747V8.04081C246.757 8.04081 245.354 9.4439 245.354 11.1747H248.488ZM251.306 11.1747H254.44C254.44 9.4439 253.037 8.04081 251.306 8.04081V11.1747ZM251.306 17.196H248.172C248.172 18.9268 249.575 20.3299 251.306 20.3299V17.196ZM257.029 17.196V20.3299C258.759 20.3299 260.162 18.9268 260.162 17.196H257.029ZM257.029 11.1747V8.04081C255.298 8.04081 253.895 9.4439 253.895 11.1747H257.029ZM259.847 11.1747H262.981C262.981 9.4439 261.578 8.04081 259.847 8.04081V11.1747ZM90.6367 20.7019C90.6569 21.4078 90.4703 21.6356 90.2947 21.7953L94.5108 26.433C96.2142 24.8845 96.9672 22.8063 96.9019 20.5229L90.6367 20.7019ZM90.2947 21.7953C90.086 21.985 89.6391 22.2614 88.5167 22.2614V28.5292C90.7252 28.5292 92.8406 27.9515 94.5108 26.433L90.2947 21.7953ZM88.5167 22.2614C87.6066 22.2614 87.0899 21.987 86.7205 21.6022L82.199 25.9428C83.8794 27.6933 86.0958 28.5292 88.5167 28.5292V22.2614ZM86.7205 21.6022C86.3496 21.2159 86.0563 20.633 86.0563 19.5875H79.7885C79.7885 21.9584 80.52 24.194 82.199 25.9428L86.7205 21.6022ZM86.0563 19.5875V16.8117H79.7885V19.5875H86.0563ZM86.0563 16.8117C86.0563 15.7623 86.3536 15.1504 86.7233 14.7485L82.1107 10.5048C80.516 12.2382 79.7885 14.4447 79.7885 16.8117H86.0563ZM86.6778 14.797C87.0724 14.386 87.5606 14.1378 88.3885 14.1378V7.87C85.971 7.87 83.8115 8.73213 82.1563 10.4563L86.6778 14.797ZM88.3885 14.1378C89.5695 14.1378 90.124 14.4248 90.4068 14.6584L94.3987 9.82621C92.7171 8.43706 90.624 7.87 88.3885 7.87V14.1378ZM90.3464 14.6072C90.5205 14.7586 90.6993 14.957 90.6794 15.6546L96.9446 15.8336C97.0101 13.5419 96.2494 11.4342 94.4591 9.87746L90.3464 14.6072ZM90.6781 15.7441V15.7868H96.9459V15.7441H90.6781ZM93.812 12.6529H91.0789V18.9207H93.812V12.6529ZM94.2128 15.7868C94.2128 14.4839 93.9135 12.8228 92.6543 11.5637L88.2224 15.9957C88.0199 15.7932 87.9483 15.6073 87.9318 15.5553C87.9185 15.5133 87.945 15.5752 87.945 15.7868H94.2128ZM92.6543 11.5637C91.3952 10.3045 89.7342 10.0052 88.4312 10.0052V16.273C88.6428 16.273 88.7047 16.2996 88.6627 16.2862C88.6107 16.2697 88.4248 16.1981 88.2224 15.9957L92.6543 11.5637ZM88.4312 10.0052C86.5505 10.0052 84.9418 10.8505 83.8844 12.3886L89.0493 15.9395C89.0389 15.9545 88.9497 16.0714 88.7608 16.1705C88.6738 16.2162 88.592 16.2438 88.526 16.2588C88.462 16.2734 88.4269 16.273 88.4312 16.273V10.0052ZM83.8844 12.3886C82.9972 13.679 82.607 15.1787 82.607 16.769H88.8748C88.8748 16.4861 88.9086 16.2975 88.9424 16.1784C88.9749 16.0638 89.0134 15.9916 89.0493 15.9395L83.8844 12.3886ZM82.607 16.769V19.5875H88.8748V16.769H82.607ZM82.607 19.5875C82.607 21.1475 82.9829 22.6993 83.8844 24.0106L89.0493 20.4597C89.0113 20.4045 88.8748 20.1626 88.8748 19.5875H82.607ZM83.9597 24.1155C85.0812 25.6108 86.7052 26.394 88.5594 26.394V20.1262C88.5177 20.1262 88.6083 20.1209 88.7532 20.1922C88.8199 20.225 88.8758 20.2636 88.9181 20.2996C88.9592 20.3347 88.9763 20.3579 88.9739 20.3548L83.9597 24.1155ZM88.5594 26.394C89.9504 26.394 91.46 26.0299 92.6543 24.8355L88.2224 20.4035C88.284 20.3418 88.3565 20.2838 88.4361 20.2345C88.5152 20.1856 88.5856 20.1551 88.6374 20.1372C88.7355 20.1034 88.7336 20.1262 88.5594 20.1262V26.394ZM92.6543 24.8355C93.9135 23.5763 94.2128 21.9153 94.2128 20.6124H87.945C87.945 20.824 87.9185 20.8858 87.9318 20.8438C87.9483 20.7919 88.0199 20.6059 88.2224 20.4035L92.6543 24.8355ZM91.0789 23.7463H93.7693V17.4785H91.0789V23.7463ZM106.094 19.4594C106.094 20.4463 105.794 21.0921 105.347 21.5577L109.865 25.9019C111.552 24.1469 112.362 21.8888 112.362 19.4594H106.094ZM105.347 21.5577C104.953 21.9672 104.404 22.2614 103.378 22.2614V28.5292C105.854 28.5292 108.123 27.713 109.865 25.9019L105.347 21.5577ZM103.378 22.2614C102.39 22.2614 101.842 21.9898 101.366 21.5138L96.9341 25.9458C98.6787 27.6904 100.864 28.5292 103.378 28.5292V22.2614ZM101.409 21.5577C100.961 21.0921 100.661 20.4463 100.661 19.4594H94.3934C94.3934 21.8888 95.2035 24.1469 96.8911 25.9019L101.409 21.5577ZM100.661 19.4594V16.9398H94.3934V19.4594H100.661ZM100.661 16.9398C100.661 15.988 100.94 15.3484 101.45 14.7986L96.8505 10.5402C95.2245 12.2963 94.3934 14.4753 94.3934 16.9398H100.661ZM101.409 14.8415C101.85 14.3828 102.426 14.0951 103.335 14.0951V7.82729C100.827 7.82729 98.5853 8.73526 96.8911 10.4972L101.409 14.8415ZM103.335 14.0951C104.355 14.0951 104.879 14.3833 105.263 14.7986L109.862 10.5402C108.112 8.64933 105.817 7.82729 103.335 7.82729V14.0951ZM105.347 14.8854C105.761 15.2991 106.052 15.8951 106.052 16.9398H112.32C112.32 14.5682 111.586 12.2602 109.779 10.4534L105.347 14.8854ZM106.052 16.9398V19.4594H112.32V16.9398H106.052ZM109.186 22.5933H109.228V16.3255H109.186V22.5933ZM109.544 16.8971C109.544 15.2555 109.147 13.6883 108.088 12.303L103.109 16.1104C103.16 16.1771 103.276 16.3181 103.276 16.8971H109.544ZM108.031 12.2305C106.904 10.8435 105.297 10.0052 103.335 10.0052V16.273C103.375 16.273 103.381 16.2768 103.359 16.2722C103.337 16.2673 103.3 16.2563 103.258 16.2357C103.215 16.2151 103.184 16.193 103.164 16.1771C103.146 16.1622 103.148 16.1602 103.166 16.1829L108.031 12.2305ZM103.335 10.0052C101.56 10.0052 99.752 10.7025 98.5542 12.3995L103.675 16.014C103.655 16.0413 103.621 16.0831 103.568 16.1279C103.514 16.1729 103.457 16.2092 103.401 16.2354C103.288 16.2889 103.244 16.273 103.335 16.273V10.0052ZM98.6074 12.3264C97.6329 13.6257 97.1692 15.2068 97.1692 16.8971H103.437C103.437 16.3668 103.571 16.1543 103.622 16.0871L98.6074 12.3264ZM97.1692 16.8971V19.4167H103.437V16.8971H97.1692ZM97.1692 19.4167C97.1692 21.0264 97.5502 22.6479 98.625 24.0534L103.604 20.2461C103.568 20.1997 103.437 20.0275 103.437 19.4167H97.1692ZM98.6074 24.0301C99.7435 25.5449 101.464 26.3512 103.335 26.3512V20.0835C103.299 20.0835 103.345 20.0778 103.434 20.1208C103.525 20.165 103.589 20.2266 103.622 20.2694L98.6074 24.0301ZM103.335 26.3512C105.206 26.3512 106.889 25.6218 108.088 24.0534L103.109 20.2461C103.099 20.2591 103.11 20.2422 103.146 20.2121C103.184 20.1806 103.234 20.1479 103.291 20.1211C103.347 20.0947 103.389 20.084 103.405 20.0807C103.419 20.0778 103.399 20.0835 103.335 20.0835V26.3512ZM108.031 24.126C109.189 22.7002 109.544 20.9674 109.544 19.4167H103.276C103.276 20.0865 103.118 20.2328 103.166 20.1735L108.031 24.126ZM109.544 19.4167V16.8971H103.276V19.4167H109.544ZM116.488 22.0479H113.67V28.3157H116.488V22.0479ZM116.803 25.1818V11.1747H110.536V25.1818H116.803ZM113.67 14.3086H116.488V8.04081H113.67V14.3086ZM113.354 11.1747V25.1818H119.622V11.1747H113.354ZM132.673 22.0479H129.855V28.3157H132.673V22.0479ZM132.545 23.5748L126.908 14.1371L121.527 17.3511L127.164 26.7888L132.545 23.5748ZM124.218 12.6102H124.175V18.878H124.218V12.6102ZM121.041 15.7441V25.1818H127.309V15.7441H121.041ZM124.175 22.0479H121.356V28.3157H124.175V22.0479ZM124.49 25.1818V11.1747H118.223V25.1818H124.49ZM121.356 14.3086H124.175V8.04081H121.356V14.3086ZM121.484 12.7817L127.121 22.2194L132.502 19.0054L126.865 9.5677L121.484 12.7817ZM129.812 23.7463H129.855V17.4785H129.812V23.7463ZM132.988 20.6124V11.1747H126.721V20.6124H132.988ZM129.855 14.3086H132.673V8.04081H129.855V14.3086ZM129.539 11.1747V25.1818H135.807V11.1747H129.539ZM146.808 10.2187H142.794V16.4865H146.808V10.2187ZM139.66 13.3526V25.1818H145.928V13.3526H139.66ZM142.794 22.0479H139.976V28.3157H142.794V22.0479ZM143.109 25.1818V13.3526H136.842V25.1818H143.109ZM139.976 10.2187H136.047V16.4865H139.976V10.2187ZM139.181 13.3526V11.1747H132.913V13.3526H139.181ZM136.047 14.3086H146.808V8.04081H136.047V14.3086ZM143.674 11.1747V13.3526H149.942V11.1747H143.674ZM158.424 15.8984H153.214V22.1662H158.424V15.8984ZM150.08 19.0323V23.0465H156.348V19.0323H150.08ZM153.214 26.1804H159.406V19.9127H153.214V26.1804ZM156.272 23.0465V25.1818H162.54V23.0465H156.272ZM159.406 22.0479H150.438V28.3157H159.406V22.0479ZM153.572 25.1818V11.1747H147.304V25.1818H153.572ZM150.438 14.3086H159.406V8.04081H150.438V14.3086ZM156.272 11.1747V13.3526H162.54V11.1747H156.272ZM159.406 10.2187H153.257V16.4865H159.406V10.2187ZM150.123 13.3526V16.8544H156.391V13.3526H150.123ZM153.257 19.9883H158.467V13.7205H153.257V19.9883ZM155.333 16.8544V19.0323H161.6V16.8544H155.333ZM158.467 15.8984H158.424V22.1662H158.467V15.8984ZM166.239 26.1804H172.516V19.9127H166.239V26.1804ZM169.382 23.0465V25.1818H175.65V23.0465H169.382ZM172.516 22.0479H163.42V28.3157H172.516V22.0479ZM166.554 25.1818V11.1747H160.286V25.1818H166.554ZM163.42 14.3086H166.239V8.04081H163.42V14.3086ZM163.105 11.1747V23.0465H169.373V11.1747H163.105ZM184.474 15.8984H179.264V22.1662H184.474V15.8984ZM176.13 19.0323V23.0465H182.398V19.0323H176.13ZM179.264 26.1804H185.456V19.9127H179.264V26.1804ZM182.322 23.0465V25.1818H188.59V23.0465H182.322ZM185.456 22.0479H176.488V28.3157H185.456V22.0479ZM179.622 25.1818V11.1747H173.354V25.1818H179.622ZM176.488 14.3086H185.456V8.04081H176.488V14.3086ZM182.322 11.1747V13.3526H188.59V11.1747H182.322ZM185.456 10.2187H179.306V16.4865H185.456V10.2187ZM176.172 13.3526V16.8544H182.44V13.3526H176.172ZM179.306 19.9883H184.516V13.7205H179.306V19.9883ZM181.382 16.8544V19.0323H187.65V16.8544H181.382ZM184.516 15.8984H184.474V22.1662H184.516V15.8984ZM197.748 21.392C197.68 21.4802 197.465 21.7082 196.92 21.968L199.615 27.6269C200.863 27.0326 201.929 26.2357 202.716 25.2135L197.748 21.392ZM196.866 21.9944C196.593 22.1307 196.012 22.3041 194.936 22.3041V28.5719C196.594 28.5719 198.233 28.3183 199.669 27.6005L196.866 21.9944ZM194.936 22.3041C193.92 22.3041 193.398 22.0303 193.01 21.6419L188.578 26.0739C190.325 27.8208 192.536 28.5719 194.936 28.5719V22.3041ZM193.01 21.6419C192.581 21.2129 192.305 20.6674 192.305 19.7156H186.037C186.037 22.1802 186.872 24.3678 188.578 26.0739L193.01 21.6419ZM192.305 19.7156V16.769H186.037V19.7156H192.305ZM192.305 16.769C192.305 15.7529 192.579 15.231 192.967 14.8426L188.535 10.4107C186.788 12.1575 186.037 14.3687 186.037 16.769H192.305ZM193.012 14.797C193.39 14.4036 193.911 14.1378 194.765 14.1378V7.87C192.374 7.87 190.163 8.71446 188.49 10.4563L193.012 14.797ZM194.765 14.1378C195.989 14.1378 196.457 14.444 196.592 14.5662L200.797 9.91842C199.138 8.4179 196.958 7.87 194.765 7.87V14.1378ZM196.592 14.5662C196.726 14.6878 196.783 14.7833 196.815 14.8602C196.848 14.9401 196.895 15.0981 196.886 15.39L203.15 15.5857C203.221 13.3369 202.403 11.3712 200.797 9.91842L196.592 14.5662ZM196.884 15.4879V15.5306H203.152V15.4879H196.884ZM200.018 12.3967H197.37V18.6644H200.018V12.3967ZM200.504 15.5306C200.504 14.1826 200.094 12.7114 198.946 11.5637L194.514 15.9957C194.385 15.8671 194.306 15.7258 194.265 15.614C194.228 15.5113 194.236 15.4718 194.236 15.5306H200.504ZM198.946 11.5637C197.737 10.3551 196.172 10.0052 194.851 10.0052V16.273C194.989 16.273 195.002 16.2921 194.928 16.2673C194.844 16.2387 194.68 16.1621 194.514 15.9957L198.946 11.5637ZM194.851 10.0052C193.013 10.0052 191.489 10.8003 190.39 12.0688L195.127 16.1738C195.165 16.1298 195.14 16.1719 195.041 16.2187C194.996 16.2404 194.95 16.2556 194.909 16.2645C194.869 16.2732 194.847 16.273 194.851 16.273V10.0052ZM190.251 12.241C189.255 13.5686 188.856 15.1201 188.856 16.6836H195.123C195.123 16.1973 195.236 16.0406 195.265 16.0016L190.251 12.241ZM188.856 16.6836V19.6302H195.123V16.6836H188.856ZM188.856 19.6302C188.856 21.2214 189.25 22.8341 190.369 24.2114L195.233 20.259C195.219 20.2416 195.202 20.2177 195.182 20.1526C195.158 20.0763 195.123 19.9162 195.123 19.6302H188.856ZM190.369 24.2114C191.6 25.7272 193.275 26.3512 194.979 26.3512V20.0835C194.88 20.0835 194.92 20.0679 195.027 20.1152C195.078 20.1378 195.127 20.1673 195.169 20.1998C195.21 20.2317 195.231 20.2558 195.233 20.259L190.369 24.2114ZM194.979 26.3512C195.914 26.3512 196.774 26.2355 197.55 25.9769L195.568 20.0308C195.575 20.0284 195.41 20.0835 194.979 20.0835V26.3512ZM197.55 25.9769C198.245 25.7451 199.017 25.3619 199.672 24.7074L195.24 20.2754C195.467 20.048 195.641 20.0063 195.568 20.0308L197.55 25.9769ZM200.59 22.4914V19.7583H194.322V22.4914H200.59ZM197.456 16.6244H194.765V22.8922H197.456V16.6244ZM197.899 19.7583V17.7939H191.632V19.7583H197.899ZM194.765 20.9278H200.274V14.66H194.765V20.9278ZM197.14 17.7939V23.3028H203.408V17.7939H197.14ZM200.274 20.1689H200.232V26.4367H200.274V20.1689ZM204.357 19.5875V25.1818H210.625V19.5875H204.357ZM207.491 22.0479H204.673V28.3157H207.491V22.0479ZM207.807 25.1818V11.1747H201.539V25.1818H207.807ZM204.673 14.3086H209.541V8.04081H204.673V14.3086ZM209.541 14.3086C210.65 14.3086 211.154 14.5806 211.327 14.7208L215.271 9.84922C213.651 8.53747 211.592 8.04081 209.541 8.04081V14.3086ZM211.327 14.7208C211.412 14.7893 211.444 14.8408 211.464 14.8851C211.487 14.9359 211.532 15.0634 211.532 15.317H217.8C217.8 13.1852 216.974 11.2275 215.271 9.84922L211.327 14.7208ZM211.532 15.317C211.532 15.3756 211.528 15.4113 211.526 15.4287C211.524 15.4454 211.522 15.4474 211.525 15.4391C211.527 15.4305 211.531 15.4199 211.536 15.4104C211.54 15.4013 211.541 15.4014 211.534 15.4122L216.687 18.9799C217.477 17.8389 217.8 16.601 217.8 15.317H211.532ZM211.603 15.3157C211.594 15.3281 211.488 15.4639 211.111 15.6416L213.779 21.3128C214.854 20.8072 215.858 20.0889 216.618 19.0764L211.603 15.3157ZM211.501 21.4656C211.596 21.4955 211.66 21.5213 211.699 21.5395C211.738 21.5574 211.749 21.5662 211.742 21.5615C211.734 21.5562 211.712 21.5396 211.682 21.5099C211.653 21.4797 211.625 21.4453 211.602 21.4103L216.875 18.0209C215.97 16.613 214.64 15.8839 213.389 15.4887L211.501 21.4656ZM211.57 21.3581C211.578 21.371 211.66 21.5173 211.66 21.8508H217.928C217.928 20.4762 217.583 19.1705 216.908 18.0731L211.57 21.3581ZM211.66 21.8508V22.8757H217.928V21.8508H211.66ZM211.66 22.8757C211.66 23.4834 211.726 24.2264 211.963 25.0147L217.966 23.2136C217.947 23.1478 217.928 23.0367 217.928 22.8757H211.66ZM211.892 24.7288C212.133 25.9371 212.773 26.844 213.513 27.4612L217.526 22.6461C217.624 22.7275 217.739 22.8475 217.841 23.0113C217.945 23.1787 218.008 23.3494 218.038 23.4995L211.892 24.7288ZM212.386 25.0537V25.2672H218.654V25.0537H212.386ZM215.52 22.1333H212.616V28.4011H215.52V22.1333ZM214.622 22.8597C215.13 23.2831 215.196 23.7345 215.187 23.6817L209.02 24.8029C209.181 25.6896 209.589 26.8242 210.61 27.6747L214.622 22.8597ZM215.187 23.6817C215.133 23.3851 215.109 23.1031 215.109 22.8757H208.841C208.841 23.5024 208.903 24.16 209.02 24.8029L215.187 23.6817ZM215.109 22.8757V21.8935H208.841V22.8757H215.109ZM215.109 21.8935C215.109 20.7272 214.815 19.2341 213.636 18.0548L209.204 22.4867C209.013 22.2961 208.914 22.0953 208.869 21.961C208.829 21.842 208.841 21.8037 208.841 21.8935H215.109ZM213.636 18.0548C212.554 16.9723 211.141 16.539 209.797 16.539V22.8068C209.814 22.8068 209.747 22.8093 209.627 22.7644C209.501 22.7176 209.347 22.6297 209.204 22.4867L213.636 18.0548ZM209.797 16.539H207.491V22.8068H209.797V16.539ZM210.625 19.6729V19.5875H204.357V19.6729H210.625ZM207.491 20.5861H209.498V14.3184H207.491V20.5861ZM209.498 20.5861C210.639 20.5861 212.134 20.3466 213.331 19.2821L209.167 14.5975C209.389 14.4003 209.583 14.3323 209.643 14.315C209.697 14.2991 209.661 14.3184 209.498 14.3184V20.5861ZM213.331 19.2821C214.485 18.2565 214.981 16.8798 214.981 15.4452H208.713C208.713 15.4603 208.711 15.3286 208.796 15.1242C208.886 14.9052 209.026 14.7229 209.167 14.5975L213.331 19.2821ZM214.981 15.4452C214.981 14.0462 214.487 12.7134 213.465 11.6918L209.033 16.1238C208.931 16.0214 208.839 15.8865 208.778 15.7338C208.72 15.585 208.713 15.4769 208.713 15.4452H214.981ZM213.465 11.6918C212.256 10.4829 210.732 10.2187 209.541 10.2187V16.4865C209.707 16.4865 209.696 16.5067 209.582 16.4702C209.443 16.4255 209.231 16.3211 209.033 16.1238L213.465 11.6918ZM209.541 10.2187H207.491V16.4865H209.541V10.2187ZM204.357 13.3526V17.4523H210.625V13.3526H204.357ZM226.58 19.0586H222.054V25.3263H226.58V19.0586ZM219.06 21.2649L218.121 24.2969L224.108 26.152L225.047 23.12L219.06 21.2649ZM221.114 22.0906H218.167V28.3584H221.114V22.0906ZM221.136 26.2291L225.876 12.222L219.939 10.2128L215.199 24.2199L221.136 26.2291ZM222.908 14.3513H225.769V8.08352H222.908V14.3513ZM222.798 12.2139L227.495 26.2209L233.438 24.228L228.74 10.221L222.798 12.2139ZM230.466 22.0906H227.52V28.3584H230.466V22.0906ZM230.513 24.2969L229.574 21.2649L223.587 23.12L224.526 26.152L230.513 24.2969ZM222.737 23.1057H225.897V16.8379H222.737V23.1057ZM228.89 19.043L227.353 14.0892L221.367 15.947L222.904 20.9007L228.89 19.043ZM224.36 11.8842H224.317V18.152H224.36V11.8842ZM221.331 14.0658L219.751 19.0195L225.722 20.9242L227.303 15.9704L221.331 14.0658ZM233.567 20.0999V25.1818H239.835V20.0999H233.567ZM236.701 22.0479H233.883V28.3157H236.701V22.0479ZM237.017 25.1818V11.1747H230.749V25.1818H237.017ZM233.883 14.3086H239.263V8.04081H233.883V14.3086ZM239.263 14.3086C240.307 14.3086 240.764 14.5675 241.016 14.7849L245.113 10.0413C243.485 8.63598 241.465 8.04081 239.263 8.04081V14.3086ZM241.016 14.7849C241.137 14.89 241.297 15.0607 241.297 15.6587H247.565C247.565 13.6089 246.87 11.5591 245.113 10.0413L241.016 14.7849ZM241.297 15.6587C241.297 16.1843 241.14 16.4193 240.962 16.5803L245.167 21.2281C246.782 19.7664 247.565 17.7807 247.565 15.6587H241.297ZM241.016 16.5324C240.764 16.7498 240.307 17.0088 239.263 17.0088V23.2765C241.465 23.2765 243.485 22.6814 245.113 21.276L241.016 16.5324ZM239.263 17.0088H236.701V23.2765H239.263V17.0088ZM239.835 20.1426V20.0999H233.567V20.1426H239.835ZM236.701 21.0986H239.263V14.8308H236.701V21.0986ZM239.263 21.0986C240.625 21.0986 242.109 20.7042 243.273 19.5401L238.841 15.1082C238.972 14.9768 239.119 14.8944 239.234 14.8533C239.336 14.8168 239.362 14.8308 239.263 14.8308V21.0986ZM243.386 19.4206C244.318 18.386 244.789 17.0718 244.789 15.7014H238.521C238.521 15.6704 238.527 15.5968 238.563 15.4987C238.6 15.3996 238.658 15.3055 238.728 15.2277L243.386 19.4206ZM244.789 15.7014C244.789 14.3174 244.336 12.9943 243.386 11.9394L238.728 16.1324C238.655 16.0519 238.594 15.9519 238.557 15.8481C238.52 15.7476 238.521 15.6892 238.521 15.7014H244.789ZM243.386 11.9394C242.195 10.616 240.586 10.2614 239.263 10.2614V16.5292C239.405 16.5292 239.385 16.5492 239.266 16.5068C239.128 16.4575 238.919 16.3445 238.728 16.1324L243.386 11.9394ZM239.263 10.2614H236.701V16.5292H239.263V10.2614ZM233.567 13.3953V17.9647H239.835V13.3953H233.567ZM259.847 22.0479H257.029V28.3157H259.847V22.0479ZM260.162 25.1818V19.374H253.895V25.1818H260.162ZM257.029 16.2401H251.306V22.5078H257.029V16.2401ZM248.172 19.374V25.1818H254.44V19.374H248.172ZM251.306 22.0479H248.488V28.3157H251.306V22.0479ZM251.622 25.1818V11.1747H245.354V25.1818H251.622ZM248.488 14.3086H251.306V8.04081H248.488V14.3086ZM248.172 11.1747V17.196H254.44V11.1747H248.172ZM251.306 20.3299H257.029V14.0621H251.306V20.3299ZM260.162 17.196V11.1747H253.895V17.196H260.162ZM257.029 14.3086H259.847V8.04081H257.029V14.3086ZM256.713 11.1747V25.1818H262.981V11.1747H256.713Z" fill="white" mask="url(#path-5-outside-1_9_91)"/>
<mask id="path-7-outside-2_9_91" maskUnits="userSpaceOnUse" x="79.1362" y="32.5837" width="155" height="23" fill="black">
<rect fill="white" x="79.1362" y="32.5837" width="155" height="23"/>
<path d="M88.0472 48.0712H86.2964V38.8471H83.1362V37.3524H91.2074V38.8471H88.0472V48.0712ZM99.791 48.0712H98.0401V43.0748C98.0401 42.4342 97.912 41.9645 97.6558 41.6656C97.3995 41.3666 97.0152 41.1958 96.46 41.1958C95.7341 41.1958 95.2216 41.4093 94.88 41.8364C94.5383 42.2634 94.3675 42.9894 94.3675 44.0143V48.0285H92.6593V36.6264H94.3675V39.5303C94.3675 40.0001 94.3248 40.4698 94.2821 41.025H94.4102C94.6237 40.6407 94.9654 40.3417 95.3924 40.1282C95.8195 39.9147 96.2892 39.7866 96.8444 39.7866C98.8088 39.7866 99.791 40.7688 99.791 42.7759V48.0712ZM105.727 48.1993C104.446 48.1993 103.464 47.815 102.78 47.089C102.054 46.3631 101.713 45.3382 101.713 44.057C101.713 42.7332 102.054 41.7083 102.695 40.9396C103.335 40.1709 104.275 39.7866 105.428 39.7866C106.496 39.7866 107.35 40.1282 107.948 40.7688C108.588 41.4093 108.887 42.3061 108.887 43.4592V44.3987H103.464C103.506 45.1673 103.72 45.8079 104.104 46.1922C104.488 46.6193 105.086 46.8328 105.812 46.8328C106.282 46.8328 106.752 46.7901 107.136 46.7047C107.563 46.6193 107.99 46.4485 108.46 46.235V47.6442C108.033 47.8577 107.606 47.9858 107.179 48.0712C106.795 48.1567 106.282 48.1993 105.727 48.1993ZM105.428 41.1104C104.873 41.1104 104.446 41.2812 104.104 41.6229C103.762 41.9645 103.592 42.477 103.506 43.1602H107.179C107.179 42.477 107.008 41.9645 106.709 41.6229C106.41 41.2812 105.983 41.1104 105.428 41.1104ZM118.794 41.2385H116.83V48.0712H115.079V41.2385H113.755V40.4271L115.079 39.9147V39.4022C115.079 38.4627 115.293 37.7368 115.762 37.267C116.232 36.7973 116.915 36.5837 117.812 36.5837C118.41 36.5837 119.008 36.6691 119.606 36.8827L119.136 38.2065C118.709 38.0784 118.325 37.993 117.898 37.993C117.513 37.993 117.214 38.1211 117.044 38.3346C116.873 38.5909 116.787 38.9325 116.787 39.4022V39.9147H118.752V41.2385H118.794ZM125.926 48.0712L125.67 47.0036H125.584C125.328 47.388 124.987 47.6869 124.56 47.9004C124.133 48.1139 123.62 48.2421 123.065 48.2421C122.083 48.2421 121.357 47.9858 120.844 47.5161C120.332 47.0463 120.118 46.2777 120.118 45.2955V39.9574H121.869V44.9538C121.869 45.5944 121.997 46.0214 122.254 46.3631C122.51 46.662 122.894 46.8328 123.449 46.8328C124.175 46.8328 124.688 46.6193 125.029 46.1922C125.371 45.7652 125.542 45.0392 125.542 44.0143V39.9574H127.293V48.0712H125.926ZM132.759 46.7901C133.186 46.7901 133.613 46.7047 134.04 46.5766V47.8577C133.869 47.9431 133.613 48.0285 133.314 48.0712C133.015 48.1139 132.716 48.1567 132.374 48.1567C130.752 48.1567 129.94 47.3026 129.94 45.5944V41.2385H128.83V40.4699L130.026 39.8293L130.624 38.1211H131.691V39.9147H133.997V41.2385H131.691V45.5944C131.691 46.0214 131.777 46.3204 131.99 46.5339C132.118 46.7047 132.417 46.7901 132.759 46.7901ZM141.342 48.0712L141.086 47.0036H141.001C140.745 47.388 140.403 47.6869 139.976 47.9004C139.549 48.1139 139.036 48.2421 138.481 48.2421C137.499 48.2421 136.773 47.9858 136.261 47.5161C135.791 47.0463 135.535 46.2777 135.535 45.2955V39.9574H137.286V44.9538C137.286 45.5944 137.414 46.0214 137.67 46.3631C137.926 46.662 138.31 46.8328 138.866 46.8328C139.592 46.8328 140.104 46.6193 140.446 46.1922C140.787 45.7652 140.958 45.0392 140.958 44.0143V39.9574H142.709V48.0712H141.342ZM149.285 39.7866C149.627 39.7866 149.926 39.8293 150.14 39.872L149.969 41.4948C149.713 41.4521 149.456 41.4093 149.2 41.4093C148.517 41.4093 147.962 41.6229 147.535 42.0926C147.108 42.5624 146.894 43.1175 146.894 43.8435V48.0712H145.186V39.9574H146.552L146.766 41.3666H146.851C147.108 40.8969 147.492 40.5126 147.919 40.2136C148.303 39.9574 148.773 39.7866 149.285 39.7866ZM154.88 48.1993C153.599 48.1993 152.616 47.815 151.933 47.089C151.207 46.3631 150.866 45.3382 150.866 44.057C150.866 42.7332 151.207 41.7083 151.848 40.9396C152.488 40.1709 153.428 39.7866 154.581 39.7866C155.648 39.7866 156.503 40.1282 157.1 40.7688C157.741 41.4093 158.04 42.3061 158.04 43.4592V44.3987H152.616C152.659 45.1673 152.873 45.8079 153.257 46.1922C153.641 46.6193 154.239 46.8328 154.965 46.8328C155.435 46.8328 155.905 46.7901 156.289 46.7047C156.716 46.6193 157.143 46.4485 157.613 46.235V47.6442C157.186 47.8577 156.759 47.9858 156.332 48.0712C155.905 48.1567 155.435 48.1993 154.88 48.1993ZM154.581 41.1104C154.026 41.1104 153.599 41.2812 153.257 41.6229C152.915 41.9645 152.745 42.477 152.659 43.1602H156.332C156.332 42.477 156.161 41.9645 155.862 41.6229C155.52 41.2812 155.093 41.1104 154.581 41.1104ZM171.065 43.9716C171.065 45.2954 170.723 46.3204 170.04 47.089C169.357 47.815 168.417 48.1993 167.221 48.1993C166.453 48.1993 165.812 48.0285 165.214 47.6869C164.616 47.3453 164.189 46.8328 163.89 46.1922C163.591 45.5517 163.421 44.8257 163.421 43.9716C163.421 42.6478 163.762 41.6229 164.446 40.8969C165.129 40.1709 166.068 39.7866 167.307 39.7866C168.46 39.7866 169.399 40.1709 170.083 40.9396C170.766 41.7083 171.065 42.6905 171.065 43.9716ZM165.172 43.9716C165.172 45.8506 165.855 46.7901 167.264 46.7901C168.631 46.7901 169.314 45.8506 169.314 43.9716C169.314 42.1353 168.631 41.1958 167.264 41.1958C166.538 41.1958 166.026 41.4521 165.684 41.9218C165.342 42.3915 165.172 43.0748 165.172 43.9716ZM177.129 41.2385H175.164V48.0712H173.414V41.2385H172.09V40.4271L173.414 39.9147V39.4022C173.414 38.4627 173.627 37.7368 174.097 37.267C174.567 36.7973 175.25 36.5837 176.147 36.5837C176.744 36.5837 177.342 36.6691 177.94 36.8827L177.47 38.2065C177.043 38.0784 176.659 37.993 176.232 37.993C175.848 37.993 175.549 38.1211 175.378 38.3346C175.207 38.5481 175.122 38.9325 175.122 39.4022V39.9147H177.086V41.2385H177.129ZM189.257 48.0712H187.506V43.0748C187.506 42.4342 187.378 42.0072 187.164 41.6656C186.951 41.3666 186.566 41.1958 186.054 41.1958C185.371 41.1958 184.901 41.4093 184.602 41.8364C184.303 42.2634 184.132 42.9894 184.132 44.0143V48.0712H182.424V39.9574H183.791L184.047 41.025H184.132C184.346 40.6407 184.687 40.3417 185.115 40.1282C185.542 39.9147 186.011 39.8293 186.524 39.8293C187.762 39.8293 188.616 40.2563 189.001 41.1104H189.129C189.385 40.7261 189.727 40.3844 190.154 40.1709C190.581 39.9574 191.093 39.8293 191.648 39.8293C192.631 39.8293 193.314 40.0855 193.784 40.5553C194.211 41.025 194.467 41.7937 194.467 42.7759V48.0712H192.759V43.0748C192.759 42.4342 192.631 42.0072 192.417 41.6656C192.161 41.3666 191.819 41.1958 191.307 41.1958C190.623 41.1958 190.154 41.4093 189.855 41.8364C189.556 42.2634 189.385 42.904 189.385 43.7581V48.0712H189.257ZM203.947 43.9716C203.947 45.2954 203.606 46.3204 202.922 47.089C202.239 47.815 201.3 48.1993 200.104 48.1993C199.335 48.1993 198.695 48.0285 198.097 47.6869C197.499 47.3453 197.072 46.8328 196.773 46.1922C196.474 45.5517 196.303 44.8257 196.303 43.9716C196.303 42.6478 196.645 41.6229 197.328 40.8969C198.011 40.1709 198.951 39.7866 200.189 39.7866C201.342 39.7866 202.282 40.1709 202.965 40.9396C203.606 41.7083 203.947 42.6905 203.947 43.9716ZM198.054 43.9716C198.054 45.8506 198.737 46.7901 200.146 46.7901C201.513 46.7901 202.196 45.8506 202.196 43.9716C202.196 42.1353 201.513 41.1958 200.146 41.1958C199.421 41.1958 198.908 41.4521 198.566 41.9218C198.225 42.3915 198.054 43.0748 198.054 43.9716ZM213.086 48.0712H211.335V43.0748C211.335 42.4342 211.207 41.9645 210.951 41.6656C210.695 41.3666 210.31 41.1958 209.755 41.1958C209.029 41.1958 208.474 41.4093 208.175 41.8364C207.876 42.2634 207.662 42.9894 207.662 44.0143V48.0712H205.954V39.9574H207.321L207.577 41.025H207.662C207.919 40.6407 208.26 40.3417 208.687 40.1282C209.114 39.9147 209.627 39.8293 210.182 39.8293C212.146 39.8293 213.086 40.8115 213.086 42.8186V48.0712ZM219.022 48.1993C217.741 48.1993 216.759 47.815 216.075 47.089C215.349 46.3631 215.008 45.3382 215.008 44.057C215.008 42.7332 215.349 41.7083 215.99 40.9396C216.63 40.1709 217.57 39.7866 218.723 39.7866C219.791 39.7866 220.645 40.1282 221.243 40.7688C221.883 41.4093 222.182 42.3061 222.182 43.4592V44.3987H216.759C216.801 45.1673 217.015 45.8079 217.399 46.1922C217.783 46.6193 218.381 46.8328 219.107 46.8328C219.577 46.8328 220.047 46.7901 220.431 46.7047C220.815 46.6193 221.285 46.4485 221.755 46.235V47.6442C221.328 47.8577 220.901 47.9858 220.474 48.0712C220.047 48.1567 219.577 48.1993 219.022 48.1993ZM218.68 41.1104C218.125 41.1104 217.698 41.2812 217.356 41.6229C217.015 41.9645 216.844 42.477 216.759 43.1602H220.431C220.431 42.477 220.26 41.9645 219.961 41.6229C219.662 41.2812 219.235 41.1104 218.68 41.1104ZM222.609 39.9574H224.488L226.154 44.5695C226.41 45.21 226.581 45.8506 226.666 46.4058H226.709C226.751 46.1495 226.837 45.8079 226.965 45.4236C227.093 45.0392 227.691 43.2029 228.844 39.9574H230.723L227.264 49.1389C226.623 50.8043 225.598 51.6584 224.104 51.6584C223.719 51.6584 223.335 51.6157 222.993 51.5303V50.1638C223.25 50.2065 223.549 50.2492 223.89 50.2492C224.702 50.2492 225.299 49.7794 225.641 48.7972L225.94 48.0285L222.609 39.9574Z"/>
</mask>
<path d="M88.0472 48.0712H86.2964V38.8471H83.1362V37.3524H91.2074V38.8471H88.0472V48.0712ZM99.791 48.0712H98.0401V43.0748C98.0401 42.4342 97.912 41.9645 97.6558 41.6656C97.3995 41.3666 97.0152 41.1958 96.46 41.1958C95.7341 41.1958 95.2216 41.4093 94.88 41.8364C94.5383 42.2634 94.3675 42.9894 94.3675 44.0143V48.0285H92.6593V36.6264H94.3675V39.5303C94.3675 40.0001 94.3248 40.4698 94.2821 41.025H94.4102C94.6237 40.6407 94.9654 40.3417 95.3924 40.1282C95.8195 39.9147 96.2892 39.7866 96.8444 39.7866C98.8088 39.7866 99.791 40.7688 99.791 42.7759V48.0712ZM105.727 48.1993C104.446 48.1993 103.464 47.815 102.78 47.089C102.054 46.3631 101.713 45.3382 101.713 44.057C101.713 42.7332 102.054 41.7083 102.695 40.9396C103.335 40.1709 104.275 39.7866 105.428 39.7866C106.496 39.7866 107.35 40.1282 107.948 40.7688C108.588 41.4093 108.887 42.3061 108.887 43.4592V44.3987H103.464C103.506 45.1673 103.72 45.8079 104.104 46.1922C104.488 46.6193 105.086 46.8328 105.812 46.8328C106.282 46.8328 106.752 46.7901 107.136 46.7047C107.563 46.6193 107.99 46.4485 108.46 46.235V47.6442C108.033 47.8577 107.606 47.9858 107.179 48.0712C106.795 48.1567 106.282 48.1993 105.727 48.1993ZM105.428 41.1104C104.873 41.1104 104.446 41.2812 104.104 41.6229C103.762 41.9645 103.592 42.477 103.506 43.1602H107.179C107.179 42.477 107.008 41.9645 106.709 41.6229C106.41 41.2812 105.983 41.1104 105.428 41.1104ZM118.794 41.2385H116.83V48.0712H115.079V41.2385H113.755V40.4271L115.079 39.9147V39.4022C115.079 38.4627 115.293 37.7368 115.762 37.267C116.232 36.7973 116.915 36.5837 117.812 36.5837C118.41 36.5837 119.008 36.6691 119.606 36.8827L119.136 38.2065C118.709 38.0784 118.325 37.993 117.898 37.993C117.513 37.993 117.214 38.1211 117.044 38.3346C116.873 38.5909 116.787 38.9325 116.787 39.4022V39.9147H118.752V41.2385H118.794ZM125.926 48.0712L125.67 47.0036H125.584C125.328 47.388 124.987 47.6869 124.56 47.9004C124.133 48.1139 123.62 48.2421 123.065 48.2421C122.083 48.2421 121.357 47.9858 120.844 47.5161C120.332 47.0463 120.118 46.2777 120.118 45.2955V39.9574H121.869V44.9538C121.869 45.5944 121.997 46.0214 122.254 46.3631C122.51 46.662 122.894 46.8328 123.449 46.8328C124.175 46.8328 124.688 46.6193 125.029 46.1922C125.371 45.7652 125.542 45.0392 125.542 44.0143V39.9574H127.293V48.0712H125.926ZM132.759 46.7901C133.186 46.7901 133.613 46.7047 134.04 46.5766V47.8577C133.869 47.9431 133.613 48.0285 133.314 48.0712C133.015 48.1139 132.716 48.1567 132.374 48.1567C130.752 48.1567 129.94 47.3026 129.94 45.5944V41.2385H128.83V40.4699L130.026 39.8293L130.624 38.1211H131.691V39.9147H133.997V41.2385H131.691V45.5944C131.691 46.0214 131.777 46.3204 131.99 46.5339C132.118 46.7047 132.417 46.7901 132.759 46.7901ZM141.342 48.0712L141.086 47.0036H141.001C140.745 47.388 140.403 47.6869 139.976 47.9004C139.549 48.1139 139.036 48.2421 138.481 48.2421C137.499 48.2421 136.773 47.9858 136.261 47.5161C135.791 47.0463 135.535 46.2777 135.535 45.2955V39.9574H137.286V44.9538C137.286 45.5944 137.414 46.0214 137.67 46.3631C137.926 46.662 138.31 46.8328 138.866 46.8328C139.592 46.8328 140.104 46.6193 140.446 46.1922C140.787 45.7652 140.958 45.0392 140.958 44.0143V39.9574H142.709V48.0712H141.342ZM149.285 39.7866C149.627 39.7866 149.926 39.8293 150.14 39.872L149.969 41.4948C149.713 41.4521 149.456 41.4093 149.2 41.4093C148.517 41.4093 147.962 41.6229 147.535 42.0926C147.108 42.5624 146.894 43.1175 146.894 43.8435V48.0712H145.186V39.9574H146.552L146.766 41.3666H146.851C147.108 40.8969 147.492 40.5126 147.919 40.2136C148.303 39.9574 148.773 39.7866 149.285 39.7866ZM154.88 48.1993C153.599 48.1993 152.616 47.815 151.933 47.089C151.207 46.3631 150.866 45.3382 150.866 44.057C150.866 42.7332 151.207 41.7083 151.848 40.9396C152.488 40.1709 153.428 39.7866 154.581 39.7866C155.648 39.7866 156.503 40.1282 157.1 40.7688C157.741 41.4093 158.04 42.3061 158.04 43.4592V44.3987H152.616C152.659 45.1673 152.873 45.8079 153.257 46.1922C153.641 46.6193 154.239 46.8328 154.965 46.8328C155.435 46.8328 155.905 46.7901 156.289 46.7047C156.716 46.6193 157.143 46.4485 157.613 46.235V47.6442C157.186 47.8577 156.759 47.9858 156.332 48.0712C155.905 48.1567 155.435 48.1993 154.88 48.1993ZM154.581 41.1104C154.026 41.1104 153.599 41.2812 153.257 41.6229C152.915 41.9645 152.745 42.477 152.659 43.1602H156.332C156.332 42.477 156.161 41.9645 155.862 41.6229C155.52 41.2812 155.093 41.1104 154.581 41.1104ZM171.065 43.9716C171.065 45.2954 170.723 46.3204 170.04 47.089C169.357 47.815 168.417 48.1993 167.221 48.1993C166.453 48.1993 165.812 48.0285 165.214 47.6869C164.616 47.3453 164.189 46.8328 163.89 46.1922C163.591 45.5517 163.421 44.8257 163.421 43.9716C163.421 42.6478 163.762 41.6229 164.446 40.8969C165.129 40.1709 166.068 39.7866 167.307 39.7866C168.46 39.7866 169.399 40.1709 170.083 40.9396C170.766 41.7083 171.065 42.6905 171.065 43.9716ZM165.172 43.9716C165.172 45.8506 165.855 46.7901 167.264 46.7901C168.631 46.7901 169.314 45.8506 169.314 43.9716C169.314 42.1353 168.631 41.1958 167.264 41.1958C166.538 41.1958 166.026 41.4521 165.684 41.9218C165.342 42.3915 165.172 43.0748 165.172 43.9716ZM177.129 41.2385H175.164V48.0712H173.414V41.2385H172.09V40.4271L173.414 39.9147V39.4022C173.414 38.4627 173.627 37.7368 174.097 37.267C174.567 36.7973 175.25 36.5837 176.147 36.5837C176.744 36.5837 177.342 36.6691 177.94 36.8827L177.47 38.2065C177.043 38.0784 176.659 37.993 176.232 37.993C175.848 37.993 175.549 38.1211 175.378 38.3346C175.207 38.5481 175.122 38.9325 175.122 39.4022V39.9147H177.086V41.2385H177.129ZM189.257 48.0712H187.506V43.0748C187.506 42.4342 187.378 42.0072 187.164 41.6656C186.951 41.3666 186.566 41.1958 186.054 41.1958C185.371 41.1958 184.901 41.4093 184.602 41.8364C184.303 42.2634 184.132 42.9894 184.132 44.0143V48.0712H182.424V39.9574H183.791L184.047 41.025H184.132C184.346 40.6407 184.687 40.3417 185.115 40.1282C185.542 39.9147 186.011 39.8293 186.524 39.8293C187.762 39.8293 188.616 40.2563 189.001 41.1104H189.129C189.385 40.7261 189.727 40.3844 190.154 40.1709C190.581 39.9574 191.093 39.8293 191.648 39.8293C192.631 39.8293 193.314 40.0855 193.784 40.5553C194.211 41.025 194.467 41.7937 194.467 42.7759V48.0712H192.759V43.0748C192.759 42.4342 192.631 42.0072 192.417 41.6656C192.161 41.3666 191.819 41.1958 191.307 41.1958C190.623 41.1958 190.154 41.4093 189.855 41.8364C189.556 42.2634 189.385 42.904 189.385 43.7581V48.0712H189.257ZM203.947 43.9716C203.947 45.2954 203.606 46.3204 202.922 47.089C202.239 47.815 201.3 48.1993 200.104 48.1993C199.335 48.1993 198.695 48.0285 198.097 47.6869C197.499 47.3453 197.072 46.8328 196.773 46.1922C196.474 45.5517 196.303 44.8257 196.303 43.9716C196.303 42.6478 196.645 41.6229 197.328 40.8969C198.011 40.1709 198.951 39.7866 200.189 39.7866C201.342 39.7866 202.282 40.1709 202.965 40.9396C203.606 41.7083 203.947 42.6905 203.947 43.9716ZM198.054 43.9716C198.054 45.8506 198.737 46.7901 200.146 46.7901C201.513 46.7901 202.196 45.8506 202.196 43.9716C202.196 42.1353 201.513 41.1958 200.146 41.1958C199.421 41.1958 198.908 41.4521 198.566 41.9218C198.225 42.3915 198.054 43.0748 198.054 43.9716ZM213.086 48.0712H211.335V43.0748C211.335 42.4342 211.207 41.9645 210.951 41.6656C210.695 41.3666 210.31 41.1958 209.755 41.1958C209.029 41.1958 208.474 41.4093 208.175 41.8364C207.876 42.2634 207.662 42.9894 207.662 44.0143V48.0712H205.954V39.9574H207.321L207.577 41.025H207.662C207.919 40.6407 208.26 40.3417 208.687 40.1282C209.114 39.9147 209.627 39.8293 210.182 39.8293C212.146 39.8293 213.086 40.8115 213.086 42.8186V48.0712ZM219.022 48.1993C217.741 48.1993 216.759 47.815 216.075 47.089C215.349 46.3631 215.008 45.3382 215.008 44.057C215.008 42.7332 215.349 41.7083 215.99 40.9396C216.63 40.1709 217.57 39.7866 218.723 39.7866C219.791 39.7866 220.645 40.1282 221.243 40.7688C221.883 41.4093 222.182 42.3061 222.182 43.4592V44.3987H216.759C216.801 45.1673 217.015 45.8079 217.399 46.1922C217.783 46.6193 218.381 46.8328 219.107 46.8328C219.577 46.8328 220.047 46.7901 220.431 46.7047C220.815 46.6193 221.285 46.4485 221.755 46.235V47.6442C221.328 47.8577 220.901 47.9858 220.474 48.0712C220.047 48.1567 219.577 48.1993 219.022 48.1993ZM218.68 41.1104C218.125 41.1104 217.698 41.2812 217.356 41.6229C217.015 41.9645 216.844 42.477 216.759 43.1602H220.431C220.431 42.477 220.26 41.9645 219.961 41.6229C219.662 41.2812 219.235 41.1104 218.68 41.1104ZM222.609 39.9574H224.488L226.154 44.5695C226.41 45.21 226.581 45.8506 226.666 46.4058H226.709C226.751 46.1495 226.837 45.8079 226.965 45.4236C227.093 45.0392 227.691 43.2029 228.844 39.9574H230.723L227.264 49.1389C226.623 50.8043 225.598 51.6584 224.104 51.6584C223.719 51.6584 223.335 51.6157 222.993 51.5303V50.1638C223.25 50.2065 223.549 50.2492 223.89 50.2492C224.702 50.2492 225.299 49.7794 225.641 48.7972L225.94 48.0285L222.609 39.9574Z" fill="black"/>
<path d="M88.0472 48.0712H86.2964V38.8471H83.1362V37.3524H91.2074V38.8471H88.0472V48.0712ZM99.791 48.0712H98.0401V43.0748C98.0401 42.4342 97.912 41.9645 97.6558 41.6656C97.3995 41.3666 97.0152 41.1958 96.46 41.1958C95.7341 41.1958 95.2216 41.4093 94.88 41.8364C94.5383 42.2634 94.3675 42.9894 94.3675 44.0143V48.0285H92.6593V36.6264H94.3675V39.5303C94.3675 40.0001 94.3248 40.4698 94.2821 41.025H94.4102C94.6237 40.6407 94.9654 40.3417 95.3924 40.1282C95.8195 39.9147 96.2892 39.7866 96.8444 39.7866C98.8088 39.7866 99.791 40.7688 99.791 42.7759V48.0712ZM105.727 48.1993C104.446 48.1993 103.464 47.815 102.78 47.089C102.054 46.3631 101.713 45.3382 101.713 44.057C101.713 42.7332 102.054 41.7083 102.695 40.9396C103.335 40.1709 104.275 39.7866 105.428 39.7866C106.496 39.7866 107.35 40.1282 107.948 40.7688C108.588 41.4093 108.887 42.3061 108.887 43.4592V44.3987H103.464C103.506 45.1673 103.72 45.8079 104.104 46.1922C104.488 46.6193 105.086 46.8328 105.812 46.8328C106.282 46.8328 106.752 46.7901 107.136 46.7047C107.563 46.6193 107.99 46.4485 108.46 46.235V47.6442C108.033 47.8577 107.606 47.9858 107.179 48.0712C106.795 48.1567 106.282 48.1993 105.727 48.1993ZM105.428 41.1104C104.873 41.1104 104.446 41.2812 104.104 41.6229C103.762 41.9645 103.592 42.477 103.506 43.1602H107.179C107.179 42.477 107.008 41.9645 106.709 41.6229C106.41 41.2812 105.983 41.1104 105.428 41.1104ZM118.794 41.2385H116.83V48.0712H115.079V41.2385H113.755V40.4271L115.079 39.9147V39.4022C115.079 38.4627 115.293 37.7368 115.762 37.267C116.232 36.7973 116.915 36.5837 117.812 36.5837C118.41 36.5837 119.008 36.6691 119.606 36.8827L119.136 38.2065C118.709 38.0784 118.325 37.993 117.898 37.993C117.513 37.993 117.214 38.1211 117.044 38.3346C116.873 38.5909 116.787 38.9325 116.787 39.4022V39.9147H118.752V41.2385H118.794ZM125.926 48.0712L125.67 47.0036H125.584C125.328 47.388 124.987 47.6869 124.56 47.9004C124.133 48.1139 123.62 48.2421 123.065 48.2421C122.083 48.2421 121.357 47.9858 120.844 47.5161C120.332 47.0463 120.118 46.2777 120.118 45.2955V39.9574H121.869V44.9538C121.869 45.5944 121.997 46.0214 122.254 46.3631C122.51 46.662 122.894 46.8328 123.449 46.8328C124.175 46.8328 124.688 46.6193 125.029 46.1922C125.371 45.7652 125.542 45.0392 125.542 44.0143V39.9574H127.293V48.0712H125.926ZM132.759 46.7901C133.186 46.7901 133.613 46.7047 134.04 46.5766V47.8577C133.869 47.9431 133.613 48.0285 133.314 48.0712C133.015 48.1139 132.716 48.1567 132.374 48.1567C130.752 48.1567 129.94 47.3026 129.94 45.5944V41.2385H128.83V40.4699L130.026 39.8293L130.624 38.1211H131.691V39.9147H133.997V41.2385H131.691V45.5944C131.691 46.0214 131.777 46.3204 131.99 46.5339C132.118 46.7047 132.417 46.7901 132.759 46.7901ZM141.342 48.0712L141.086 47.0036H141.001C140.745 47.388 140.403 47.6869 139.976 47.9004C139.549 48.1139 139.036 48.2421 138.481 48.2421C137.499 48.2421 136.773 47.9858 136.261 47.5161C135.791 47.0463 135.535 46.2777 135.535 45.2955V39.9574H137.286V44.9538C137.286 45.5944 137.414 46.0214 137.67 46.3631C137.926 46.662 138.31 46.8328 138.866 46.8328C139.592 46.8328 140.104 46.6193 140.446 46.1922C140.787 45.7652 140.958 45.0392 140.958 44.0143V39.9574H142.709V48.0712H141.342ZM149.285 39.7866C149.627 39.7866 149.926 39.8293 150.14 39.872L149.969 41.4948C149.713 41.4521 149.456 41.4093 149.2 41.4093C148.517 41.4093 147.962 41.6229 147.535 42.0926C147.108 42.5624 146.894 43.1175 146.894 43.8435V48.0712H145.186V39.9574H146.552L146.766 41.3666H146.851C147.108 40.8969 147.492 40.5126 147.919 40.2136C148.303 39.9574 148.773 39.7866 149.285 39.7866ZM154.88 48.1993C153.599 48.1993 152.616 47.815 151.933 47.089C151.207 46.3631 150.866 45.3382 150.866 44.057C150.866 42.7332 151.207 41.7083 151.848 40.9396C152.488 40.1709 153.428 39.7866 154.581 39.7866C155.648 39.7866 156.503 40.1282 157.1 40.7688C157.741 41.4093 158.04 42.3061 158.04 43.4592V44.3987H152.616C152.659 45.1673 152.873 45.8079 153.257 46.1922C153.641 46.6193 154.239 46.8328 154.965 46.8328C155.435 46.8328 155.905 46.7901 156.289 46.7047C156.716 46.6193 157.143 46.4485 157.613 46.235V47.6442C157.186 47.8577 156.759 47.9858 156.332 48.0712C155.905 48.1567 155.435 48.1993 154.88 48.1993ZM154.581 41.1104C154.026 41.1104 153.599 41.2812 153.257 41.6229C152.915 41.9645 152.745 42.477 152.659 43.1602H156.332C156.332 42.477 156.161 41.9645 155.862 41.6229C155.52 41.2812 155.093 41.1104 154.581 41.1104ZM171.065 43.9716C171.065 45.2954 170.723 46.3204 170.04 47.089C169.357 47.815 168.417 48.1993 167.221 48.1993C166.453 48.1993 165.812 48.0285 165.214 47.6869C164.616 47.3453 164.189 46.8328 163.89 46.1922C163.591 45.5517 163.421 44.8257 163.421 43.9716C163.421 42.6478 163.762 41.6229 164.446 40.8969C165.129 40.1709 166.068 39.7866 167.307 39.7866C168.46 39.7866 169.399 40.1709 170.083 40.9396C170.766 41.7083 171.065 42.6905 171.065 43.9716ZM165.172 43.9716C165.172 45.8506 165.855 46.7901 167.264 46.7901C168.631 46.7901 169.314 45.8506 169.314 43.9716C169.314 42.1353 168.631 41.1958 167.264 41.1958C166.538 41.1958 166.026 41.4521 165.684 41.9218C165.342 42.3915 165.172 43.0748 165.172 43.9716ZM177.129 41.2385H175.164V48.0712H173.414V41.2385H172.09V40.4271L173.414 39.9147V39.4022C173.414 38.4627 173.627 37.7368 174.097 37.267C174.567 36.7973 175.25 36.5837 176.147 36.5837C176.744 36.5837 177.342 36.6691 177.94 36.8827L177.47 38.2065C177.043 38.0784 176.659 37.993 176.232 37.993C175.848 37.993 175.549 38.1211 175.378 38.3346C175.207 38.5481 175.122 38.9325 175.122 39.4022V39.9147H177.086V41.2385H177.129ZM189.257 48.0712H187.506V43.0748C187.506 42.4342 187.378 42.0072 187.164 41.6656C186.951 41.3666 186.566 41.1958 186.054 41.1958C185.371 41.1958 184.901 41.4093 184.602 41.8364C184.303 42.2634 184.132 42.9894 184.132 44.0143V48.0712H182.424V39.9574H183.791L184.047 41.025H184.132C184.346 40.6407 184.687 40.3417 185.115 40.1282C185.542 39.9147 186.011 39.8293 186.524 39.8293C187.762 39.8293 188.616 40.2563 189.001 41.1104H189.129C189.385 40.7261 189.727 40.3844 190.154 40.1709C190.581 39.9574 191.093 39.8293 191.648 39.8293C192.631 39.8293 193.314 40.0855 193.784 40.5553C194.211 41.025 194.467 41.7937 194.467 42.7759V48.0712H192.759V43.0748C192.759 42.4342 192.631 42.0072 192.417 41.6656C192.161 41.3666 191.819 41.1958 191.307 41.1958C190.623 41.1958 190.154 41.4093 189.855 41.8364C189.556 42.2634 189.385 42.904 189.385 43.7581V48.0712H189.257ZM203.947 43.9716C203.947 45.2954 203.606 46.3204 202.922 47.089C202.239 47.815 201.3 48.1993 200.104 48.1993C199.335 48.1993 198.695 48.0285 198.097 47.6869C197.499 47.3453 197.072 46.8328 196.773 46.1922C196.474 45.5517 196.303 44.8257 196.303 43.9716C196.303 42.6478 196.645 41.6229 197.328 40.8969C198.011 40.1709 198.951 39.7866 200.189 39.7866C201.342 39.7866 202.282 40.1709 202.965 40.9396C203.606 41.7083 203.947 42.6905 203.947 43.9716ZM198.054 43.9716C198.054 45.8506 198.737 46.7901 200.146 46.7901C201.513 46.7901 202.196 45.8506 202.196 43.9716C202.196 42.1353 201.513 41.1958 200.146 41.1958C199.421 41.1958 198.908 41.4521 198.566 41.9218C198.225 42.3915 198.054 43.0748 198.054 43.9716ZM213.086 48.0712H211.335V43.0748C211.335 42.4342 211.207 41.9645 210.951 41.6656C210.695 41.3666 210.31 41.1958 209.755 41.1958C209.029 41.1958 208.474 41.4093 208.175 41.8364C207.876 42.2634 207.662 42.9894 207.662 44.0143V48.0712H205.954V39.9574H207.321L207.577 41.025H207.662C207.919 40.6407 208.26 40.3417 208.687 40.1282C209.114 39.9147 209.627 39.8293 210.182 39.8293C212.146 39.8293 213.086 40.8115 213.086 42.8186V48.0712ZM219.022 48.1993C217.741 48.1993 216.759 47.815 216.075 47.089C215.349 46.3631 215.008 45.3382 215.008 44.057C215.008 42.7332 215.349 41.7083 215.99 40.9396C216.63 40.1709 217.57 39.7866 218.723 39.7866C219.791 39.7866 220.645 40.1282 221.243 40.7688C221.883 41.4093 222.182 42.3061 222.182 43.4592V44.3987H216.759C216.801 45.1673 217.015 45.8079 217.399 46.1922C217.783 46.6193 218.381 46.8328 219.107 46.8328C219.577 46.8328 220.047 46.7901 220.431 46.7047C220.815 46.6193 221.285 46.4485 221.755 46.235V47.6442C221.328 47.8577 220.901 47.9858 220.474 48.0712C220.047 48.1567 219.577 48.1993 219.022 48.1993ZM218.68 41.1104C218.125 41.1104 217.698 41.2812 217.356 41.6229C217.015 41.9645 216.844 42.477 216.759 43.1602H220.431C220.431 42.477 220.26 41.9645 219.961 41.6229C219.662 41.2812 219.235 41.1104 218.68 41.1104ZM222.609 39.9574H224.488L226.154 44.5695C226.41 45.21 226.581 45.8506 226.666 46.4058H226.709C226.751 46.1495 226.837 45.8079 226.965 45.4236C227.093 45.0392 227.691 43.2029 228.844 39.9574H230.723L227.264 49.1389C226.623 50.8043 225.598 51.6584 224.104 51.6584C223.719 51.6584 223.335 51.6157 222.993 51.5303V50.1638C223.25 50.2065 223.549 50.2492 223.89 50.2492C224.702 50.2492 225.299 49.7794 225.641 48.7972L225.94 48.0285L222.609 39.9574Z" stroke="white" stroke-width="6.26778" stroke-linejoin="round" mask="url(#path-7-outside-2_9_91)"/>
</svg>
