<svg width="268" height="48" viewBox="0 0 268 48" fill="none" xmlns="http://www.w3.org/2000/svg">
<mask id="path-1-outside-1_9_54" maskUnits="userSpaceOnUse" x="0.632812" y="0.158691" width="268" height="48" fill="black">
<rect fill="white" x="0.632812" y="0.158691" width="268" height="48"/>
<path d="M17.7012 11.8262C15.8283 11.8262 14.3475 12.6102 13.3457 14.1347C12.3004 15.6591 11.7777 17.7933 11.7777 20.4938C11.7777 26.1124 13.9119 28.9435 18.1803 28.9435C19.487 28.9435 20.7066 28.7258 21.9697 28.4209C23.1457 28.0724 24.4088 27.6369 25.6283 27.1142V33.8218C23.1892 34.8671 20.4017 35.3898 17.3528 35.3898C12.9101 35.3898 9.55636 34.1266 7.24792 31.5569C4.93948 28.9871 3.63281 25.2849 3.63281 20.4502C3.63281 17.4013 4.24259 14.7444 5.37503 12.436C6.50747 10.1276 8.16258 8.38535 10.2532 7.12224C12.3439 5.85913 14.9572 5.24935 17.7883 5.24935C20.9679 5.24935 23.9297 5.90269 26.8479 7.29646L24.4088 13.5249C23.3634 13.0022 22.231 12.6102 21.1857 12.2618C20.0532 11.9569 18.8772 11.8262 17.7012 11.8262ZM52.415 23.6298C52.415 27.332 51.4132 30.2502 49.4532 32.2973C47.4496 34.3444 44.7056 35.3898 41.1341 35.3898C37.6932 35.3898 34.9928 34.3444 32.9457 32.2102C30.8986 30.076 29.8968 27.2449 29.8968 23.5862C29.8968 19.884 30.8986 17.0529 32.8585 14.9622C34.8621 12.9151 37.6932 11.8698 41.2648 11.8698C43.5296 11.8698 45.4461 12.3489 47.1447 13.2636C48.887 14.1782 50.1936 15.572 51.1083 17.3578C51.9794 19.1871 52.415 21.2342 52.415 23.6298ZM37.7368 23.6298C37.7368 25.5462 37.9981 27.0706 38.5208 28.0724C39.0434 29.0742 39.9145 29.5969 41.1776 29.5969C42.3536 29.5969 43.2248 29.0742 43.7474 28.0724C44.2701 27.0271 44.4879 25.5462 44.4879 23.6298C44.4879 21.7133 44.2265 20.276 43.7474 19.2742C43.2248 18.2724 42.3536 17.8369 41.1776 17.8369C40.0016 17.8369 39.1305 18.316 38.6079 19.2742C37.9981 20.1889 37.7368 21.6262 37.7368 23.6298ZM64.7412 34.9978H56.9447V12.3489H64.7412V34.9978ZM56.727 6.68669C56.727 5.51069 57.0754 4.63958 57.7287 4.0298C58.3821 3.42002 59.471 3.15869 60.9083 3.15869C62.3456 3.15869 63.4345 3.42002 64.0878 4.0298C64.7412 4.63958 65.0896 5.46713 65.0896 6.59957C65.0896 8.90801 63.6958 10.0405 60.9083 10.0405C58.1207 10.1276 56.727 8.99513 56.727 6.68669ZM84.5154 34.9978V22.628C84.5154 21.1035 84.2976 19.9711 83.862 19.2742C83.47 18.4902 82.7296 18.0982 81.8149 18.0982C80.5083 18.0982 79.55 18.6209 78.9838 19.6662C78.374 20.7116 78.1127 22.4973 78.1127 25.1107V35.0413H70.3163V12.3924H76.1963L77.198 15.18H77.6771C78.3305 14.1347 79.2451 13.3071 80.4647 12.7845C81.6407 12.2618 82.9909 12.0005 84.5589 12.0005C87.0851 12.0005 89.0016 12.7409 90.3954 14.1782C91.7891 15.6156 92.5296 17.7062 92.5296 20.3196V35.0849H84.6025L84.5154 34.9978ZM115.178 28.0724C115.178 30.5115 114.394 32.2973 112.739 33.5604C111.084 34.8235 108.689 35.4333 105.596 35.4333C103.941 35.4333 102.504 35.3462 101.241 35.172C99.9776 34.9542 98.7144 34.6493 97.4513 34.1702V27.8982C98.6273 28.4209 99.9776 28.9 101.415 29.2049C102.852 29.5533 104.115 29.7275 105.335 29.7275C107.077 29.7275 107.861 29.3355 107.861 28.5515C107.861 28.1595 107.6 27.8111 107.121 27.5062C106.642 27.2013 105.248 26.5915 103.026 25.6333C100.979 24.7622 99.4985 23.8475 98.6709 22.7151C97.8869 21.5827 97.4078 20.276 97.4078 18.5338C97.4078 16.3996 98.1918 14.7445 99.8469 13.6556C101.502 12.4796 103.767 11.8698 106.729 11.8698C108.253 11.8698 109.647 12.0876 110.91 12.3924C112.217 12.7409 113.61 13.1765 115.004 13.7862L112.87 18.7951C111.825 18.316 110.736 17.924 109.56 17.6191C108.384 17.2707 107.426 17.0964 106.729 17.0964C105.466 17.0964 104.812 17.4449 104.812 18.0111C104.812 18.4031 105.03 18.7516 105.466 19.0129C105.901 19.2742 107.208 19.7969 109.386 20.668C110.954 21.3213 112.173 21.9747 112.914 22.5844C113.698 23.1942 114.307 23.9782 114.656 24.8493C114.961 25.8075 115.178 26.8093 115.178 28.0724ZM133.08 35.3898C131.947 35.3898 130.902 35.172 129.987 34.8671C129.073 34.4751 128.202 33.8218 127.287 32.82H126.938C127.2 34.388 127.287 35.3898 127.287 35.7817V44.8413H119.49V12.3489H125.85L126.982 15.2671H127.33C128.768 13.0893 130.771 11.9569 133.341 11.9569C135.867 11.9569 137.827 13.0022 139.221 15.0493C140.658 17.0964 141.355 20.0147 141.355 23.5862C141.355 27.2449 140.615 30.1195 139.09 32.2538C137.61 34.3444 135.606 35.3898 133.08 35.3898ZM130.466 18.0547C129.334 18.0547 128.463 18.4467 128.027 19.3178C127.548 20.1018 127.287 21.3649 127.287 22.9764V23.5862C127.287 25.5027 127.548 26.94 128.071 27.8111C128.594 28.6822 129.378 29.1178 130.51 29.1178C131.512 29.1178 132.252 28.7258 132.688 27.8546C133.167 26.9835 133.341 25.5462 133.341 23.5427C133.341 21.6262 133.123 20.2324 132.688 19.3613C132.252 18.4902 131.512 18.0547 130.466 18.0547ZM156.774 35.3898C152.985 35.3898 150.11 34.388 147.976 32.428C145.929 30.4244 144.883 27.5498 144.883 23.804C144.883 19.9711 145.885 17.0529 147.801 15.0058C149.718 12.9587 152.505 11.9133 156.077 11.9133C159.518 11.9133 162.088 12.7844 163.961 14.5702C165.833 16.356 166.748 18.8822 166.748 22.236V25.764H152.767C152.854 27.0271 153.289 28.0289 154.161 28.7258C155.032 29.4662 156.208 29.7711 157.732 29.7711C159.126 29.7711 160.389 29.6404 161.521 29.3791C162.697 29.1178 163.917 28.6386 165.311 28.0724V33.6911C164.048 34.3009 162.785 34.7364 161.521 34.9978C160.171 35.2591 158.56 35.3898 156.774 35.3898ZM156.338 17.2707C155.424 17.2707 154.596 17.532 154.03 18.1418C153.42 18.7516 153.028 19.5791 152.985 20.8422H159.736C159.736 19.7098 159.387 18.8387 158.821 18.1853C158.124 17.6191 157.297 17.2707 156.338 17.2707ZM185.913 34.9978L184.388 32.036H184.257C183.212 33.3426 182.123 34.2138 181.034 34.6929C179.902 35.172 178.508 35.4333 176.809 35.4333C174.675 35.4333 172.977 34.78 171.801 33.5169C170.537 32.2537 169.928 30.4244 169.928 28.0724C169.928 25.6769 170.799 23.8475 172.454 22.7151C174.109 21.5391 176.548 20.8422 179.728 20.7115L183.517 20.5809V20.2324C183.517 18.3595 182.602 17.4449 180.729 17.4449C179.074 17.4449 176.94 17.9676 174.457 19.1L172.193 13.9169C174.849 12.5231 178.16 11.8698 182.167 11.8698C185.085 11.8698 187.35 12.6102 188.918 14.0476C190.486 15.4849 191.313 17.4884 191.313 20.0582V34.8671H185.956L185.913 34.9978ZM180.163 29.8582C181.078 29.8582 181.905 29.5098 182.602 28.9435C183.256 28.3338 183.604 27.5498 183.604 26.6351V24.8493L181.818 24.9364C179.249 25.0235 177.985 25.9818 177.985 27.7675C177.898 29.2049 178.639 29.8582 180.163 29.8582ZM204.249 22.236C205.164 20.7115 205.992 19.5791 206.689 18.708L211.785 12.3053H220.539L212.656 21.9747L220.975 34.9978H212.046L207.081 26.8529L204.554 28.7693V34.9106H196.671V3.81202H204.554V16.0511C204.554 18.1853 204.424 20.2324 204.075 22.1924H204.249V22.236ZM234.608 35.3898C230.818 35.3898 227.944 34.388 225.809 32.428C223.762 30.4244 222.717 27.5498 222.717 23.804C222.717 19.9711 223.719 17.0529 225.635 15.0058C227.552 12.9587 230.339 11.9133 233.911 11.9133C237.352 11.9133 239.921 12.7844 241.794 14.5702C243.667 16.356 244.582 18.8822 244.582 22.236V25.764H230.557C230.644 27.0271 231.08 28.0289 231.951 28.7258C232.822 29.4662 233.998 29.7711 235.522 29.7711C236.916 29.7711 238.179 29.6404 239.312 29.3791C240.488 29.1178 241.707 28.6386 243.101 28.0724V33.6911C241.838 34.3009 240.575 34.7364 239.312 34.9978C238.005 35.2591 236.393 35.3898 234.608 35.3898ZM234.128 17.2707C233.214 17.2707 232.386 17.532 231.82 18.1418C231.21 18.7516 230.818 19.5791 230.775 20.8422H237.526C237.526 19.7098 237.177 18.8387 236.611 18.1853C235.914 17.6191 235.13 17.2707 234.128 17.2707ZM262.614 11.9133C263.267 11.9133 263.92 12.0005 264.53 12.044L265.009 12.1311L264.269 19.492C263.616 19.3613 262.744 19.2307 261.612 19.2307C259.87 19.2307 258.65 19.6227 257.91 20.4067C257.126 21.1907 256.734 22.3231 256.734 23.7604V34.8671H248.937V12.2182H254.774L255.95 15.8769H256.342C256.995 14.7009 257.91 13.6991 259.042 12.9587C260.305 12.3053 261.481 11.9133 262.614 11.9133Z"/>
</mask>
<path d="M17.7012 11.8262C15.8283 11.8262 14.3475 12.6102 13.3457 14.1347C12.3004 15.6591 11.7777 17.7933 11.7777 20.4938C11.7777 26.1124 13.9119 28.9435 18.1803 28.9435C19.487 28.9435 20.7066 28.7258 21.9697 28.4209C23.1457 28.0724 24.4088 27.6369 25.6283 27.1142V33.8218C23.1892 34.8671 20.4017 35.3898 17.3528 35.3898C12.9101 35.3898 9.55636 34.1266 7.24792 31.5569C4.93948 28.9871 3.63281 25.2849 3.63281 20.4502C3.63281 17.4013 4.24259 14.7444 5.37503 12.436C6.50747 10.1276 8.16258 8.38535 10.2532 7.12224C12.3439 5.85913 14.9572 5.24935 17.7883 5.24935C20.9679 5.24935 23.9297 5.90269 26.8479 7.29646L24.4088 13.5249C23.3634 13.0022 22.231 12.6102 21.1857 12.2618C20.0532 11.9569 18.8772 11.8262 17.7012 11.8262ZM52.415 23.6298C52.415 27.332 51.4132 30.2502 49.4532 32.2973C47.4496 34.3444 44.7056 35.3898 41.1341 35.3898C37.6932 35.3898 34.9928 34.3444 32.9457 32.2102C30.8986 30.076 29.8968 27.2449 29.8968 23.5862C29.8968 19.884 30.8986 17.0529 32.8585 14.9622C34.8621 12.9151 37.6932 11.8698 41.2648 11.8698C43.5296 11.8698 45.4461 12.3489 47.1447 13.2636C48.887 14.1782 50.1936 15.572 51.1083 17.3578C51.9794 19.1871 52.415 21.2342 52.415 23.6298ZM37.7368 23.6298C37.7368 25.5462 37.9981 27.0706 38.5208 28.0724C39.0434 29.0742 39.9145 29.5969 41.1776 29.5969C42.3536 29.5969 43.2248 29.0742 43.7474 28.0724C44.2701 27.0271 44.4879 25.5462 44.4879 23.6298C44.4879 21.7133 44.2265 20.276 43.7474 19.2742C43.2248 18.2724 42.3536 17.8369 41.1776 17.8369C40.0016 17.8369 39.1305 18.316 38.6079 19.2742C37.9981 20.1889 37.7368 21.6262 37.7368 23.6298ZM64.7412 34.9978H56.9447V12.3489H64.7412V34.9978ZM56.727 6.68669C56.727 5.51069 57.0754 4.63958 57.7287 4.0298C58.3821 3.42002 59.471 3.15869 60.9083 3.15869C62.3456 3.15869 63.4345 3.42002 64.0878 4.0298C64.7412 4.63958 65.0896 5.46713 65.0896 6.59957C65.0896 8.90801 63.6958 10.0405 60.9083 10.0405C58.1207 10.1276 56.727 8.99513 56.727 6.68669ZM84.5154 34.9978V22.628C84.5154 21.1035 84.2976 19.9711 83.862 19.2742C83.47 18.4902 82.7296 18.0982 81.8149 18.0982C80.5083 18.0982 79.55 18.6209 78.9838 19.6662C78.374 20.7116 78.1127 22.4973 78.1127 25.1107V35.0413H70.3163V12.3924H76.1963L77.198 15.18H77.6771C78.3305 14.1347 79.2451 13.3071 80.4647 12.7845C81.6407 12.2618 82.9909 12.0005 84.5589 12.0005C87.0851 12.0005 89.0016 12.7409 90.3954 14.1782C91.7891 15.6156 92.5296 17.7062 92.5296 20.3196V35.0849H84.6025L84.5154 34.9978ZM115.178 28.0724C115.178 30.5115 114.394 32.2973 112.739 33.5604C111.084 34.8235 108.689 35.4333 105.596 35.4333C103.941 35.4333 102.504 35.3462 101.241 35.172C99.9776 34.9542 98.7144 34.6493 97.4513 34.1702V27.8982C98.6273 28.4209 99.9776 28.9 101.415 29.2049C102.852 29.5533 104.115 29.7275 105.335 29.7275C107.077 29.7275 107.861 29.3355 107.861 28.5515C107.861 28.1595 107.6 27.8111 107.121 27.5062C106.642 27.2013 105.248 26.5915 103.026 25.6333C100.979 24.7622 99.4985 23.8475 98.6709 22.7151C97.8869 21.5827 97.4078 20.276 97.4078 18.5338C97.4078 16.3996 98.1918 14.7445 99.8469 13.6556C101.502 12.4796 103.767 11.8698 106.729 11.8698C108.253 11.8698 109.647 12.0876 110.91 12.3924C112.217 12.7409 113.61 13.1765 115.004 13.7862L112.87 18.7951C111.825 18.316 110.736 17.924 109.56 17.6191C108.384 17.2707 107.426 17.0964 106.729 17.0964C105.466 17.0964 104.812 17.4449 104.812 18.0111C104.812 18.4031 105.03 18.7516 105.466 19.0129C105.901 19.2742 107.208 19.7969 109.386 20.668C110.954 21.3213 112.173 21.9747 112.914 22.5844C113.698 23.1942 114.307 23.9782 114.656 24.8493C114.961 25.8075 115.178 26.8093 115.178 28.0724ZM133.08 35.3898C131.947 35.3898 130.902 35.172 129.987 34.8671C129.073 34.4751 128.202 33.8218 127.287 32.82H126.938C127.2 34.388 127.287 35.3898 127.287 35.7817V44.8413H119.49V12.3489H125.85L126.982 15.2671H127.33C128.768 13.0893 130.771 11.9569 133.341 11.9569C135.867 11.9569 137.827 13.0022 139.221 15.0493C140.658 17.0964 141.355 20.0147 141.355 23.5862C141.355 27.2449 140.615 30.1195 139.09 32.2538C137.61 34.3444 135.606 35.3898 133.08 35.3898ZM130.466 18.0547C129.334 18.0547 128.463 18.4467 128.027 19.3178C127.548 20.1018 127.287 21.3649 127.287 22.9764V23.5862C127.287 25.5027 127.548 26.94 128.071 27.8111C128.594 28.6822 129.378 29.1178 130.51 29.1178C131.512 29.1178 132.252 28.7258 132.688 27.8546C133.167 26.9835 133.341 25.5462 133.341 23.5427C133.341 21.6262 133.123 20.2324 132.688 19.3613C132.252 18.4902 131.512 18.0547 130.466 18.0547ZM156.774 35.3898C152.985 35.3898 150.11 34.388 147.976 32.428C145.929 30.4244 144.883 27.5498 144.883 23.804C144.883 19.9711 145.885 17.0529 147.801 15.0058C149.718 12.9587 152.505 11.9133 156.077 11.9133C159.518 11.9133 162.088 12.7844 163.961 14.5702C165.833 16.356 166.748 18.8822 166.748 22.236V25.764H152.767C152.854 27.0271 153.289 28.0289 154.161 28.7258C155.032 29.4662 156.208 29.7711 157.732 29.7711C159.126 29.7711 160.389 29.6404 161.521 29.3791C162.697 29.1178 163.917 28.6386 165.311 28.0724V33.6911C164.048 34.3009 162.785 34.7364 161.521 34.9978C160.171 35.2591 158.56 35.3898 156.774 35.3898ZM156.338 17.2707C155.424 17.2707 154.596 17.532 154.03 18.1418C153.42 18.7516 153.028 19.5791 152.985 20.8422H159.736C159.736 19.7098 159.387 18.8387 158.821 18.1853C158.124 17.6191 157.297 17.2707 156.338 17.2707ZM185.913 34.9978L184.388 32.036H184.257C183.212 33.3426 182.123 34.2138 181.034 34.6929C179.902 35.172 178.508 35.4333 176.809 35.4333C174.675 35.4333 172.977 34.78 171.801 33.5169C170.537 32.2537 169.928 30.4244 169.928 28.0724C169.928 25.6769 170.799 23.8475 172.454 22.7151C174.109 21.5391 176.548 20.8422 179.728 20.7115L183.517 20.5809V20.2324C183.517 18.3595 182.602 17.4449 180.729 17.4449C179.074 17.4449 176.94 17.9676 174.457 19.1L172.193 13.9169C174.849 12.5231 178.16 11.8698 182.167 11.8698C185.085 11.8698 187.35 12.6102 188.918 14.0476C190.486 15.4849 191.313 17.4884 191.313 20.0582V34.8671H185.956L185.913 34.9978ZM180.163 29.8582C181.078 29.8582 181.905 29.5098 182.602 28.9435C183.256 28.3338 183.604 27.5498 183.604 26.6351V24.8493L181.818 24.9364C179.249 25.0235 177.985 25.9818 177.985 27.7675C177.898 29.2049 178.639 29.8582 180.163 29.8582ZM204.249 22.236C205.164 20.7115 205.992 19.5791 206.689 18.708L211.785 12.3053H220.539L212.656 21.9747L220.975 34.9978H212.046L207.081 26.8529L204.554 28.7693V34.9106H196.671V3.81202H204.554V16.0511C204.554 18.1853 204.424 20.2324 204.075 22.1924H204.249V22.236ZM234.608 35.3898C230.818 35.3898 227.944 34.388 225.809 32.428C223.762 30.4244 222.717 27.5498 222.717 23.804C222.717 19.9711 223.719 17.0529 225.635 15.0058C227.552 12.9587 230.339 11.9133 233.911 11.9133C237.352 11.9133 239.921 12.7844 241.794 14.5702C243.667 16.356 244.582 18.8822 244.582 22.236V25.764H230.557C230.644 27.0271 231.08 28.0289 231.951 28.7258C232.822 29.4662 233.998 29.7711 235.522 29.7711C236.916 29.7711 238.179 29.6404 239.312 29.3791C240.488 29.1178 241.707 28.6386 243.101 28.0724V33.6911C241.838 34.3009 240.575 34.7364 239.312 34.9978C238.005 35.2591 236.393 35.3898 234.608 35.3898ZM234.128 17.2707C233.214 17.2707 232.386 17.532 231.82 18.1418C231.21 18.7516 230.818 19.5791 230.775 20.8422H237.526C237.526 19.7098 237.177 18.8387 236.611 18.1853C235.914 17.6191 235.13 17.2707 234.128 17.2707ZM262.614 11.9133C263.267 11.9133 263.92 12.0005 264.53 12.044L265.009 12.1311L264.269 19.492C263.616 19.3613 262.744 19.2307 261.612 19.2307C259.87 19.2307 258.65 19.6227 257.91 20.4067C257.126 21.1907 256.734 22.3231 256.734 23.7604V34.8671H248.937V12.2182H254.774L255.95 15.8769H256.342C256.995 14.7009 257.91 13.6991 259.042 12.9587C260.305 12.3053 261.481 11.9133 262.614 11.9133Z" fill="black"/>
<path d="M17.7012 11.8262C15.8283 11.8262 14.3475 12.6102 13.3457 14.1347C12.3004 15.6591 11.7777 17.7933 11.7777 20.4938C11.7777 26.1124 13.9119 28.9435 18.1803 28.9435C19.487 28.9435 20.7066 28.7258 21.9697 28.4209C23.1457 28.0724 24.4088 27.6369 25.6283 27.1142V33.8218C23.1892 34.8671 20.4017 35.3898 17.3528 35.3898C12.9101 35.3898 9.55636 34.1266 7.24792 31.5569C4.93948 28.9871 3.63281 25.2849 3.63281 20.4502C3.63281 17.4013 4.24259 14.7444 5.37503 12.436C6.50747 10.1276 8.16258 8.38535 10.2532 7.12224C12.3439 5.85913 14.9572 5.24935 17.7883 5.24935C20.9679 5.24935 23.9297 5.90269 26.8479 7.29646L24.4088 13.5249C23.3634 13.0022 22.231 12.6102 21.1857 12.2618C20.0532 11.9569 18.8772 11.8262 17.7012 11.8262ZM52.415 23.6298C52.415 27.332 51.4132 30.2502 49.4532 32.2973C47.4496 34.3444 44.7056 35.3898 41.1341 35.3898C37.6932 35.3898 34.9928 34.3444 32.9457 32.2102C30.8986 30.076 29.8968 27.2449 29.8968 23.5862C29.8968 19.884 30.8986 17.0529 32.8585 14.9622C34.8621 12.9151 37.6932 11.8698 41.2648 11.8698C43.5296 11.8698 45.4461 12.3489 47.1447 13.2636C48.887 14.1782 50.1936 15.572 51.1083 17.3578C51.9794 19.1871 52.415 21.2342 52.415 23.6298ZM37.7368 23.6298C37.7368 25.5462 37.9981 27.0706 38.5208 28.0724C39.0434 29.0742 39.9145 29.5969 41.1776 29.5969C42.3536 29.5969 43.2248 29.0742 43.7474 28.0724C44.2701 27.0271 44.4879 25.5462 44.4879 23.6298C44.4879 21.7133 44.2265 20.276 43.7474 19.2742C43.2248 18.2724 42.3536 17.8369 41.1776 17.8369C40.0016 17.8369 39.1305 18.316 38.6079 19.2742C37.9981 20.1889 37.7368 21.6262 37.7368 23.6298ZM64.7412 34.9978H56.9447V12.3489H64.7412V34.9978ZM56.727 6.68669C56.727 5.51069 57.0754 4.63958 57.7287 4.0298C58.3821 3.42002 59.471 3.15869 60.9083 3.15869C62.3456 3.15869 63.4345 3.42002 64.0878 4.0298C64.7412 4.63958 65.0896 5.46713 65.0896 6.59957C65.0896 8.90801 63.6958 10.0405 60.9083 10.0405C58.1207 10.1276 56.727 8.99513 56.727 6.68669ZM84.5154 34.9978V22.628C84.5154 21.1035 84.2976 19.9711 83.862 19.2742C83.47 18.4902 82.7296 18.0982 81.8149 18.0982C80.5083 18.0982 79.55 18.6209 78.9838 19.6662C78.374 20.7116 78.1127 22.4973 78.1127 25.1107V35.0413H70.3163V12.3924H76.1963L77.198 15.18H77.6771C78.3305 14.1347 79.2451 13.3071 80.4647 12.7845C81.6407 12.2618 82.9909 12.0005 84.5589 12.0005C87.0851 12.0005 89.0016 12.7409 90.3954 14.1782C91.7891 15.6156 92.5296 17.7062 92.5296 20.3196V35.0849H84.6025L84.5154 34.9978ZM115.178 28.0724C115.178 30.5115 114.394 32.2973 112.739 33.5604C111.084 34.8235 108.689 35.4333 105.596 35.4333C103.941 35.4333 102.504 35.3462 101.241 35.172C99.9776 34.9542 98.7144 34.6493 97.4513 34.1702V27.8982C98.6273 28.4209 99.9776 28.9 101.415 29.2049C102.852 29.5533 104.115 29.7275 105.335 29.7275C107.077 29.7275 107.861 29.3355 107.861 28.5515C107.861 28.1595 107.6 27.8111 107.121 27.5062C106.642 27.2013 105.248 26.5915 103.026 25.6333C100.979 24.7622 99.4985 23.8475 98.6709 22.7151C97.8869 21.5827 97.4078 20.276 97.4078 18.5338C97.4078 16.3996 98.1918 14.7445 99.8469 13.6556C101.502 12.4796 103.767 11.8698 106.729 11.8698C108.253 11.8698 109.647 12.0876 110.91 12.3924C112.217 12.7409 113.61 13.1765 115.004 13.7862L112.87 18.7951C111.825 18.316 110.736 17.924 109.56 17.6191C108.384 17.2707 107.426 17.0964 106.729 17.0964C105.466 17.0964 104.812 17.4449 104.812 18.0111C104.812 18.4031 105.03 18.7516 105.466 19.0129C105.901 19.2742 107.208 19.7969 109.386 20.668C110.954 21.3213 112.173 21.9747 112.914 22.5844C113.698 23.1942 114.307 23.9782 114.656 24.8493C114.961 25.8075 115.178 26.8093 115.178 28.0724ZM133.08 35.3898C131.947 35.3898 130.902 35.172 129.987 34.8671C129.073 34.4751 128.202 33.8218 127.287 32.82H126.938C127.2 34.388 127.287 35.3898 127.287 35.7817V44.8413H119.49V12.3489H125.85L126.982 15.2671H127.33C128.768 13.0893 130.771 11.9569 133.341 11.9569C135.867 11.9569 137.827 13.0022 139.221 15.0493C140.658 17.0964 141.355 20.0147 141.355 23.5862C141.355 27.2449 140.615 30.1195 139.09 32.2538C137.61 34.3444 135.606 35.3898 133.08 35.3898ZM130.466 18.0547C129.334 18.0547 128.463 18.4467 128.027 19.3178C127.548 20.1018 127.287 21.3649 127.287 22.9764V23.5862C127.287 25.5027 127.548 26.94 128.071 27.8111C128.594 28.6822 129.378 29.1178 130.51 29.1178C131.512 29.1178 132.252 28.7258 132.688 27.8546C133.167 26.9835 133.341 25.5462 133.341 23.5427C133.341 21.6262 133.123 20.2324 132.688 19.3613C132.252 18.4902 131.512 18.0547 130.466 18.0547ZM156.774 35.3898C152.985 35.3898 150.11 34.388 147.976 32.428C145.929 30.4244 144.883 27.5498 144.883 23.804C144.883 19.9711 145.885 17.0529 147.801 15.0058C149.718 12.9587 152.505 11.9133 156.077 11.9133C159.518 11.9133 162.088 12.7844 163.961 14.5702C165.833 16.356 166.748 18.8822 166.748 22.236V25.764H152.767C152.854 27.0271 153.289 28.0289 154.161 28.7258C155.032 29.4662 156.208 29.7711 157.732 29.7711C159.126 29.7711 160.389 29.6404 161.521 29.3791C162.697 29.1178 163.917 28.6386 165.311 28.0724V33.6911C164.048 34.3009 162.785 34.7364 161.521 34.9978C160.171 35.2591 158.56 35.3898 156.774 35.3898ZM156.338 17.2707C155.424 17.2707 154.596 17.532 154.03 18.1418C153.42 18.7516 153.028 19.5791 152.985 20.8422H159.736C159.736 19.7098 159.387 18.8387 158.821 18.1853C158.124 17.6191 157.297 17.2707 156.338 17.2707ZM185.913 34.9978L184.388 32.036H184.257C183.212 33.3426 182.123 34.2138 181.034 34.6929C179.902 35.172 178.508 35.4333 176.809 35.4333C174.675 35.4333 172.977 34.78 171.801 33.5169C170.537 32.2537 169.928 30.4244 169.928 28.0724C169.928 25.6769 170.799 23.8475 172.454 22.7151C174.109 21.5391 176.548 20.8422 179.728 20.7115L183.517 20.5809V20.2324C183.517 18.3595 182.602 17.4449 180.729 17.4449C179.074 17.4449 176.94 17.9676 174.457 19.1L172.193 13.9169C174.849 12.5231 178.16 11.8698 182.167 11.8698C185.085 11.8698 187.35 12.6102 188.918 14.0476C190.486 15.4849 191.313 17.4884 191.313 20.0582V34.8671H185.956L185.913 34.9978ZM180.163 29.8582C181.078 29.8582 181.905 29.5098 182.602 28.9435C183.256 28.3338 183.604 27.5498 183.604 26.6351V24.8493L181.818 24.9364C179.249 25.0235 177.985 25.9818 177.985 27.7675C177.898 29.2049 178.639 29.8582 180.163 29.8582ZM204.249 22.236C205.164 20.7115 205.992 19.5791 206.689 18.708L211.785 12.3053H220.539L212.656 21.9747L220.975 34.9978H212.046L207.081 26.8529L204.554 28.7693V34.9106H196.671V3.81202H204.554V16.0511C204.554 18.1853 204.424 20.2324 204.075 22.1924H204.249V22.236ZM234.608 35.3898C230.818 35.3898 227.944 34.388 225.809 32.428C223.762 30.4244 222.717 27.5498 222.717 23.804C222.717 19.9711 223.719 17.0529 225.635 15.0058C227.552 12.9587 230.339 11.9133 233.911 11.9133C237.352 11.9133 239.921 12.7844 241.794 14.5702C243.667 16.356 244.582 18.8822 244.582 22.236V25.764H230.557C230.644 27.0271 231.08 28.0289 231.951 28.7258C232.822 29.4662 233.998 29.7711 235.522 29.7711C236.916 29.7711 238.179 29.6404 239.312 29.3791C240.488 29.1178 241.707 28.6386 243.101 28.0724V33.6911C241.838 34.3009 240.575 34.7364 239.312 34.9978C238.005 35.2591 236.393 35.3898 234.608 35.3898ZM234.128 17.2707C233.214 17.2707 232.386 17.532 231.82 18.1418C231.21 18.7516 230.818 19.5791 230.775 20.8422H237.526C237.526 19.7098 237.177 18.8387 236.611 18.1853C235.914 17.6191 235.13 17.2707 234.128 17.2707ZM262.614 11.9133C263.267 11.9133 263.92 12.0005 264.53 12.044L265.009 12.1311L264.269 19.492C263.616 19.3613 262.744 19.2307 261.612 19.2307C259.87 19.2307 258.65 19.6227 257.91 20.4067C257.126 21.1907 256.734 22.3231 256.734 23.7604V34.8671H248.937V12.2182H254.774L255.95 15.8769H256.342C256.995 14.7009 257.91 13.6991 259.042 12.9587C260.305 12.3053 261.481 11.9133 262.614 11.9133Z" stroke="white" stroke-width="6" stroke-linejoin="round" mask="url(#path-1-outside-1_9_54)"/>
</svg>
