<svg width="432" height="227" viewBox="0 0 432 227" fill="none" xmlns="http://www.w3.org/2000/svg">
<path d="M209.772 37.3359C209.447 39.8726 209.37 42.5644 209.541 45.4112C208.633 45.257 207.653 45.1235 206.6 45.0107C204.758 44.7378 202.78 44.6013 200.665 44.6013C197.459 44.6013 194.9 45.3518 192.99 46.8526C191.08 48.2852 190.125 50.3318 190.125 52.9924C190.125 55.4483 190.978 57.2562 192.683 58.4159C194.389 59.5756 196.811 60.1555 199.949 60.1555C203.883 60.1555 207.333 59.6312 210.299 58.5826C209.812 61.4517 209.364 64.3979 208.954 67.421C208.476 71.4459 208.101 75.3686 207.828 79.1889C207.555 82.941 207.419 86.3179 207.419 89.3196C207.419 91.0933 207.453 93.0717 207.521 95.2547C207.658 97.4378 207.965 99.5526 208.442 101.599C208.988 103.578 209.841 105.215 211 106.511C212.228 107.807 213.9 108.455 216.014 108.455C218.675 108.455 220.688 107.193 222.052 104.669C223.416 102.145 224.099 98.6999 224.099 94.3338C224.099 91.6732 223.962 88.6715 223.689 85.3287C223.416 81.9859 223.041 78.5408 222.564 74.9934C222.086 71.4459 221.54 68.0349 220.926 64.7604C220.554 62.4772 220.165 60.3691 219.76 58.436C220.989 58.6383 222.23 58.8021 223.485 58.9276C225.599 59.064 227.578 59.1322 229.42 59.1322C232.49 59.1322 235.048 58.4841 237.094 57.1879C239.141 55.8918 240.164 53.9816 240.164 51.4575C240.164 48.7969 239.278 46.9208 237.504 45.8293C235.798 44.6696 233.479 44.0897 230.545 44.0897C226.845 44.0897 223.449 44.5019 220.357 45.3265C221.692 42.4471 222.359 39.0673 222.359 35.187C222.359 33.0039 221.916 31.2984 221.029 30.0705C220.142 28.8425 218.743 28.2285 216.833 28.2285C214.718 28.2285 213.081 29.0813 211.921 30.7868C210.83 32.4241 210.113 34.6071 209.772 37.3359Z" fill="black"/>
<path d="M371.807 121.861C371.807 125.817 373.649 127.796 377.333 127.796C380.744 127.796 384.599 125.237 388.896 120.121C393.194 115.073 398.379 107.057 404.451 96.0734C406.838 91.8437 409.021 87.5459 411 83.1798C413.046 78.8137 414.82 74.6182 416.321 70.5932C417.89 66.5 419.084 62.8502 419.903 59.6439C420.789 56.3693 421.233 53.7428 421.233 51.7645C421.233 49.3767 420.755 47.5348 419.8 46.2386C418.913 44.8742 417.515 44.192 415.605 44.192C411.58 44.192 408.1 47.5007 405.167 54.118C402.234 60.6672 399.471 70.9684 396.878 85.0217H396.469C392.512 71.6506 388.317 61.6905 383.882 55.1413C379.448 48.5922 374.98 45.3176 370.477 45.3176C368.362 45.3176 366.657 45.9999 365.361 47.3643C364.133 48.7287 363.519 50.6388 363.519 53.0947C363.519 58.0748 365.838 63.9758 370.477 70.7979C375.116 77.5216 381.877 85.3058 390.757 94.1502C386.808 97.6171 383.425 101.021 380.608 104.362C377.743 107.841 375.559 111.082 374.059 114.083C372.558 117.085 371.807 119.678 371.807 121.861Z" fill="black"/>
<path d="M338.429 43.3733C344.5 43.3733 348.866 44.2602 351.527 46.0339C354.188 47.8077 355.518 50.093 355.518 52.89C355.518 54.5273 354.938 55.8917 353.778 56.9833C352.687 58.0066 351.118 58.5182 349.071 58.5182C346.956 58.5182 344.739 58.2112 342.42 57.5972C340.168 56.9833 337.542 56.6763 334.54 56.6763C331.061 56.6763 328.469 57.3585 326.763 58.7229C325.058 60.0873 324.205 61.8269 324.205 63.9417C324.205 65.9201 324.955 67.4891 326.456 68.6489C328.025 69.7404 330.993 70.5591 335.359 71.1048C340.202 71.6506 344.193 72.5374 347.331 73.7654C350.538 74.9251 352.925 76.6989 354.495 79.0866C356.064 81.406 356.848 84.6124 356.848 88.7056C356.848 95.1865 354.563 99.996 349.992 103.134C345.421 106.272 339.111 107.841 331.061 107.841C325.944 107.841 321.885 107.432 318.884 106.613C315.882 105.795 313.699 104.635 312.335 103.134C311.038 101.633 310.39 99.8596 310.39 97.813C310.39 96.0393 310.97 94.6749 312.13 93.7198C313.358 92.6965 314.79 92.1848 316.428 92.1848C317.997 92.1848 319.668 92.3895 321.442 92.7988C323.216 93.1399 325.092 93.5151 327.07 93.9244C329.048 94.3337 331.095 94.5384 333.21 94.5384C340.032 94.5384 343.443 92.4236 343.443 88.1939C343.443 86.7613 343.102 85.6016 342.42 84.7147C341.737 83.8279 340.509 83.1115 338.736 82.5658C336.962 81.9518 334.37 81.4743 330.959 81.1332C326.865 80.7238 323.318 80.0416 320.316 79.0866C317.315 78.0633 314.995 76.426 313.358 74.1747C311.721 71.8552 310.902 68.683 310.902 64.658C310.902 58.3135 313.29 53.197 318.065 49.3085C322.84 45.3517 329.628 43.3733 338.429 43.3733Z" fill="black"/>
<path fill-rule="evenodd" clip-rule="evenodd" d="M288.392 105.795C289.279 107.568 290.882 108.455 293.202 108.455C294.839 108.455 296.135 107.978 297.09 107.023C298.114 105.999 298.864 104.226 299.342 101.702C299.819 99.1774 300.058 95.5958 300.058 90.9569C300.058 84.817 299.683 79.0525 298.932 73.6631C298.182 68.2737 296.92 63.3959 295.146 59.0299C293.1 53.9133 290.098 50.0248 286.141 47.3642C282.184 44.7036 277.443 43.3733 271.917 43.3733C267.346 43.3733 263.117 44.0555 259.228 45.42C255.34 46.7844 252.202 48.5581 249.814 50.7411C247.494 52.9242 246.335 55.2436 246.335 57.6996C246.335 59.4051 246.778 60.8036 247.665 61.8951C248.62 62.9866 249.916 63.5324 251.553 63.5324C253.191 63.5324 254.93 63.1231 256.772 62.3044C258.683 61.4176 260.763 60.5648 263.014 59.7462C265.266 58.9275 267.722 58.5182 270.382 58.5182C274.953 58.5182 278.466 60.019 280.922 63.0207C283.264 65.7421 284.725 70.1662 285.305 76.293C283.394 74.7564 281.216 73.5045 278.773 72.5374C275.499 71.2413 271.644 70.5932 267.21 70.5932C260.456 70.5932 255.033 72.3328 250.939 75.812C246.846 79.223 244.8 83.862 244.8 89.7289C244.8 93.1399 245.55 96.3121 247.051 99.2456C248.62 102.111 251.008 104.43 254.214 106.204C257.42 107.91 261.445 108.762 266.289 108.762C276.138 108.762 283.066 105.578 287.072 99.2085C287.287 102.102 287.727 104.298 288.392 105.795ZM277.443 96.0734C275.124 96.6873 272.838 96.9943 270.587 96.9943C266.767 96.9943 263.833 96.3121 261.786 94.9477C259.808 93.5151 258.819 91.5026 258.819 88.9103C258.819 86.5225 259.876 84.6124 261.991 83.1798C264.174 81.7471 267.346 81.0308 271.508 81.0308C273.964 81.0308 276.249 81.3037 278.364 81.8495C280.547 82.3952 282.287 83.2139 283.583 84.3054C284.947 85.3287 285.629 86.659 285.629 88.2963C285.629 90.2064 284.845 91.8096 283.276 93.1058C281.707 94.402 279.762 95.3912 277.443 96.0734Z" fill="black"/>
<path d="M144.003 46.4433C143.252 44.6696 141.786 43.7827 139.603 43.7827C137.01 43.7827 135.066 45.42 133.77 48.6945C132.474 51.9009 131.484 56.267 130.802 61.7928C130.461 64.7263 130.154 68.0008 129.881 71.6165C129.677 75.1639 129.506 78.7114 129.37 82.2588C129.233 85.8063 129.165 89.0126 129.165 91.8778C129.165 97.4719 129.813 101.463 131.109 103.85C132.405 106.17 134.315 107.33 136.84 107.33C139.023 107.33 140.728 106.443 141.956 104.669C143.252 102.895 144.037 99.9619 144.31 95.8687C144.514 94.0268 144.583 91.7755 144.514 89.1149V80.9285C144.514 78.1997 144.617 75.9144 144.821 74.0724C145.572 68.6148 147.073 64.4193 149.324 61.4858C151.575 58.4841 154.372 56.9833 157.715 56.9833C163.991 56.9833 167.129 61.7587 167.129 71.3095C167.129 74.1065 166.959 77.2446 166.618 80.7239C166.345 84.1349 166.038 87.5118 165.697 90.8546C165.356 94.1291 165.185 96.9261 165.185 99.2456C165.185 101.429 165.663 103.168 166.618 104.464C167.573 105.761 168.937 106.409 170.711 106.409C172.485 106.409 174.02 105.863 175.316 104.771C176.612 103.612 177.669 101.872 178.488 99.5526C179.102 97.7107 179.648 95.3571 180.125 92.4918C180.671 89.5584 181.08 86.352 181.353 82.8728C181.694 79.3254 181.865 75.7438 181.865 72.1281C181.865 66.2612 181.149 61.1788 179.716 56.881C178.352 52.5831 176.237 49.2403 173.371 46.8526C170.574 44.4649 167.061 43.271 162.831 43.271C159.011 43.271 155.395 44.5331 151.984 47.0573C149.072 49.1545 146.806 51.9732 145.186 55.5131C145.216 55.1015 145.231 54.7047 145.231 54.3227C145.231 50.8435 144.821 48.217 144.003 46.4433Z" fill="black"/>
<path fill-rule="evenodd" clip-rule="evenodd" d="M109.827 108.455C107.508 108.455 105.904 107.568 105.018 105.795C104.352 104.298 103.912 102.102 103.697 99.2085C99.6914 105.578 92.7636 108.762 82.9142 108.762C78.0706 108.762 74.0456 107.91 70.8393 106.204C67.6329 104.43 65.2452 102.111 63.6762 99.2456C62.1753 96.3121 61.4249 93.1399 61.4249 89.7289C61.4249 83.862 63.4715 79.223 67.5647 75.812C71.6579 72.3328 77.0814 70.5932 83.8352 70.5932C88.2695 70.5932 92.124 71.2413 95.3985 72.5374C97.8416 73.5045 100.019 74.7564 101.93 76.293C101.35 70.1662 99.8891 65.7421 97.5474 63.0207C95.0915 60.019 91.5782 58.5182 87.0074 58.5182C84.3469 58.5182 81.8909 58.9275 79.6397 59.7462C77.3884 60.5648 75.3077 61.4176 73.3975 62.3044C71.5556 63.1231 69.816 63.5324 68.1787 63.5324C66.5414 63.5324 65.2452 62.9866 64.2902 61.8951C63.4033 60.8036 62.9599 59.4051 62.9599 57.6996C62.9599 55.2436 64.1196 52.9242 66.4391 50.7411C68.8268 48.5581 71.9649 46.7844 75.8535 45.42C79.742 44.0555 83.9716 43.3733 88.5424 43.3733C94.0682 43.3733 98.8095 44.7036 102.766 47.3642C106.723 50.0248 109.725 53.9133 111.771 59.0299C113.545 63.3959 114.807 68.2737 115.558 73.6631C116.308 79.0525 116.683 84.817 116.683 90.9569C116.683 95.5958 116.444 99.1774 115.967 101.702C115.489 104.226 114.739 105.999 113.716 107.023C112.761 107.978 111.464 108.455 109.827 108.455ZM87.2121 96.9943C89.4634 96.9943 91.7487 96.6873 94.0682 96.0734C96.3877 95.3912 98.332 94.402 99.901 93.1058C101.47 91.8096 102.255 90.2064 102.255 88.2963C102.255 86.659 101.572 85.3287 100.208 84.3054C98.9119 83.2139 97.1722 82.3952 94.9892 81.8495C92.8744 81.3037 90.589 81.0308 88.1331 81.0308C83.9717 81.0308 80.7994 81.7471 78.6164 83.1798C76.5016 84.6124 75.4441 86.5225 75.4441 88.9103C75.4441 91.5026 76.4333 93.5151 78.4117 94.9477C80.4583 96.3121 83.3918 96.9943 87.2121 96.9943Z" fill="black"/>
<path d="M53.6149 36.3126C51.7048 34.8799 48.4643 34.1636 43.8936 34.1636C40.3461 34.1636 36.7987 34.4365 33.2512 34.9823C29.7038 35.4598 26.5316 36.2785 23.7345 37.4382C20.9375 38.5297 18.8227 40.0306 17.3901 41.9407C15.6846 44.3284 14.2861 48.4216 13.1945 54.2203C12.103 59.9508 11.5573 67.6938 11.5573 77.4493C11.5573 84.0666 11.796 89.7289 12.2736 94.4361C12.8193 99.1433 13.4674 102.657 14.2178 104.976C14.8318 106.682 15.6846 107.944 16.7761 108.762C17.8676 109.649 19.232 110.093 20.8693 110.093C23.1888 110.093 24.9966 109.24 26.2928 107.534C27.6572 105.829 28.3394 103.168 28.3394 99.5526C28.3394 96.7556 28.1347 93.7198 27.7254 90.4452C27.3843 87.1024 26.9068 83.9643 26.2928 81.0308C25.9318 79.0454 25.5559 77.3286 25.1651 75.8804C28.9243 78.1565 32.5748 79.9756 36.1165 81.3378C40.619 82.9751 44.5758 83.7937 47.9868 83.7937C50.3745 83.7937 52.1482 83.248 53.3079 82.1565C54.4677 80.9967 55.0476 79.5641 55.0476 77.8586C55.0476 75.6756 54.0584 73.6972 52.08 71.9235C50.1698 70.1497 46.9294 68.6148 42.3586 67.3186C38.0381 66.0934 32.2242 65.2034 24.9168 64.6487C25.367 61.9528 25.621 59.1589 25.6788 56.2669C25.7288 53.7188 25.6324 51.4634 25.3896 49.5007C27.923 49.666 30.4071 49.8065 32.8419 49.9225C35.7072 49.9907 38.2654 50.0248 40.5167 50.0248C45.9743 50.0248 49.9993 49.3767 52.5916 48.0805C55.2522 46.7843 56.5825 44.7377 56.5825 41.9407C56.5825 39.553 55.5933 37.677 53.6149 36.3126Z" fill="black"/>
<path d="M209.772 37.3359C209.447 39.8726 209.37 42.5644 209.541 45.4112C208.633 45.257 207.653 45.1235 206.6 45.0107C204.758 44.7378 202.78 44.6013 200.665 44.6013C197.459 44.6013 194.9 45.3518 192.99 46.8526C191.08 48.2852 190.125 50.3318 190.125 52.9924C190.125 55.4483 190.978 57.2562 192.683 58.4159C194.389 59.5756 196.811 60.1555 199.949 60.1555C203.883 60.1555 207.333 59.6312 210.299 58.5826C209.812 61.4517 209.364 64.3979 208.954 67.421C208.476 71.4459 208.101 75.3686 207.828 79.1889C207.555 82.941 207.419 86.3179 207.419 89.3196C207.419 91.0933 207.453 93.0717 207.521 95.2547C207.658 97.4378 207.965 99.5526 208.442 101.599C208.988 103.578 209.841 105.215 211 106.511C212.228 107.807 213.9 108.455 216.014 108.455C218.675 108.455 220.688 107.193 222.052 104.669C223.416 102.145 224.099 98.6999 224.099 94.3338C224.099 91.6732 223.962 88.6715 223.689 85.3287C223.416 81.9859 223.041 78.5408 222.564 74.9934C222.086 71.4459 221.54 68.0349 220.926 64.7604C220.554 62.4772 220.165 60.3691 219.76 58.436C220.989 58.6383 222.23 58.8021 223.485 58.9276C225.599 59.064 227.578 59.1322 229.42 59.1322C232.49 59.1322 235.048 58.4841 237.094 57.1879C239.141 55.8918 240.164 53.9816 240.164 51.4575C240.164 48.7969 239.278 46.9208 237.504 45.8293C235.798 44.6696 233.479 44.0897 230.545 44.0897C226.845 44.0897 223.449 44.5019 220.357 45.3265C221.692 42.4471 222.359 39.0673 222.359 35.187C222.359 33.0039 221.916 31.2984 221.029 30.0705C220.142 28.8425 218.743 28.2285 216.833 28.2285C214.718 28.2285 213.081 29.0813 211.921 30.7868C210.83 32.4241 210.113 34.6071 209.772 37.3359Z" stroke="black" stroke-width="21.1718"/>
<path d="M371.807 121.861C371.807 125.817 373.649 127.796 377.333 127.796C380.744 127.796 384.599 125.237 388.896 120.121C393.194 115.073 398.379 107.057 404.451 96.0734C406.838 91.8437 409.021 87.5459 411 83.1798C413.046 78.8137 414.82 74.6182 416.321 70.5932C417.89 66.5 419.084 62.8502 419.903 59.6439C420.789 56.3693 421.233 53.7428 421.233 51.7645C421.233 49.3767 420.755 47.5348 419.8 46.2386C418.913 44.8742 417.515 44.192 415.605 44.192C411.58 44.192 408.1 47.5007 405.167 54.118C402.234 60.6672 399.471 70.9684 396.878 85.0217H396.469C392.512 71.6506 388.317 61.6905 383.882 55.1413C379.448 48.5922 374.98 45.3176 370.477 45.3176C368.362 45.3176 366.657 45.9999 365.361 47.3643C364.133 48.7287 363.519 50.6388 363.519 53.0947C363.519 58.0748 365.838 63.9758 370.477 70.7979C375.116 77.5216 381.877 85.3058 390.757 94.1502C386.808 97.6171 383.425 101.021 380.608 104.362C377.743 107.841 375.559 111.082 374.059 114.083C372.558 117.085 371.807 119.678 371.807 121.861Z" stroke="black" stroke-width="21.1718"/>
<path d="M338.429 43.3733C344.5 43.3733 348.866 44.2602 351.527 46.0339C354.188 47.8077 355.518 50.093 355.518 52.89C355.518 54.5273 354.938 55.8917 353.778 56.9833C352.687 58.0066 351.118 58.5182 349.071 58.5182C346.956 58.5182 344.739 58.2112 342.42 57.5972C340.168 56.9833 337.542 56.6763 334.54 56.6763C331.061 56.6763 328.469 57.3585 326.763 58.7229C325.058 60.0873 324.205 61.8269 324.205 63.9417C324.205 65.9201 324.955 67.4891 326.456 68.6489C328.025 69.7404 330.993 70.5591 335.359 71.1048C340.202 71.6506 344.193 72.5374 347.331 73.7654C350.538 74.9251 352.925 76.6989 354.495 79.0866C356.064 81.406 356.848 84.6124 356.848 88.7056C356.848 95.1865 354.563 99.996 349.992 103.134C345.421 106.272 339.111 107.841 331.061 107.841C325.944 107.841 321.885 107.432 318.884 106.613C315.882 105.795 313.699 104.635 312.335 103.134C311.038 101.633 310.39 99.8596 310.39 97.813C310.39 96.0393 310.97 94.6749 312.13 93.7198C313.358 92.6965 314.79 92.1848 316.428 92.1848C317.997 92.1848 319.668 92.3895 321.442 92.7988C323.216 93.1399 325.092 93.5151 327.07 93.9244C329.048 94.3337 331.095 94.5384 333.21 94.5384C340.032 94.5384 343.443 92.4236 343.443 88.1939C343.443 86.7613 343.102 85.6016 342.42 84.7147C341.737 83.8279 340.509 83.1115 338.736 82.5658C336.962 81.9518 334.37 81.4743 330.959 81.1332C326.865 80.7238 323.318 80.0416 320.316 79.0866C317.315 78.0633 314.995 76.426 313.358 74.1747C311.721 71.8552 310.902 68.683 310.902 64.658C310.902 58.3135 313.29 53.197 318.065 49.3085C322.84 45.3517 329.628 43.3733 338.429 43.3733Z" stroke="black" stroke-width="21.1718"/>
<path fill-rule="evenodd" clip-rule="evenodd" d="M288.392 105.795C289.279 107.568 290.882 108.455 293.202 108.455C294.839 108.455 296.135 107.978 297.09 107.023C298.114 105.999 298.864 104.226 299.342 101.702C299.819 99.1774 300.058 95.5958 300.058 90.9569C300.058 84.817 299.683 79.0525 298.932 73.6631C298.182 68.2737 296.92 63.3959 295.146 59.0299C293.1 53.9133 290.098 50.0248 286.141 47.3642C282.184 44.7036 277.443 43.3733 271.917 43.3733C267.346 43.3733 263.117 44.0555 259.228 45.42C255.34 46.7844 252.202 48.5581 249.814 50.7411C247.494 52.9242 246.335 55.2436 246.335 57.6996C246.335 59.4051 246.778 60.8036 247.665 61.8951C248.62 62.9866 249.916 63.5324 251.553 63.5324C253.191 63.5324 254.93 63.1231 256.772 62.3044C258.683 61.4176 260.763 60.5648 263.014 59.7462C265.266 58.9275 267.722 58.5182 270.382 58.5182C274.953 58.5182 278.466 60.019 280.922 63.0207C283.264 65.7421 284.725 70.1662 285.305 76.293C283.394 74.7564 281.216 73.5045 278.773 72.5374C275.499 71.2413 271.644 70.5932 267.21 70.5932C260.456 70.5932 255.033 72.3328 250.939 75.812C246.846 79.223 244.8 83.862 244.8 89.7289C244.8 93.1399 245.55 96.3121 247.051 99.2456C248.62 102.111 251.008 104.43 254.214 106.204C257.42 107.91 261.445 108.762 266.289 108.762C276.138 108.762 283.066 105.578 287.072 99.2085C287.287 102.102 287.727 104.298 288.392 105.795ZM277.443 96.0734C275.124 96.6873 272.838 96.9943 270.587 96.9943C266.767 96.9943 263.833 96.3121 261.786 94.9477C259.808 93.5151 258.819 91.5026 258.819 88.9103C258.819 86.5225 259.876 84.6124 261.991 83.1798C264.174 81.7471 267.346 81.0308 271.508 81.0308C273.964 81.0308 276.249 81.3037 278.364 81.8495C280.547 82.3952 282.287 83.2139 283.583 84.3054C284.947 85.3287 285.629 86.659 285.629 88.2963C285.629 90.2064 284.845 91.8096 283.276 93.1058C281.707 94.402 279.762 95.3912 277.443 96.0734Z" stroke="black" stroke-width="21.1718"/>
<path d="M144.003 46.4433C143.252 44.6696 141.786 43.7827 139.603 43.7827C137.01 43.7827 135.066 45.42 133.77 48.6945C132.474 51.9009 131.484 56.267 130.802 61.7928C130.461 64.7263 130.154 68.0008 129.881 71.6165C129.677 75.1639 129.506 78.7114 129.37 82.2588C129.233 85.8063 129.165 89.0126 129.165 91.8778C129.165 97.4719 129.813 101.463 131.109 103.85C132.405 106.17 134.315 107.33 136.84 107.33C139.023 107.33 140.728 106.443 141.956 104.669C143.252 102.895 144.037 99.9619 144.31 95.8687C144.514 94.0268 144.583 91.7755 144.514 89.1149V80.9285C144.514 78.1997 144.617 75.9144 144.821 74.0724C145.572 68.6148 147.073 64.4193 149.324 61.4858C151.575 58.4841 154.372 56.9833 157.715 56.9833C163.991 56.9833 167.129 61.7587 167.129 71.3095C167.129 74.1065 166.959 77.2446 166.618 80.7239C166.345 84.1349 166.038 87.5118 165.697 90.8546C165.356 94.1291 165.185 96.9261 165.185 99.2456C165.185 101.429 165.663 103.168 166.618 104.464C167.573 105.761 168.937 106.409 170.711 106.409C172.485 106.409 174.02 105.863 175.316 104.771C176.612 103.612 177.669 101.872 178.488 99.5526C179.102 97.7107 179.648 95.3571 180.125 92.4918C180.671 89.5584 181.08 86.352 181.353 82.8728C181.694 79.3254 181.865 75.7438 181.865 72.1281C181.865 66.2612 181.149 61.1788 179.716 56.881C178.352 52.5831 176.237 49.2403 173.371 46.8526C170.574 44.4649 167.061 43.271 162.831 43.271C159.011 43.271 155.395 44.5331 151.984 47.0573C149.072 49.1545 146.806 51.9732 145.186 55.5131C145.216 55.1015 145.231 54.7047 145.231 54.3227C145.231 50.8435 144.821 48.217 144.003 46.4433Z" stroke="black" stroke-width="21.1718"/>
<path fill-rule="evenodd" clip-rule="evenodd" d="M109.827 108.455C107.508 108.455 105.904 107.568 105.018 105.795C104.352 104.298 103.912 102.102 103.697 99.2085C99.6914 105.578 92.7636 108.762 82.9142 108.762C78.0706 108.762 74.0456 107.91 70.8393 106.204C67.6329 104.43 65.2452 102.111 63.6762 99.2456C62.1753 96.3121 61.4249 93.1399 61.4249 89.7289C61.4249 83.862 63.4715 79.223 67.5647 75.812C71.6579 72.3328 77.0814 70.5932 83.8352 70.5932C88.2695 70.5932 92.124 71.2413 95.3985 72.5374C97.8416 73.5045 100.019 74.7564 101.93 76.293C101.35 70.1662 99.8891 65.7421 97.5474 63.0207C95.0915 60.019 91.5782 58.5182 87.0074 58.5182C84.3469 58.5182 81.8909 58.9275 79.6397 59.7462C77.3884 60.5648 75.3077 61.4176 73.3975 62.3044C71.5556 63.1231 69.816 63.5324 68.1787 63.5324C66.5414 63.5324 65.2452 62.9866 64.2902 61.8951C63.4033 60.8036 62.9599 59.4051 62.9599 57.6996C62.9599 55.2436 64.1196 52.9242 66.4391 50.7411C68.8268 48.5581 71.9649 46.7844 75.8535 45.42C79.742 44.0555 83.9716 43.3733 88.5424 43.3733C94.0682 43.3733 98.8095 44.7036 102.766 47.3642C106.723 50.0248 109.725 53.9133 111.771 59.0299C113.545 63.3959 114.807 68.2737 115.558 73.6631C116.308 79.0525 116.683 84.817 116.683 90.9569C116.683 95.5958 116.444 99.1774 115.967 101.702C115.489 104.226 114.739 105.999 113.716 107.023C112.761 107.978 111.464 108.455 109.827 108.455ZM87.2121 96.9943C89.4634 96.9943 91.7487 96.6873 94.0682 96.0734C96.3877 95.3912 98.332 94.402 99.901 93.1058C101.47 91.8096 102.255 90.2064 102.255 88.2963C102.255 86.659 101.572 85.3287 100.208 84.3054C98.9119 83.2139 97.1722 82.3952 94.9892 81.8495C92.8744 81.3037 90.589 81.0308 88.1331 81.0308C83.9717 81.0308 80.7994 81.7471 78.6164 83.1798C76.5016 84.6124 75.4441 86.5225 75.4441 88.9103C75.4441 91.5026 76.4333 93.5151 78.4117 94.9477C80.4583 96.3121 83.3918 96.9943 87.2121 96.9943Z" stroke="black" stroke-width="21.1718"/>
<path d="M53.6149 36.3126C51.7048 34.8799 48.4643 34.1636 43.8936 34.1636C40.3461 34.1636 36.7987 34.4365 33.2512 34.9823C29.7038 35.4598 26.5316 36.2785 23.7345 37.4382C20.9375 38.5297 18.8227 40.0306 17.3901 41.9407C15.6846 44.3284 14.2861 48.4216 13.1945 54.2203C12.103 59.9508 11.5573 67.6938 11.5573 77.4493C11.5573 84.0666 11.796 89.7289 12.2736 94.4361C12.8193 99.1433 13.4674 102.657 14.2178 104.976C14.8318 106.682 15.6846 107.944 16.7761 108.762C17.8676 109.649 19.232 110.093 20.8693 110.093C23.1888 110.093 24.9966 109.24 26.2928 107.534C27.6572 105.829 28.3394 103.168 28.3394 99.5526C28.3394 96.7556 28.1347 93.7198 27.7254 90.4452C27.3843 87.1024 26.9068 83.9643 26.2928 81.0308C25.9318 79.0454 25.5559 77.3286 25.1651 75.8804C28.9243 78.1565 32.5748 79.9756 36.1165 81.3378C40.619 82.9751 44.5758 83.7937 47.9868 83.7937C50.3745 83.7937 52.1482 83.248 53.3079 82.1565C54.4677 80.9967 55.0476 79.5641 55.0476 77.8586C55.0476 75.6756 54.0584 73.6972 52.08 71.9235C50.1698 70.1497 46.9294 68.6148 42.3586 67.3186C38.0381 66.0934 32.2242 65.2034 24.9168 64.6487C25.367 61.9528 25.621 59.1589 25.6788 56.2669C25.7288 53.7188 25.6324 51.4634 25.3896 49.5007C27.923 49.666 30.4071 49.8065 32.8419 49.9225C35.7072 49.9907 38.2654 50.0248 40.5167 50.0248C45.9743 50.0248 49.9993 49.3767 52.5916 48.0805C55.2522 46.7843 56.5825 44.7377 56.5825 41.9407C56.5825 39.553 55.5933 37.677 53.6149 36.3126Z" stroke="black" stroke-width="21.1718"/>
<path d="M42.5668 27.7316C48.2291 27.7316 52.2541 28.7208 54.6418 30.6992C57.0977 32.6094 58.3257 35.2699 58.3257 38.6809C58.3257 42.7059 56.6543 45.6735 53.3115 47.5837C49.9687 49.4938 44.7499 50.4489 37.655 50.4489C36.2906 50.4489 34.7556 50.4148 33.0501 50.3466C31.3446 50.2784 29.5368 50.176 27.6266 50.0396L27.9336 46.765C28.4111 48.1977 28.6158 49.9373 28.5476 51.9839C28.5476 53.9622 28.3429 55.9747 27.9336 58.0213L27.2173 56.6911C34.6533 57.1004 40.5202 57.8167 44.8181 58.84C49.1842 59.8633 52.2541 61.2959 54.0278 63.1379C55.8697 64.9798 56.7907 67.3675 56.7907 70.301C56.7907 72.6204 55.9379 74.5647 54.2324 76.1338C52.5269 77.7028 49.9005 78.4874 46.353 78.4874C42.942 78.4874 39.3605 77.8734 35.6084 76.6454C31.9245 75.3492 28.1724 73.5073 24.352 71.1196L28.6499 70.9149C29.2639 72.1429 29.8438 73.8825 30.3895 76.1338C31.0035 78.3168 31.481 80.7045 31.8221 83.2969C32.1632 85.8892 32.3338 88.4134 32.3338 90.8693C32.3338 95.2354 31.3105 98.4759 29.2639 100.591C27.2855 102.637 24.5567 103.661 21.0775 103.661C18.6216 103.661 16.4726 103.149 14.6307 102.126C12.857 101.171 11.5608 99.6015 10.7421 97.4184C9.9235 95.3036 9.27541 92.0973 8.79787 87.7994C8.32033 83.5015 8.08155 77.9075 8.08155 71.0173C8.08155 61.5347 8.62732 54.0305 9.71884 48.5046C10.8104 42.9106 12.2089 38.9538 13.9144 36.6343C15.5517 34.4513 17.9394 32.7117 21.0775 31.4155C24.2156 30.0511 27.6948 29.096 31.5152 28.5503C35.3355 28.0045 39.0194 27.7316 42.5668 27.7316ZM110.325 102.023C106.846 102.023 104.527 101.136 103.367 99.3627C102.207 97.5208 101.627 94.6214 101.627 90.6647L103.162 91.1763C99.4784 98.6123 92.3835 102.33 81.8776 102.33C77.1022 102.33 73.1454 101.478 70.0073 99.772C66.8691 98.0665 64.5156 95.8494 62.9465 93.1206C61.4457 90.3236 60.6952 87.2537 60.6952 83.9109C60.6952 78.1804 62.7759 73.6437 66.9374 70.301C71.0988 66.9582 76.6246 65.2868 83.5149 65.2868C87.8127 65.2868 91.5648 65.9349 94.7712 67.2311C98.0457 68.5272 100.775 70.3351 102.958 72.6546L100.092 72.4499C99.9559 66.7194 98.8303 62.6603 96.7154 60.2726C94.6006 57.8167 91.5307 56.5887 87.5057 56.5887C85.6638 56.5887 83.7536 56.8957 81.7752 57.5097C79.7969 58.0555 77.8185 58.6353 75.8401 59.2493C73.9299 59.8633 71.9857 60.1703 70.0073 60.1703C67.5513 60.1703 65.6412 59.4881 64.2768 58.1237C62.9124 56.7593 62.2302 54.9855 62.2302 52.8025C62.2302 49.8008 63.5264 47.1061 66.1187 44.7184C68.7111 42.3307 72.1221 40.4547 76.3517 39.0903C80.6496 37.6576 85.2886 36.9413 90.2686 36.9413C96.6131 36.9413 102.105 38.2034 106.744 40.7275C111.451 43.2517 114.828 47.1061 116.874 52.2909C118.444 56.1794 119.535 60.5796 120.149 65.4914C120.831 70.3351 121.172 75.5198 121.172 81.0456C121.172 86.5715 120.797 90.8693 120.047 93.9392C119.365 96.9409 118.205 99.0557 116.567 100.284C114.998 101.443 112.918 102.023 110.325 102.023ZM89.6547 88.0041C91.2237 88.0041 92.8269 87.7653 94.4642 87.2878C96.1015 86.742 97.4659 85.9916 98.5574 85.0365C99.7171 84.0814 100.297 82.8876 100.297 81.4549C100.297 80.1588 99.8536 79.1014 98.9667 78.2827C98.0798 77.3958 96.886 76.7819 95.3851 76.4408C93.8843 76.0314 92.2811 75.8268 90.5756 75.8268C87.5739 75.8268 85.2204 76.4067 83.5149 77.5664C81.8093 78.7261 80.9566 80.227 80.9566 82.0689C80.9566 83.8426 81.7411 85.2753 83.3102 86.3668C84.8793 87.4583 86.9941 88.0041 89.6547 88.0041ZM140.998 37.3507C144.068 37.3507 146.183 38.2375 147.342 40.0112C148.57 41.785 149.184 44.4114 149.184 47.8907C149.184 48.7093 149.116 49.5962 148.98 50.5512C148.912 51.4381 148.775 52.2567 148.57 53.0072L148.366 50.9606C150.003 46.5263 152.493 43.0811 155.836 40.6252C159.179 38.1011 162.726 36.839 166.478 36.839C171.049 36.839 174.835 38.1011 177.837 40.6252C180.839 43.1494 183.09 46.6968 184.591 51.2676C186.091 55.8383 186.842 61.2277 186.842 67.4357C186.842 70.7785 186.705 74.0531 186.433 77.2594C186.16 80.4658 185.784 83.3992 185.307 86.0598C184.829 88.7204 184.215 90.9034 183.465 92.6089C182.442 95.0649 181.009 96.9068 179.167 98.1348C177.325 99.3627 175.108 99.9767 172.516 99.9767C169.787 99.9767 167.672 99.0557 166.171 97.2138C164.67 95.3036 163.92 92.6771 163.92 89.3344C163.92 87.2195 164.022 84.7295 164.227 81.8643C164.5 78.9308 164.739 75.9973 164.943 73.0639C165.148 70.1304 165.25 67.6404 165.25 65.5938C165.25 59.0446 163.204 55.7701 159.11 55.7701C156.859 55.7701 154.949 56.8275 153.38 58.9423C151.879 60.9889 150.89 63.8883 150.412 67.6404C150.208 69.3459 150.071 71.4607 150.003 73.9848C149.935 76.509 149.867 79.0331 149.798 81.5573C149.73 84.0132 149.628 86.0939 149.491 87.7994C149.082 92.5066 147.956 95.8835 146.115 97.9301C144.341 99.9085 141.885 100.898 138.747 100.898C134.995 100.898 132.164 99.7379 130.253 97.4184C128.343 95.0307 127.388 91.0399 127.388 85.4458C127.388 82.5806 127.456 79.3742 127.593 75.8268C127.729 72.2793 127.9 68.7319 128.104 65.1845C128.377 61.5688 128.684 58.2942 129.025 55.3608C129.708 49.7667 130.97 45.3665 132.812 42.1602C134.722 38.9538 137.451 37.3507 140.998 37.3507ZM210.442 39.3973H209.111C208.839 36.3956 208.941 33.5644 209.418 30.9039C209.896 28.1751 210.953 25.992 212.591 24.3547C214.228 22.6492 216.547 21.7965 219.549 21.7965C222.551 21.7965 224.734 22.5469 226.098 24.0477C227.531 25.4804 228.247 27.527 228.247 30.1875C228.247 33.9397 227.429 37.146 225.791 39.8066L224.768 39.6019C227.497 38.3057 230.498 37.6576 233.773 37.6576C237.184 37.6576 239.913 38.4422 241.959 40.0112C244.006 41.5121 245.029 44.1044 245.029 47.7883C245.029 51.1993 243.836 53.8258 241.448 55.6677C239.128 57.4415 236.195 58.3283 232.647 58.3283C231.215 58.3283 229.68 58.2601 228.043 58.1237C226.474 57.919 224.904 57.612 223.335 57.2027L224.154 55.7701C224.973 57.9531 225.757 60.4432 226.508 63.2402C227.326 65.969 228.008 68.8001 228.554 71.7336C229.168 74.667 229.646 77.5664 229.987 80.4316C230.396 83.2287 230.601 85.7187 230.601 87.9017C230.601 92.2678 229.612 95.7129 227.633 98.2371C225.655 100.761 222.687 102.023 218.731 102.023C216.138 102.023 213.989 101.512 212.284 100.488C210.646 99.3968 209.35 97.9642 208.395 96.1905C207.44 94.4168 206.758 92.3702 206.349 90.0507C206.007 87.7312 205.837 85.3435 205.837 82.8876C205.837 80.3634 206.007 77.5664 206.349 74.4965C206.69 71.3584 207.201 68.1179 207.884 64.7751C208.634 61.3641 209.453 58.1237 210.339 55.0538L211.67 57.4074C209.146 59.1811 205.973 60.0679 202.153 60.0679C198.606 60.0679 195.809 59.2152 193.762 57.5097C191.784 55.8042 190.794 53.2118 190.794 49.7326C190.794 46.0487 191.886 43.2176 194.069 41.2392C196.252 39.1926 199.185 38.1693 202.869 38.1693C204.37 38.1693 205.769 38.3057 207.065 38.5786C208.361 38.7833 209.487 39.0562 210.442 39.3973ZM296.998 102.023C293.519 102.023 291.199 101.136 290.039 99.3627C288.88 97.5208 288.3 94.6214 288.3 90.6647L289.835 91.1763C286.151 98.6123 279.056 102.33 268.55 102.33C263.775 102.33 259.818 101.478 256.68 99.772C253.542 98.0665 251.188 95.8494 249.619 93.1206C248.118 90.3236 247.368 87.2537 247.368 83.9109C247.368 78.1804 249.448 73.6437 253.61 70.301C257.771 66.9582 263.297 65.2868 270.187 65.2868C274.485 65.2868 278.237 65.9349 281.444 67.2311C284.718 68.5272 287.447 70.3351 289.63 72.6546L286.765 72.4499C286.628 66.7194 285.503 62.6603 283.388 60.2726C281.273 57.8167 278.203 56.5887 274.178 56.5887C272.336 56.5887 270.426 56.8957 268.448 57.5097C266.469 58.0555 264.491 58.6353 262.513 59.2493C260.602 59.8633 258.658 60.1703 256.68 60.1703C254.224 60.1703 252.314 59.4881 250.949 58.1237C249.585 56.7593 248.903 54.9855 248.903 52.8025C248.903 49.8008 250.199 47.1061 252.791 44.7184C255.384 42.3307 258.795 40.4547 263.024 39.0903C267.322 37.6576 271.961 36.9413 276.941 36.9413C283.286 36.9413 288.777 38.2034 293.416 40.7275C298.124 43.2517 301.5 47.1061 303.547 52.2909C305.116 56.1794 306.208 60.5796 306.822 65.4914C307.504 70.3351 307.845 75.5198 307.845 81.0456C307.845 86.5715 307.47 90.8693 306.719 93.9392C306.037 96.9409 304.877 99.0557 303.24 100.284C301.671 101.443 299.59 102.023 296.998 102.023ZM276.327 88.0041C277.896 88.0041 279.499 87.7653 281.137 87.2878C282.774 86.742 284.138 85.9916 285.23 85.0365C286.39 84.0814 286.97 82.8876 286.97 81.4549C286.97 80.1588 286.526 79.1014 285.639 78.2827C284.752 77.3958 283.559 76.7819 282.058 76.4408C280.557 76.0314 278.954 75.8268 277.248 75.8268C274.246 75.8268 271.893 76.4067 270.187 77.5664C268.482 78.7261 267.629 80.227 267.629 82.0689C267.629 83.8426 268.414 85.2753 269.983 86.3668C271.552 87.4583 273.667 88.0041 276.327 88.0041ZM343.429 36.9413C350.456 36.9413 355.504 38.1352 358.574 40.5229C361.712 42.8424 363.281 45.8782 363.281 49.6303C363.281 51.8815 362.497 53.7576 360.928 55.2584C359.427 56.7593 357.278 57.5097 354.481 57.5097C352.366 57.5097 350.081 57.1686 347.625 56.4864C345.169 55.8042 342.372 55.4631 339.234 55.4631C337.255 55.4631 335.755 55.8383 334.731 56.5887C333.708 57.3391 333.196 58.2942 333.196 59.454C333.196 60.6137 333.708 61.5688 334.731 62.3192C335.755 63.0696 337.904 63.6154 341.178 63.9565C346.295 64.434 350.592 65.2868 354.072 66.5147C357.551 67.7427 360.177 69.6188 361.951 72.1429C363.725 74.5988 364.612 78.0098 364.612 82.3759C364.612 88.9933 362.19 93.8369 357.346 96.9068C352.503 99.9085 345.749 101.409 337.085 101.409C331.286 101.409 326.613 100.864 323.066 99.772C319.586 98.6805 317.062 97.1456 315.493 95.1672C313.924 93.1888 313.14 90.8693 313.14 88.2087C313.14 85.7528 313.958 83.8426 315.596 82.4782C317.301 81.0456 319.279 80.3293 321.531 80.3293C323.1 80.3293 324.771 80.534 326.545 80.9433C328.319 81.3526 330.195 81.796 332.173 82.2736C334.151 82.7511 336.164 82.9899 338.211 82.9899C341.963 82.9899 343.839 81.8643 343.839 79.613C343.839 78.8626 343.634 78.2145 343.225 77.6687C342.815 77.123 342.031 76.6454 340.871 76.2361C339.711 75.7586 337.938 75.3834 335.55 75.1105C331.047 74.6329 327.159 73.8825 323.884 72.8592C320.678 71.7677 318.154 70.0963 316.312 67.845C314.538 65.5256 313.651 62.3533 313.651 58.3283C313.651 51.9839 316.244 46.8332 321.428 42.8765C326.613 38.9197 333.947 36.9413 343.429 36.9413ZM383.944 121.364C378.964 121.364 376.474 118.533 376.474 112.87C376.474 110.483 377.156 107.754 378.521 104.684C379.953 101.682 381.898 98.6123 384.353 95.4742C386.878 92.2678 389.743 89.3003 392.949 86.5715L392.847 88.0041C384.729 80.9092 378.589 74.3601 374.427 68.3567C370.266 62.3533 368.185 56.5546 368.185 50.9606C368.185 47.1402 369.14 44.1727 371.051 42.0578C373.029 39.943 375.689 38.8856 379.032 38.8856C383.808 38.8856 388.071 41.785 391.824 47.5837C395.644 53.3142 398.68 61.944 400.931 73.4732H401.34C402.909 61.2618 405.365 52.2567 408.708 46.458C412.051 40.6593 416.008 37.76 420.578 37.76C423.307 37.76 425.354 38.6127 426.718 40.3182C428.151 42.0237 428.867 44.4455 428.867 47.5837C428.867 49.7667 428.492 52.4273 427.741 55.5654C426.991 58.7035 425.899 62.1828 424.467 66.0031C423.102 69.7552 421.431 73.712 419.453 77.8734C417.543 81.9666 415.394 86.0939 413.006 90.2553C406.798 101.034 401.443 108.914 396.94 113.894C392.438 118.874 388.106 121.364 383.944 121.364Z" fill="white"/>
<path fill-rule="evenodd" clip-rule="evenodd" d="M123.012 122.073C131.13 122.073 137.099 124.154 140.919 128.315C144.808 132.477 146.752 137.934 146.752 144.688C146.752 149.327 145.661 153.352 143.478 156.763C141.363 160.174 138.463 162.835 134.78 164.745C131.096 166.587 126.934 167.508 122.295 167.508C120.112 167.508 117.793 167.269 115.337 166.792C113.266 166.377 111.117 165.629 108.892 164.548C109.209 165.865 109.482 167.363 109.709 169.043C110.118 171.499 110.425 174.057 110.63 176.718C110.903 179.31 111.039 181.698 111.039 183.881C111.039 187.906 110.357 191.01 108.992 193.193C107.696 195.308 105.752 196.365 103.16 196.365C100.976 196.365 99.2369 195.683 97.9407 194.318C96.7127 192.954 95.86 190.703 95.3824 187.565C94.9049 184.426 94.6661 180.231 94.6661 174.978C94.6661 164.881 95.1096 156.286 95.9964 149.191C96.9515 142.028 98.5547 136.399 100.806 132.306C102.58 129.168 105.308 126.678 108.992 124.836C112.744 122.994 117.418 122.073 123.012 122.073Z" fill="black"/>
<path fill-rule="evenodd" clip-rule="evenodd" d="M226.927 132.204C228.769 132.204 230.304 133.295 231.532 135.478C232.491 137.131 233.221 139.553 233.723 142.746C234.991 140.248 236.683 138.201 238.797 136.604C242.14 134.08 246.097 132.818 250.668 132.818C254.897 132.818 258.649 133.909 261.924 136.092C265.198 138.276 267.757 141.584 269.599 146.018C271.509 150.385 272.464 155.876 272.464 162.494C272.464 173.204 270.52 181.118 266.631 186.234C262.811 191.283 257.592 193.807 250.975 193.807C246.199 193.807 242.447 192.783 239.718 190.737C238.092 189.517 236.757 188.14 235.712 186.606C236.037 189.363 236.315 192.104 236.546 194.83C236.955 198.787 237.16 202.266 237.16 205.268C237.16 208.338 236.614 210.93 235.523 213.045C234.431 215.16 232.692 216.217 230.304 216.217C227.984 216.217 226.245 215.33 225.085 213.556C223.925 211.783 223.073 209.429 222.527 206.496C222.117 203.494 221.708 199.639 221.299 194.932C220.889 190.225 220.548 185.143 220.275 179.685C220.071 174.228 219.968 168.906 219.968 163.722C219.968 158.4 220.139 153.42 220.48 148.781C220.889 144.074 221.367 140.254 221.913 137.32C222.39 135.615 223.004 134.353 223.755 133.534C224.573 132.647 225.631 132.204 226.927 132.204Z" fill="black"/>
<path fill-rule="evenodd" clip-rule="evenodd" d="M311.478 196.467C303.905 196.467 297.868 195.342 293.365 193.09C288.863 190.839 285.622 187.599 283.644 183.369C281.665 179.139 280.676 174.091 280.676 168.224C280.676 160.788 282.041 154.478 284.769 149.293C287.566 144.04 291.387 140.015 296.23 137.218C301.142 134.421 306.702 133.023 312.91 133.023C320.21 133.023 325.565 134.728 328.976 138.139C332.387 141.482 334.092 145.882 334.092 151.34C334.092 155.706 332.933 159.492 330.613 162.698C328.362 165.836 325.224 168.258 321.199 169.964C317.174 171.669 312.535 172.522 307.282 172.522C304.349 172.522 301.517 172.147 298.789 171.396C296.926 170.884 295.191 170.245 293.582 169.478C293.732 173.87 295.228 177.068 298.072 179.071C301.074 181.118 305.338 182.141 310.864 182.141C315.161 182.141 318.607 181.766 321.199 181.015C323.791 180.265 325.974 179.549 327.748 178.866C329.522 178.116 331.261 177.741 332.967 177.741C333.922 177.741 334.775 178.014 335.525 178.559C336.344 179.037 336.992 179.753 337.469 180.708C338.015 181.663 338.288 182.823 338.288 184.188C338.288 186.234 337.265 188.213 335.218 190.123C333.172 191.965 330.136 193.5 326.111 194.728C322.154 195.887 317.276 196.467 311.478 196.467ZM305.542 163.005C310.386 163.005 314.275 161.982 317.208 159.935C320.141 157.889 321.608 155.365 321.608 152.363C321.608 149.975 320.79 148.031 319.152 146.53C317.583 144.961 315.093 144.177 311.682 144.177C308.476 144.177 305.576 144.791 302.984 146.018C300.46 147.178 298.482 148.713 297.049 150.623C295.616 152.534 294.9 154.614 294.9 156.865C294.9 158.844 295.821 160.379 297.663 161.47C299.573 162.494 302.2 163.005 305.542 163.005Z" fill="black"/>
<path fill-rule="evenodd" clip-rule="evenodd" d="M166.052 193.09C170.555 195.342 176.592 196.467 184.164 196.467C189.963 196.467 194.841 195.887 198.798 194.728C202.823 193.5 205.858 191.965 207.905 190.123C209.952 188.213 210.975 186.234 210.975 184.188C210.975 182.823 210.702 181.663 210.156 180.708C209.679 179.753 209.031 179.037 208.212 178.559C207.462 178.014 206.609 177.741 205.654 177.741C203.948 177.741 202.209 178.116 200.435 178.866C198.661 179.549 196.478 180.265 193.886 181.015C191.293 181.766 187.848 182.141 183.55 182.141C178.025 182.141 173.761 181.118 170.759 179.071C167.915 177.068 166.419 173.87 166.269 169.478C167.877 170.245 169.613 170.884 171.476 171.396C174.204 172.147 177.035 172.522 179.969 172.522C185.222 172.522 189.861 171.669 193.886 169.964C197.911 168.258 201.049 165.836 203.3 162.698C205.62 159.492 206.779 155.706 206.779 151.34C206.779 145.882 205.074 141.482 201.663 138.139C198.252 134.728 192.897 133.023 185.597 133.023C179.389 133.023 173.829 134.421 168.917 137.218C164.074 140.015 160.253 144.04 157.456 149.293C154.728 154.478 153.363 160.788 153.363 168.224C153.363 174.091 154.352 179.139 156.331 183.369C158.309 187.599 161.549 190.839 166.052 193.09ZM189.895 159.935C186.962 161.982 183.073 163.005 178.229 163.005C174.887 163.005 172.26 162.494 170.35 161.47C168.508 160.379 167.587 158.844 167.587 156.865C167.587 154.614 168.303 152.534 169.736 150.623C171.169 148.713 173.147 147.178 175.671 146.018C178.263 144.791 181.163 144.177 184.369 144.177C187.78 144.177 190.27 144.961 191.839 146.53C193.477 148.031 194.295 149.975 194.295 152.363C194.295 155.365 192.828 157.889 189.895 159.935Z" fill="black"/>
<path fill-rule="evenodd" clip-rule="evenodd" d="M123.012 122.073C131.13 122.073 137.099 124.154 140.919 128.315C144.808 132.477 146.752 137.934 146.752 144.688C146.752 149.327 145.661 153.352 143.478 156.763C141.363 160.174 138.463 162.835 134.78 164.745C131.096 166.587 126.934 167.508 122.295 167.508C120.112 167.508 117.793 167.269 115.337 166.792C113.266 166.377 111.117 165.629 108.892 164.548C109.209 165.865 109.482 167.363 109.709 169.043C110.118 171.499 110.425 174.057 110.63 176.718C110.903 179.31 111.039 181.698 111.039 183.881C111.039 187.906 110.357 191.01 108.992 193.193C107.696 195.308 105.752 196.365 103.16 196.365C100.976 196.365 99.2369 195.683 97.9407 194.318C96.7127 192.954 95.86 190.703 95.3824 187.565C94.9049 184.426 94.6661 180.231 94.6661 174.978C94.6661 164.881 95.1096 156.286 95.9964 149.191C96.9515 142.028 98.5547 136.399 100.806 132.306C102.58 129.168 105.308 126.678 108.992 124.836C112.744 122.994 117.418 122.073 123.012 122.073Z" stroke="black" stroke-width="21.1718"/>
<path fill-rule="evenodd" clip-rule="evenodd" d="M226.927 132.204C228.769 132.204 230.304 133.295 231.532 135.478C232.491 137.131 233.221 139.553 233.723 142.746C234.991 140.248 236.683 138.201 238.797 136.604C242.14 134.08 246.097 132.818 250.668 132.818C254.897 132.818 258.649 133.909 261.924 136.092C265.198 138.276 267.757 141.584 269.599 146.018C271.509 150.385 272.464 155.876 272.464 162.494C272.464 173.204 270.52 181.118 266.631 186.234C262.811 191.283 257.592 193.807 250.975 193.807C246.199 193.807 242.447 192.783 239.718 190.737C238.092 189.517 236.757 188.14 235.712 186.606C236.037 189.363 236.315 192.104 236.546 194.83C236.955 198.787 237.16 202.266 237.16 205.268C237.16 208.338 236.614 210.93 235.523 213.045C234.431 215.16 232.692 216.217 230.304 216.217C227.984 216.217 226.245 215.33 225.085 213.556C223.925 211.783 223.073 209.429 222.527 206.496C222.117 203.494 221.708 199.639 221.299 194.932C220.889 190.225 220.548 185.143 220.275 179.685C220.071 174.228 219.968 168.906 219.968 163.722C219.968 158.4 220.139 153.42 220.48 148.781C220.889 144.074 221.367 140.254 221.913 137.32C222.39 135.615 223.004 134.353 223.755 133.534C224.573 132.647 225.631 132.204 226.927 132.204Z" stroke="black" stroke-width="21.1718"/>
<path fill-rule="evenodd" clip-rule="evenodd" d="M311.478 196.467C303.905 196.467 297.868 195.342 293.365 193.09C288.863 190.839 285.622 187.599 283.644 183.369C281.665 179.139 280.676 174.091 280.676 168.224C280.676 160.788 282.041 154.478 284.769 149.293C287.566 144.04 291.387 140.015 296.23 137.218C301.142 134.421 306.702 133.023 312.91 133.023C320.21 133.023 325.565 134.728 328.976 138.139C332.387 141.482 334.092 145.882 334.092 151.34C334.092 155.706 332.933 159.492 330.613 162.698C328.362 165.836 325.224 168.258 321.199 169.964C317.174 171.669 312.535 172.522 307.282 172.522C304.349 172.522 301.517 172.147 298.789 171.396C296.926 170.884 295.191 170.245 293.582 169.478C293.732 173.87 295.228 177.068 298.072 179.071C301.074 181.118 305.338 182.141 310.864 182.141C315.161 182.141 318.607 181.766 321.199 181.015C323.791 180.265 325.974 179.549 327.748 178.866C329.522 178.116 331.261 177.741 332.967 177.741C333.922 177.741 334.775 178.014 335.525 178.559C336.344 179.037 336.992 179.753 337.469 180.708C338.015 181.663 338.288 182.823 338.288 184.188C338.288 186.234 337.265 188.213 335.218 190.123C333.172 191.965 330.136 193.5 326.111 194.728C322.154 195.887 317.276 196.467 311.478 196.467ZM305.542 163.005C310.386 163.005 314.275 161.982 317.208 159.935C320.141 157.889 321.608 155.365 321.608 152.363C321.608 149.975 320.79 148.031 319.152 146.53C317.583 144.961 315.093 144.177 311.682 144.177C308.476 144.177 305.576 144.791 302.984 146.018C300.46 147.178 298.482 148.713 297.049 150.623C295.616 152.534 294.9 154.614 294.9 156.865C294.9 158.844 295.821 160.379 297.663 161.47C299.573 162.494 302.2 163.005 305.542 163.005Z" stroke="black" stroke-width="21.1718"/>
<path fill-rule="evenodd" clip-rule="evenodd" d="M166.052 193.09C170.555 195.342 176.592 196.467 184.164 196.467C189.963 196.467 194.841 195.887 198.798 194.728C202.823 193.5 205.858 191.965 207.905 190.123C209.952 188.213 210.975 186.234 210.975 184.188C210.975 182.823 210.702 181.663 210.156 180.708C209.679 179.753 209.031 179.037 208.212 178.559C207.462 178.014 206.609 177.741 205.654 177.741C203.948 177.741 202.209 178.116 200.435 178.866C198.661 179.549 196.478 180.265 193.886 181.015C191.293 181.766 187.848 182.141 183.55 182.141C178.025 182.141 173.761 181.118 170.759 179.071C167.915 177.068 166.419 173.87 166.269 169.478C167.877 170.245 169.613 170.884 171.476 171.396C174.204 172.147 177.035 172.522 179.969 172.522C185.222 172.522 189.861 171.669 193.886 169.964C197.911 168.258 201.049 165.836 203.3 162.698C205.62 159.492 206.779 155.706 206.779 151.34C206.779 145.882 205.074 141.482 201.663 138.139C198.252 134.728 192.897 133.023 185.597 133.023C179.389 133.023 173.829 134.421 168.917 137.218C164.074 140.015 160.253 144.04 157.456 149.293C154.728 154.478 153.363 160.788 153.363 168.224C153.363 174.091 154.352 179.139 156.331 183.369C158.309 187.599 161.549 190.839 166.052 193.09ZM189.895 159.935C186.962 161.982 183.073 163.005 178.229 163.005C174.887 163.005 172.26 162.494 170.35 161.47C168.508 160.379 167.587 158.844 167.587 156.865C167.587 154.614 168.303 152.534 169.736 150.623C171.169 148.713 173.147 147.178 175.671 146.018C178.263 144.791 181.163 144.177 184.369 144.177C187.78 144.177 190.27 144.961 191.839 146.53C193.477 148.031 194.295 149.975 194.295 152.363C194.295 155.365 192.828 157.889 189.895 159.935Z" stroke="black" stroke-width="21.1718"/>
<path d="M120.758 115.64C129.558 115.64 136.039 117.721 140.2 121.883C144.362 126.044 146.443 131.502 146.443 138.255C146.443 142.894 145.351 146.919 143.168 150.33C141.053 153.741 138.154 156.402 134.47 158.312C130.786 160.154 126.625 161.075 121.986 161.075C120.212 161.075 118.336 160.904 116.357 160.563C114.379 160.222 112.333 159.608 110.218 158.721L111.036 156.266C111.582 157.835 112.026 159.779 112.367 162.098C112.776 164.35 113.083 166.703 113.288 169.159C113.56 171.547 113.697 173.764 113.697 175.811C113.697 180.381 112.674 183.895 110.627 186.351C108.58 188.738 105.51 189.932 101.417 189.932C98.2792 189.932 95.8232 189.148 94.0495 187.579C92.2758 185.941 91.0137 183.315 90.2633 179.699C89.5811 176.015 89.24 171.137 89.24 165.066C89.24 156.129 89.7517 148.488 90.775 142.144C91.7983 135.799 93.3332 130.751 95.3798 126.999C97.3582 123.52 100.496 120.757 104.794 118.71C109.092 116.664 114.413 115.64 120.758 115.64ZM118.097 147.056C121.645 147.056 124.578 146.135 126.897 144.293C129.217 142.451 130.377 139.893 130.377 136.618C130.377 134.503 129.695 132.764 128.33 131.399C126.966 129.967 124.714 129.25 121.576 129.25C119.189 129.25 117.074 129.762 115.232 130.785C113.39 131.809 111.957 133.173 110.934 134.879C109.979 136.516 109.501 138.358 109.501 140.404C109.501 142.451 110.218 144.088 111.65 145.316C113.083 146.476 115.232 147.056 118.097 147.056ZM183.325 190.034C175.138 190.034 168.623 188.909 163.78 186.658C158.936 184.406 155.423 181.166 153.24 176.936C151.056 172.707 149.965 167.658 149.965 161.791C149.965 154.355 151.466 148.045 154.467 142.86C157.537 137.607 161.699 133.582 166.952 130.785C172.273 127.988 178.276 126.59 184.962 126.59C192.944 126.59 198.776 128.227 202.46 131.502C206.212 134.776 208.088 139.074 208.088 144.395C208.088 148.625 206.929 152.275 204.609 155.345C202.358 158.414 199.186 160.802 195.093 162.508C191.068 164.145 186.394 164.964 181.073 164.964C178.549 164.964 176.059 164.759 173.603 164.35C171.216 163.872 169.032 163.258 167.054 162.508L169.51 157.084C169.305 158.721 169.203 160.359 169.203 161.996C169.203 165.407 170.397 167.829 172.785 169.261C175.172 170.694 178.481 171.41 182.711 171.41C186.531 171.41 189.737 171.035 192.33 170.285C194.922 169.466 197.173 168.682 199.083 167.931C201.062 167.181 202.904 166.806 204.609 166.806C205.769 166.806 206.929 167.113 208.088 167.726C209.316 168.272 210.306 169.159 211.056 170.387C211.875 171.615 212.284 173.218 212.284 175.197C212.284 177.925 211.158 180.415 208.907 182.667C206.724 184.918 203.484 186.726 199.186 188.09C194.888 189.386 189.601 190.034 183.325 190.034ZM177.389 154.935C181.073 154.935 184.177 154.082 186.701 152.377C189.226 150.603 190.488 148.488 190.488 146.033C190.488 144.259 189.874 142.826 188.646 141.735C187.418 140.643 185.644 140.097 183.325 140.097C180.937 140.097 178.72 140.575 176.673 141.53C174.627 142.417 172.989 143.577 171.761 145.009C170.533 146.442 169.919 148.045 169.919 149.819C169.919 151.456 170.567 152.718 171.864 153.605C173.228 154.492 175.07 154.935 177.389 154.935ZM226.472 125.771C228.996 125.771 231.077 126.897 232.714 129.148C234.351 131.399 235.511 134.947 236.193 139.79L234.044 141.121C235.272 136.345 237.558 132.695 240.9 130.171C244.243 127.647 248.2 126.385 252.771 126.385C257.137 126.385 260.991 127.477 264.334 129.66C267.677 131.843 270.303 135.151 272.213 139.586C274.124 143.952 275.079 149.444 275.079 156.061C275.079 166.771 273.1 174.685 269.144 179.801C265.187 184.85 259.832 187.374 253.078 187.374C248.507 187.374 244.891 186.351 242.231 184.304C239.57 182.257 237.728 179.767 236.705 176.834L237.933 176.22C238.479 180.108 238.922 183.963 239.263 187.783C239.672 191.535 239.877 194.844 239.877 197.709C239.877 201.052 239.059 203.883 237.421 206.203C235.852 208.59 233.328 209.784 229.849 209.784C226.642 209.784 224.187 208.693 222.481 206.51C220.776 204.395 219.582 201.495 218.899 197.812C218.49 194.946 218.081 191.297 217.672 186.862C217.262 182.428 216.921 177.653 216.648 172.536C216.444 167.351 216.341 162.269 216.341 157.289C216.341 152.309 216.512 147.636 216.853 143.27C217.262 138.904 217.74 135.356 218.285 132.627C218.899 130.308 219.889 128.602 221.253 127.511C222.686 126.351 224.425 125.771 226.472 125.771ZM245.812 142.246C242.947 142.246 240.662 143.645 238.956 146.442C237.251 149.239 236.398 152.855 236.398 157.289C236.398 161.86 237.251 165.271 238.956 167.522C240.662 169.773 242.879 170.899 245.608 170.899C248.882 170.899 251.202 169.637 252.566 167.113C253.999 164.52 254.715 161.211 254.715 157.186C254.715 152.002 253.828 148.216 252.054 145.828C250.281 143.44 248.2 142.246 245.812 142.246ZM312.736 190.034C304.55 190.034 298.035 188.909 293.191 186.658C288.348 184.406 284.834 181.166 282.651 176.936C280.468 172.707 279.377 167.658 279.377 161.791C279.377 154.355 280.877 148.045 283.879 142.86C286.949 137.607 291.11 133.582 296.363 130.785C301.685 127.988 307.688 126.59 314.373 126.59C322.355 126.59 328.188 128.227 331.872 131.502C335.624 134.776 337.5 139.074 337.5 144.395C337.5 148.625 336.34 152.275 334.021 155.345C331.77 158.414 328.597 160.802 324.504 162.508C320.479 164.145 315.806 164.964 310.485 164.964C307.961 164.964 305.471 164.759 303.015 164.35C300.627 163.872 298.444 163.258 296.466 162.508L298.922 157.084C298.717 158.721 298.615 160.359 298.615 161.996C298.615 165.407 299.808 167.829 302.196 169.261C304.584 170.694 307.893 171.41 312.122 171.41C315.943 171.41 319.149 171.035 321.741 170.285C324.334 169.466 326.585 168.682 328.495 167.931C330.473 167.181 332.315 166.806 334.021 166.806C335.181 166.806 336.34 167.113 337.5 167.726C338.728 168.272 339.717 169.159 340.468 170.387C341.286 171.615 341.696 173.218 341.696 175.197C341.696 177.925 340.57 180.415 338.319 182.667C336.136 184.918 332.895 186.726 328.597 188.09C324.3 189.386 319.012 190.034 312.736 190.034ZM306.801 154.935C310.485 154.935 313.589 154.082 316.113 152.377C318.637 150.603 319.899 148.488 319.899 146.033C319.899 144.259 319.285 142.826 318.057 141.735C316.829 140.643 315.056 140.097 312.736 140.097C310.348 140.097 308.131 140.575 306.085 141.53C304.038 142.417 302.401 143.577 301.173 145.009C299.945 146.442 299.331 148.045 299.331 149.819C299.331 151.456 299.979 152.718 301.275 153.605C302.64 154.492 304.482 154.935 306.801 154.935Z" fill="white"/>
</svg>
