<svg width="35" height="35" viewBox="0 0 35 35" fill="none" xmlns="http://www.w3.org/2000/svg">
<rect x="1.5" y="1.21631" width="32" height="32" rx="16" fill="white"/>
<rect x="1.5" y="1.21631" width="32" height="32" rx="16" stroke="black" stroke-width="2"/>
<g clip-path="url(#clip0_168_5639)">
<path d="M17.6006 7.94141C14.9939 7.94141 14.6662 7.95293 13.6422 7.99901C12.6208 8.04701 11.9232 8.20893 11.3126 8.44637C10.6717 8.68715 10.0912 9.06502 9.61152 9.55357C9.12342 10.0331 8.7456 10.6131 8.50432 11.2534C8.26496 11.8633 8.10304 12.5609 8.0576 13.5824C8.0128 14.607 8 14.9347 8 17.5414C8 20.1481 8.01152 20.4745 8.0576 21.4985C8.10496 22.5206 8.26688 23.2182 8.50432 23.8288C8.74528 24.4694 9.12314 25.0497 9.61152 25.5292C10.0907 26.0179 10.6709 26.396 11.3114 26.6371C11.9219 26.8745 12.6202 27.0364 13.6416 27.0832C14.6656 27.1299 14.9926 27.1414 17.5994 27.1414C20.2074 27.1414 20.5331 27.1299 21.5571 27.0838C22.5792 27.0364 23.2781 26.8745 23.8886 26.6371C24.5289 26.3961 25.1088 26.0183 25.5878 25.5299C26.0763 25.05 26.4543 24.4695 26.6957 23.8288C26.9325 23.2182 27.0938 22.5206 27.1418 21.4992C27.1878 20.4752 27.2 20.1488 27.2 17.5414C27.2 14.934 27.1878 14.607 27.1424 13.583C27.0938 12.5609 26.9318 11.8633 26.6957 11.2534C26.4546 10.6127 26.0768 10.0322 25.5885 9.55229C25.1092 9.06358 24.5288 8.68568 23.888 8.44509C23.2762 8.20829 22.5779 8.04637 21.5558 7.99965C20.5318 7.95293 20.2054 7.94141 17.5981 7.94141H17.6H17.6006ZM16.7398 9.67133H17.6C20.1632 9.67133 20.4672 9.68029 21.4797 9.72637C22.4154 9.76925 22.9235 9.92605 23.2621 10.0572C23.7101 10.2313 24.0294 10.4393 24.3654 10.7753C24.7008 11.1113 24.9094 11.4313 25.0835 11.8793C25.2147 12.2172 25.3715 12.7254 25.4144 13.6611C25.4605 14.6729 25.4701 14.9769 25.4701 17.5395C25.4701 20.1014 25.4605 20.4054 25.4144 21.4172C25.3715 22.3529 25.2147 22.8611 25.0835 23.199C24.9297 23.6157 24.6843 23.9925 24.3654 24.3017C24.056 24.6206 23.679 24.866 23.2621 25.0198C22.9242 25.1523 22.4154 25.3078 21.4797 25.3507C20.4678 25.3968 20.1632 25.407 17.6 25.407C15.0368 25.407 14.7328 25.3968 13.7216 25.3507C12.7853 25.3078 12.2771 25.151 11.9386 25.0198C11.4906 24.8457 11.1706 24.6377 10.8346 24.3017C10.5156 23.9922 10.27 23.6152 10.1158 23.1984C9.98464 22.8604 9.82784 22.3523 9.7856 21.4166C9.73952 20.4041 9.72992 20.1001 9.72992 17.5369C9.72992 14.9731 9.73952 14.671 9.7856 13.6585C9.82848 12.7228 9.984 12.2147 10.1158 11.8761C10.2899 11.4281 10.4986 11.1081 10.8346 10.7721C11.1444 10.4534 11.5216 10.2081 11.9386 10.054C12.2771 9.92221 12.7853 9.76605 13.721 9.72317C14.6067 9.68285 14.9498 9.67133 16.7392 9.66877V9.67133H16.7398ZM22.7251 11.2649C22.5738 11.2649 22.4239 11.2947 22.284 11.3527C22.1442 11.4106 22.0171 11.4955 21.9101 11.6025C21.803 11.7096 21.7181 11.8366 21.6602 11.9765C21.6023 12.1163 21.5725 12.2662 21.5725 12.4176C21.5725 12.5689 21.6023 12.7188 21.6602 12.8587C21.7181 12.9985 21.803 13.1256 21.9101 13.2326C22.0171 13.3396 22.1442 13.4245 22.284 13.4825C22.4239 13.5404 22.5738 13.5702 22.7251 13.5702C23.0308 13.5702 23.324 13.4488 23.5402 13.2326C23.7563 13.0164 23.8778 12.7233 23.8778 12.4176C23.8778 12.1119 23.7563 11.8187 23.5402 11.6025C23.324 11.3864 23.0308 11.2649 22.7251 11.2649ZM17.6006 12.6115C16.2931 12.6115 15.039 13.1309 14.1144 14.0555C13.1898 14.9801 12.6704 16.2341 12.6704 17.5417C12.6704 18.8493 13.1898 20.1033 14.1144 21.0279C15.039 21.9525 16.2931 22.472 17.6006 22.472C18.9082 22.472 20.1622 21.9525 21.0868 21.0279C22.0114 20.1033 22.5309 18.8493 22.5309 17.5417C22.5309 16.2341 22.0114 14.9801 21.0868 14.0555C20.1622 13.1309 18.9082 12.6115 17.6006 12.6115ZM17.6006 14.3414C18.4493 14.3414 19.2633 14.6785 19.8634 15.2787C20.4635 15.8788 20.8006 16.6927 20.8006 17.5414C20.8006 18.3901 20.4635 19.204 19.8634 19.8041C19.2633 20.4043 18.4493 20.7414 17.6006 20.7414C16.7519 20.7414 15.938 20.4043 15.3379 19.8041C14.7378 19.204 14.4006 18.3901 14.4006 17.5414C14.4006 16.6927 14.7378 15.8788 15.3379 15.2787C15.938 14.6785 16.7519 14.3414 17.6006 14.3414Z" fill="black"/>
</g>
<defs>
<clipPath id="clip0_168_5639">
<rect width="20" height="20" fill="white" transform="translate(7.5 7.21631)"/>
</clipPath>
</defs>
</svg>
