<svg width="35" height="35" viewBox="0 0 35 35" fill="none" xmlns="http://www.w3.org/2000/svg">
<rect x="1.5" y="1.27502" width="32" height="32" rx="16" fill="white"/>
<rect x="1.5" y="1.27502" width="32" height="32" rx="16" stroke="black" stroke-width="2"/>
<g clip-path="url(#clip0_130_2907)">
<path d="M17.6006 8C14.9939 8 14.6662 8.01152 13.6422 8.0576C12.6208 8.1056 11.9232 8.26752 11.3126 8.50496C10.6717 8.74574 10.0912 9.12362 9.61152 9.61216C9.12342 10.0917 8.7456 10.6717 8.50432 11.312C8.26496 11.9219 8.10304 12.6195 8.0576 13.641C8.0128 14.6656 8 14.9933 8 17.6C8 20.2067 8.01152 20.5331 8.0576 21.5571C8.10496 22.5792 8.26688 23.2768 8.50432 23.8874C8.74528 24.528 9.12314 25.1083 9.61152 25.5878C10.0907 26.0765 10.6709 26.4545 11.3114 26.6957C11.9219 26.9331 12.6202 27.095 13.6416 27.1418C14.6656 27.1885 14.9926 27.2 17.5994 27.2C20.2074 27.2 20.5331 27.1885 21.5571 27.1424C22.5792 27.095 23.2781 26.9331 23.8886 26.6957C24.5289 26.4547 25.1088 26.0769 25.5878 25.5885C26.0763 25.1086 26.4543 24.5281 26.6957 23.8874C26.9325 23.2768 27.0938 22.5792 27.1418 21.5578C27.1878 20.5338 27.2 20.2074 27.2 17.6C27.2 14.9926 27.1878 14.6656 27.1424 13.6416C27.0938 12.6195 26.9318 11.9219 26.6957 11.312C26.4546 10.6713 26.0768 10.0907 25.5885 9.61088C25.1092 9.12218 24.5288 8.74427 23.888 8.50368C23.2762 8.26688 22.5779 8.10496 21.5558 8.05824C20.5318 8.01152 20.2054 8 17.5981 8H17.6H17.6006ZM16.7398 9.72992H17.6C20.1632 9.72992 20.4672 9.73888 21.4797 9.78496C22.4154 9.82784 22.9235 9.98464 23.2621 10.1158C23.7101 10.2899 24.0294 10.4979 24.3654 10.8339C24.7008 11.1699 24.9094 11.4899 25.0835 11.9379C25.2147 12.2758 25.3715 12.784 25.4144 13.7197C25.4605 14.7315 25.4701 15.0355 25.4701 17.5981C25.4701 20.16 25.4605 20.464 25.4144 21.4758C25.3715 22.4115 25.2147 22.9197 25.0835 23.2576C24.9297 23.6743 24.6843 24.0511 24.3654 24.3603C24.056 24.6792 23.679 24.9246 23.2621 25.0784C22.9242 25.2109 22.4154 25.3664 21.4797 25.4093C20.4678 25.4554 20.1632 25.4656 17.6 25.4656C15.0368 25.4656 14.7328 25.4554 13.7216 25.4093C12.7853 25.3664 12.2771 25.2096 11.9386 25.0784C11.4906 24.9043 11.1706 24.6963 10.8346 24.3603C10.5156 24.0508 10.27 23.6738 10.1158 23.257C9.98464 22.919 9.82784 22.4109 9.7856 21.4752C9.73952 20.4627 9.72992 20.1587 9.72992 17.5955C9.72992 15.0317 9.73952 14.7296 9.7856 13.7171C9.82848 12.7814 9.984 12.2733 10.1158 11.9347C10.2899 11.4867 10.4986 11.1667 10.8346 10.8307C11.1444 10.512 11.5216 10.2666 11.9386 10.1126C12.2771 9.9808 12.7853 9.82464 13.721 9.78176C14.6067 9.74144 14.9498 9.72992 16.7392 9.72736V9.72992H16.7398ZM22.7251 11.3235C22.5738 11.3235 22.4239 11.3533 22.284 11.4113C22.1442 11.4692 22.0171 11.5541 21.9101 11.6611C21.803 11.7682 21.7181 11.8952 21.6602 12.0351C21.6023 12.1749 21.5725 12.3248 21.5725 12.4762C21.5725 12.6275 21.6023 12.7774 21.6602 12.9173C21.7181 13.0571 21.803 13.1842 21.9101 13.2912C22.0171 13.3982 22.1442 13.4831 22.284 13.5411C22.4239 13.599 22.5738 13.6288 22.7251 13.6288C23.0308 13.6288 23.324 13.5074 23.5402 13.2912C23.7563 13.075 23.8778 12.7819 23.8778 12.4762C23.8778 12.1705 23.7563 11.8773 23.5402 11.6611C23.324 11.445 23.0308 11.3235 22.7251 11.3235ZM17.6006 12.6701C16.2931 12.6701 15.039 13.1895 14.1144 14.1141C13.1898 15.0387 12.6704 16.2927 12.6704 17.6003C12.6704 18.9079 13.1898 20.1619 14.1144 21.0865C15.039 22.0111 16.2931 22.5306 17.6006 22.5306C18.9082 22.5306 20.1622 22.0111 21.0868 21.0865C22.0114 20.1619 22.5309 18.9079 22.5309 17.6003C22.5309 16.2927 22.0114 15.0387 21.0868 14.1141C20.1622 13.1895 18.9082 12.6701 17.6006 12.6701ZM17.6006 14.4C18.4493 14.4 19.2633 14.7371 19.8634 15.3373C20.4635 15.9374 20.8006 16.7513 20.8006 17.6C20.8006 18.4487 20.4635 19.2626 19.8634 19.8627C19.2633 20.4629 18.4493 20.8 17.6006 20.8C16.7519 20.8 15.938 20.4629 15.3379 19.8627C14.7378 19.2626 14.4006 18.4487 14.4006 17.6C14.4006 16.7513 14.7378 15.9374 15.3379 15.3373C15.938 14.7371 16.7519 14.4 17.6006 14.4Z" fill="black"/>
</g>
<defs>
<clipPath id="clip0_130_2907">
<rect width="20" height="20" fill="white" transform="translate(7.5 7.27502)"/>
</clipPath>
</defs>
</svg>
