<svg width="243" height="48" viewBox="0 0 243 48" fill="none" xmlns="http://www.w3.org/2000/svg">
<mask id="path-1-outside-1_1020_303" maskUnits="userSpaceOnUse" x="0.84668" y="3.60864" width="242" height="44" fill="black">
<rect fill="white" x="0.84668" y="3.60864" width="242" height="44"/>
<path d="M157.664 44.0127C154.001 44.0127 151.312 43.307 149.531 41.8955C148.019 40.7529 147.179 38.9718 147.179 37.0562H154.471C154.807 38.4677 155.412 39.2742 157.765 39.2742C160.352 39.2742 161.428 37.8627 161.428 34.6701V31.8472H161.293C160.386 34.166 158.034 35.6111 155.513 35.3759C149.497 35.3759 146.439 31.948 146.439 25.2603C146.305 22.4037 147.279 19.648 149.161 17.4972C150.842 15.7496 153.194 14.775 155.648 14.8086C158 14.5734 160.285 15.7832 161.394 17.8668H161.529V15.2791H168.72V33.998C168.72 37.4258 167.88 39.8791 166.133 41.425C164.251 43.1726 161.529 44.0127 157.664 44.0127ZM157.899 19.8832C155.547 19.8832 154.135 21.8996 154.135 25.2939C154.135 28.8226 155.412 30.7045 157.765 30.7045C159.781 30.7045 161.394 29.0578 161.394 27.0414V24.3529C161.394 21.53 160.117 19.8832 157.899 19.8832ZM89.1737 36.9218C86.586 37.157 84.0319 36.4849 81.8811 35.0398C80.4696 33.83 79.6295 32.0824 79.5287 30.2004H86.25C86.3844 31.6119 87.3254 32.3177 89.0729 32.3177C90.7196 32.3177 91.7614 31.7127 91.7614 30.5701C91.7614 29.6291 91.1565 29.1586 89.6442 28.9234L86.2164 28.4529C82.1164 27.9824 79.8647 25.63 79.8647 21.9668C79.8311 20.0849 80.6041 18.3037 81.9819 17.0267C86.0483 14.2037 91.4254 14.0693 95.6262 16.6906C97.0377 17.8668 97.8442 19.5808 97.8442 21.3955H91.2237C91.1901 20.1857 90.1819 19.2447 89.0057 19.2783H88.8713C86.9893 19.2783 86.6196 20.1185 86.6196 20.925C86.6196 21.7316 86.9557 22.3365 88.636 22.5718L92.2991 23.0423C93.9123 23.1095 95.4582 23.748 96.668 24.7898C97.8442 25.9324 98.4491 27.5455 98.3147 29.1586C98.6172 33.998 94.9541 36.9554 89.1737 36.9218ZM68.0016 36.8209C61.1795 36.8209 57.2811 32.8218 57.2811 25.6299C57.1803 22.7398 58.1885 19.9168 60.1041 17.7324C62.1877 15.6824 65.0778 14.607 68.0016 14.775C71.6647 14.775 74.4877 15.8168 76.2352 17.8332C78.0163 20.1185 78.9237 22.9414 78.8229 25.8316V27.4783H64.809C65.0442 30.5365 65.9852 31.948 68.2368 31.948C69.5811 32.1832 70.8918 31.3095 71.1942 29.9316H78.6213C78.1172 34.3341 74.4541 36.8209 68.0016 36.8209ZM68.0016 19.2783C65.9852 19.2783 65.0442 20.6898 64.809 23.5127H71.1606V23.2775C70.9254 20.589 69.8836 19.2783 68.0016 19.2783ZM202.966 36.7201C200.68 36.8545 198.462 35.9808 196.849 34.3677C195.303 32.5865 194.497 30.2677 194.598 27.8816C194.463 25.5627 195.27 23.2775 196.849 21.53C198.496 19.9504 200.68 19.1103 202.966 19.1775C208.141 19.1775 211.334 22.4709 211.334 27.8816C211.334 33.2922 208.007 36.7201 202.966 36.7201ZM202.966 22.6054C200.243 22.6054 199.672 25.5627 199.672 28.016C199.672 31.6791 200.848 33.4267 202.966 33.4267C205.083 33.4267 206.259 31.5447 206.259 28.016C206.259 24.4873 205.083 22.6054 202.966 22.6054ZM186.129 36.7201C183.843 36.8545 181.625 35.9808 180.012 34.3677C178.534 32.5865 177.761 30.3349 177.895 28.016C177.895 22.6054 181.088 19.3119 186.263 19.3119C190.968 19.3119 193.791 21.6644 193.925 25.6636H189.12C189.019 24.2521 188.414 22.6054 186.297 22.6054C183.339 22.6054 183.003 25.9996 183.003 28.016C183.003 31.6791 184.079 33.4267 186.297 33.4267C187.91 33.4267 189.22 32.1496 189.254 30.5365C189.254 30.5029 189.254 30.5029 189.254 30.4693V30.1332H193.959C193.959 32.0488 193.152 33.83 191.707 35.107C190.027 36.1824 188.111 36.7537 186.129 36.7201ZM107.052 36.5857C105.238 36.7537 103.423 36.216 101.978 35.0734C100.566 33.5947 99.827 31.5783 99.9614 29.5283V9.53241H107.288V15.3127H111.657V20.4882H107.422V28.1504C107.422 30.3685 108.128 31.2086 110.144 31.2086C110.615 31.2422 111.085 31.175 111.556 31.0742V36.3504C110.01 36.4513 108.598 36.5857 107.052 36.5857ZM228.607 36.2496H223.667V26.4701C223.768 25.5291 223.6 24.6218 223.197 23.7816C222.726 23.0759 221.92 22.7062 221.079 22.8406C219.063 22.8406 217.887 24.2521 217.887 26.6045V36.2496H212.947V19.648H217.652V22.3701C218.626 20.4209 220.643 19.2111 222.827 19.3119C225.65 19.3119 227.297 20.4881 228.002 22.7398H228.103C229.044 20.589 231.195 19.2447 233.514 19.3119C237.278 19.3119 239.059 21.3283 239.059 25.4283V36.2496H234.119V26.5037C234.22 25.5627 234.052 24.6554 233.648 23.8152C233.178 23.1095 232.371 22.7398 231.531 22.8742C229.515 22.8742 228.339 24.2857 228.339 26.6381L228.607 36.2496ZM130.947 36.2496H123.419V15.3127H130.711V18.707H130.846C132.157 16.2201 134.845 14.7078 137.668 14.9431C140.357 14.9431 142.272 15.6488 143.448 17.0603C144.658 18.875 145.196 21.0259 144.961 23.1767V36.2496H137.433V24.3529C137.534 23.3111 137.332 22.2357 136.828 21.2947C136.29 20.5554 135.383 20.1521 134.475 20.2529C132.257 20.2529 131.081 21.6644 131.081 24.4873L130.947 36.2496ZM21.9606 36.2496H14.4327V15.3127H21.7254V18.707H21.8262C23.1368 16.2201 25.8254 14.7078 28.6483 14.9431C31.3368 14.9431 33.2524 15.6488 34.4286 17.0603C35.6385 18.875 36.1762 21.0259 35.9746 23.1767V36.2496H28.4467V24.3529C28.5475 23.3111 28.3459 22.2357 27.8418 21.2947C27.3041 20.5554 26.3967 20.1521 25.4893 20.2529C23.2377 20.2529 22.0614 21.6644 22.0614 24.4873L21.9606 36.2496ZM176.383 36.2496H171.207V31.3095H176.383V36.2496ZM120.932 36.2496H113.404V15.3127H120.932V36.2496ZM50.795 36.2496H43.0319L35.6049 15.3127H43.1664L45.8549 24.3865C46.5606 26.9742 47.1655 29.6963 47.1655 29.7972H47.3C47.6696 28.016 48.0057 26.2685 48.4762 24.4873L51.1983 15.4136H58.4909L50.795 36.2496ZM11.6098 36.2496H3.84668V6.60864H11.6098V36.2496Z"/>
</mask>
<path d="M157.664 44.0127C154.001 44.0127 151.312 43.307 149.531 41.8955C148.019 40.7529 147.179 38.9718 147.179 37.0562H154.471C154.807 38.4677 155.412 39.2742 157.765 39.2742C160.352 39.2742 161.428 37.8627 161.428 34.6701V31.8472H161.293C160.386 34.166 158.034 35.6111 155.513 35.3759C149.497 35.3759 146.439 31.948 146.439 25.2603C146.305 22.4037 147.279 19.648 149.161 17.4972C150.842 15.7496 153.194 14.775 155.648 14.8086C158 14.5734 160.285 15.7832 161.394 17.8668H161.529V15.2791H168.72V33.998C168.72 37.4258 167.88 39.8791 166.133 41.425C164.251 43.1726 161.529 44.0127 157.664 44.0127ZM157.899 19.8832C155.547 19.8832 154.135 21.8996 154.135 25.2939C154.135 28.8226 155.412 30.7045 157.765 30.7045C159.781 30.7045 161.394 29.0578 161.394 27.0414V24.3529C161.394 21.53 160.117 19.8832 157.899 19.8832ZM89.1737 36.9218C86.586 37.157 84.0319 36.4849 81.8811 35.0398C80.4696 33.83 79.6295 32.0824 79.5287 30.2004H86.25C86.3844 31.6119 87.3254 32.3177 89.0729 32.3177C90.7196 32.3177 91.7614 31.7127 91.7614 30.5701C91.7614 29.6291 91.1565 29.1586 89.6442 28.9234L86.2164 28.4529C82.1164 27.9824 79.8647 25.63 79.8647 21.9668C79.8311 20.0849 80.6041 18.3037 81.9819 17.0267C86.0483 14.2037 91.4254 14.0693 95.6262 16.6906C97.0377 17.8668 97.8442 19.5808 97.8442 21.3955H91.2237C91.1901 20.1857 90.1819 19.2447 89.0057 19.2783H88.8713C86.9893 19.2783 86.6196 20.1185 86.6196 20.925C86.6196 21.7316 86.9557 22.3365 88.636 22.5718L92.2991 23.0423C93.9123 23.1095 95.4582 23.748 96.668 24.7898C97.8442 25.9324 98.4491 27.5455 98.3147 29.1586C98.6172 33.998 94.9541 36.9554 89.1737 36.9218ZM68.0016 36.8209C61.1795 36.8209 57.2811 32.8218 57.2811 25.6299C57.1803 22.7398 58.1885 19.9168 60.1041 17.7324C62.1877 15.6824 65.0778 14.607 68.0016 14.775C71.6647 14.775 74.4877 15.8168 76.2352 17.8332C78.0163 20.1185 78.9237 22.9414 78.8229 25.8316V27.4783H64.809C65.0442 30.5365 65.9852 31.948 68.2368 31.948C69.5811 32.1832 70.8918 31.3095 71.1942 29.9316H78.6213C78.1172 34.3341 74.4541 36.8209 68.0016 36.8209ZM68.0016 19.2783C65.9852 19.2783 65.0442 20.6898 64.809 23.5127H71.1606V23.2775C70.9254 20.589 69.8836 19.2783 68.0016 19.2783ZM202.966 36.7201C200.68 36.8545 198.462 35.9808 196.849 34.3677C195.303 32.5865 194.497 30.2677 194.598 27.8816C194.463 25.5627 195.27 23.2775 196.849 21.53C198.496 19.9504 200.68 19.1103 202.966 19.1775C208.141 19.1775 211.334 22.4709 211.334 27.8816C211.334 33.2922 208.007 36.7201 202.966 36.7201ZM202.966 22.6054C200.243 22.6054 199.672 25.5627 199.672 28.016C199.672 31.6791 200.848 33.4267 202.966 33.4267C205.083 33.4267 206.259 31.5447 206.259 28.016C206.259 24.4873 205.083 22.6054 202.966 22.6054ZM186.129 36.7201C183.843 36.8545 181.625 35.9808 180.012 34.3677C178.534 32.5865 177.761 30.3349 177.895 28.016C177.895 22.6054 181.088 19.3119 186.263 19.3119C190.968 19.3119 193.791 21.6644 193.925 25.6636H189.12C189.019 24.2521 188.414 22.6054 186.297 22.6054C183.339 22.6054 183.003 25.9996 183.003 28.016C183.003 31.6791 184.079 33.4267 186.297 33.4267C187.91 33.4267 189.22 32.1496 189.254 30.5365C189.254 30.5029 189.254 30.5029 189.254 30.4693V30.1332H193.959C193.959 32.0488 193.152 33.83 191.707 35.107C190.027 36.1824 188.111 36.7537 186.129 36.7201ZM107.052 36.5857C105.238 36.7537 103.423 36.216 101.978 35.0734C100.566 33.5947 99.827 31.5783 99.9614 29.5283V9.53241H107.288V15.3127H111.657V20.4882H107.422V28.1504C107.422 30.3685 108.128 31.2086 110.144 31.2086C110.615 31.2422 111.085 31.175 111.556 31.0742V36.3504C110.01 36.4513 108.598 36.5857 107.052 36.5857ZM228.607 36.2496H223.667V26.4701C223.768 25.5291 223.6 24.6218 223.197 23.7816C222.726 23.0759 221.92 22.7062 221.079 22.8406C219.063 22.8406 217.887 24.2521 217.887 26.6045V36.2496H212.947V19.648H217.652V22.3701C218.626 20.4209 220.643 19.2111 222.827 19.3119C225.65 19.3119 227.297 20.4881 228.002 22.7398H228.103C229.044 20.589 231.195 19.2447 233.514 19.3119C237.278 19.3119 239.059 21.3283 239.059 25.4283V36.2496H234.119V26.5037C234.22 25.5627 234.052 24.6554 233.648 23.8152C233.178 23.1095 232.371 22.7398 231.531 22.8742C229.515 22.8742 228.339 24.2857 228.339 26.6381L228.607 36.2496ZM130.947 36.2496H123.419V15.3127H130.711V18.707H130.846C132.157 16.2201 134.845 14.7078 137.668 14.9431C140.357 14.9431 142.272 15.6488 143.448 17.0603C144.658 18.875 145.196 21.0259 144.961 23.1767V36.2496H137.433V24.3529C137.534 23.3111 137.332 22.2357 136.828 21.2947C136.29 20.5554 135.383 20.1521 134.475 20.2529C132.257 20.2529 131.081 21.6644 131.081 24.4873L130.947 36.2496ZM21.9606 36.2496H14.4327V15.3127H21.7254V18.707H21.8262C23.1368 16.2201 25.8254 14.7078 28.6483 14.9431C31.3368 14.9431 33.2524 15.6488 34.4286 17.0603C35.6385 18.875 36.1762 21.0259 35.9746 23.1767V36.2496H28.4467V24.3529C28.5475 23.3111 28.3459 22.2357 27.8418 21.2947C27.3041 20.5554 26.3967 20.1521 25.4893 20.2529C23.2377 20.2529 22.0614 21.6644 22.0614 24.4873L21.9606 36.2496ZM176.383 36.2496H171.207V31.3095H176.383V36.2496ZM120.932 36.2496H113.404V15.3127H120.932V36.2496ZM50.795 36.2496H43.0319L35.6049 15.3127H43.1664L45.8549 24.3865C46.5606 26.9742 47.1655 29.6963 47.1655 29.7972H47.3C47.6696 28.016 48.0057 26.2685 48.4762 24.4873L51.1983 15.4136H58.4909L50.795 36.2496ZM11.6098 36.2496H3.84668V6.60864H11.6098V36.2496Z" fill="black"/>
<path d="M157.664 44.0127C154.001 44.0127 151.312 43.307 149.531 41.8955C148.019 40.7529 147.179 38.9718 147.179 37.0562H154.471C154.807 38.4677 155.412 39.2742 157.765 39.2742C160.352 39.2742 161.428 37.8627 161.428 34.6701V31.8472H161.293C160.386 34.166 158.034 35.6111 155.513 35.3759C149.497 35.3759 146.439 31.948 146.439 25.2603C146.305 22.4037 147.279 19.648 149.161 17.4972C150.842 15.7496 153.194 14.775 155.648 14.8086C158 14.5734 160.285 15.7832 161.394 17.8668H161.529V15.2791H168.72V33.998C168.72 37.4258 167.88 39.8791 166.133 41.425C164.251 43.1726 161.529 44.0127 157.664 44.0127ZM157.899 19.8832C155.547 19.8832 154.135 21.8996 154.135 25.2939C154.135 28.8226 155.412 30.7045 157.765 30.7045C159.781 30.7045 161.394 29.0578 161.394 27.0414V24.3529C161.394 21.53 160.117 19.8832 157.899 19.8832ZM89.1737 36.9218C86.586 37.157 84.0319 36.4849 81.8811 35.0398C80.4696 33.83 79.6295 32.0824 79.5287 30.2004H86.25C86.3844 31.6119 87.3254 32.3177 89.0729 32.3177C90.7196 32.3177 91.7614 31.7127 91.7614 30.5701C91.7614 29.6291 91.1565 29.1586 89.6442 28.9234L86.2164 28.4529C82.1164 27.9824 79.8647 25.63 79.8647 21.9668C79.8311 20.0849 80.6041 18.3037 81.9819 17.0267C86.0483 14.2037 91.4254 14.0693 95.6262 16.6906C97.0377 17.8668 97.8442 19.5808 97.8442 21.3955H91.2237C91.1901 20.1857 90.1819 19.2447 89.0057 19.2783H88.8713C86.9893 19.2783 86.6196 20.1185 86.6196 20.925C86.6196 21.7316 86.9557 22.3365 88.636 22.5718L92.2991 23.0423C93.9123 23.1095 95.4582 23.748 96.668 24.7898C97.8442 25.9324 98.4491 27.5455 98.3147 29.1586C98.6172 33.998 94.9541 36.9554 89.1737 36.9218ZM68.0016 36.8209C61.1795 36.8209 57.2811 32.8218 57.2811 25.6299C57.1803 22.7398 58.1885 19.9168 60.1041 17.7324C62.1877 15.6824 65.0778 14.607 68.0016 14.775C71.6647 14.775 74.4877 15.8168 76.2352 17.8332C78.0163 20.1185 78.9237 22.9414 78.8229 25.8316V27.4783H64.809C65.0442 30.5365 65.9852 31.948 68.2368 31.948C69.5811 32.1832 70.8918 31.3095 71.1942 29.9316H78.6213C78.1172 34.3341 74.4541 36.8209 68.0016 36.8209ZM68.0016 19.2783C65.9852 19.2783 65.0442 20.6898 64.809 23.5127H71.1606V23.2775C70.9254 20.589 69.8836 19.2783 68.0016 19.2783ZM202.966 36.7201C200.68 36.8545 198.462 35.9808 196.849 34.3677C195.303 32.5865 194.497 30.2677 194.598 27.8816C194.463 25.5627 195.27 23.2775 196.849 21.53C198.496 19.9504 200.68 19.1103 202.966 19.1775C208.141 19.1775 211.334 22.4709 211.334 27.8816C211.334 33.2922 208.007 36.7201 202.966 36.7201ZM202.966 22.6054C200.243 22.6054 199.672 25.5627 199.672 28.016C199.672 31.6791 200.848 33.4267 202.966 33.4267C205.083 33.4267 206.259 31.5447 206.259 28.016C206.259 24.4873 205.083 22.6054 202.966 22.6054ZM186.129 36.7201C183.843 36.8545 181.625 35.9808 180.012 34.3677C178.534 32.5865 177.761 30.3349 177.895 28.016C177.895 22.6054 181.088 19.3119 186.263 19.3119C190.968 19.3119 193.791 21.6644 193.925 25.6636H189.12C189.019 24.2521 188.414 22.6054 186.297 22.6054C183.339 22.6054 183.003 25.9996 183.003 28.016C183.003 31.6791 184.079 33.4267 186.297 33.4267C187.91 33.4267 189.22 32.1496 189.254 30.5365C189.254 30.5029 189.254 30.5029 189.254 30.4693V30.1332H193.959C193.959 32.0488 193.152 33.83 191.707 35.107C190.027 36.1824 188.111 36.7537 186.129 36.7201ZM107.052 36.5857C105.238 36.7537 103.423 36.216 101.978 35.0734C100.566 33.5947 99.827 31.5783 99.9614 29.5283V9.53241H107.288V15.3127H111.657V20.4882H107.422V28.1504C107.422 30.3685 108.128 31.2086 110.144 31.2086C110.615 31.2422 111.085 31.175 111.556 31.0742V36.3504C110.01 36.4513 108.598 36.5857 107.052 36.5857ZM228.607 36.2496H223.667V26.4701C223.768 25.5291 223.6 24.6218 223.197 23.7816C222.726 23.0759 221.92 22.7062 221.079 22.8406C219.063 22.8406 217.887 24.2521 217.887 26.6045V36.2496H212.947V19.648H217.652V22.3701C218.626 20.4209 220.643 19.2111 222.827 19.3119C225.65 19.3119 227.297 20.4881 228.002 22.7398H228.103C229.044 20.589 231.195 19.2447 233.514 19.3119C237.278 19.3119 239.059 21.3283 239.059 25.4283V36.2496H234.119V26.5037C234.22 25.5627 234.052 24.6554 233.648 23.8152C233.178 23.1095 232.371 22.7398 231.531 22.8742C229.515 22.8742 228.339 24.2857 228.339 26.6381L228.607 36.2496ZM130.947 36.2496H123.419V15.3127H130.711V18.707H130.846C132.157 16.2201 134.845 14.7078 137.668 14.9431C140.357 14.9431 142.272 15.6488 143.448 17.0603C144.658 18.875 145.196 21.0259 144.961 23.1767V36.2496H137.433V24.3529C137.534 23.3111 137.332 22.2357 136.828 21.2947C136.29 20.5554 135.383 20.1521 134.475 20.2529C132.257 20.2529 131.081 21.6644 131.081 24.4873L130.947 36.2496ZM21.9606 36.2496H14.4327V15.3127H21.7254V18.707H21.8262C23.1368 16.2201 25.8254 14.7078 28.6483 14.9431C31.3368 14.9431 33.2524 15.6488 34.4286 17.0603C35.6385 18.875 36.1762 21.0259 35.9746 23.1767V36.2496H28.4467V24.3529C28.5475 23.3111 28.3459 22.2357 27.8418 21.2947C27.3041 20.5554 26.3967 20.1521 25.4893 20.2529C23.2377 20.2529 22.0614 21.6644 22.0614 24.4873L21.9606 36.2496ZM176.383 36.2496H171.207V31.3095H176.383V36.2496ZM120.932 36.2496H113.404V15.3127H120.932V36.2496ZM50.795 36.2496H43.0319L35.6049 15.3127H43.1664L45.8549 24.3865C46.5606 26.9742 47.1655 29.6963 47.1655 29.7972H47.3C47.6696 28.016 48.0057 26.2685 48.4762 24.4873L51.1983 15.4136H58.4909L50.795 36.2496ZM11.6098 36.2496H3.84668V6.60864H11.6098V36.2496Z" stroke="white" stroke-width="6" mask="url(#path-1-outside-1_1020_303)"/>
<path d="M111.669 13.0611V14.8584L113.437 14.5369L121.2 13.1254L122.432 12.9015V11.6496V3.9873V2.18999L120.664 2.5115L112.901 3.92297L111.669 4.14691V5.39878V13.0611Z" fill="black" stroke="white" stroke-width="3"/>
</svg>
