<svg width="232" height="70" viewBox="0 0 232 70" fill="none" xmlns="http://www.w3.org/2000/svg">
<g filter="url(#filter0_d_9_43)">
<rect x="79.9214" y="22.8721" width="138.21" height="13.1061" fill="white"/>
<mask id="path-2-outside-1_9_43" maskUnits="userSpaceOnUse" x="5.04492" y="0" width="222" height="60" fill="black">
<rect fill="white" x="5.04492" width="222" height="60"/>
<path fill-rule="evenodd" clip-rule="evenodd" d="M10.1399 40.6536C10.1874 41.3068 10.2349 41.9599 10.2349 42.5664V42.6597H10.995C11.2325 42.3332 11.4226 42.0299 11.6126 41.7266L11.6126 41.7266C11.8026 41.4233 11.9926 41.1201 12.2301 40.7935C15.5751 36.0914 19.0105 31.3448 22.4115 26.6458L22.4123 26.6447C23.9378 24.537 25.4563 22.4389 26.9567 20.3587C27.2417 20.0787 27.9068 19.6122 27.9068 19.6122H36.6477C30.092 28.6632 23.6313 37.621 17.2657 46.4855C17.2657 46.5788 17.4557 46.7654 17.4557 46.7654C19.2008 47.7063 20.9582 48.6715 22.7279 49.6434L22.7287 49.6438C25.8727 51.3705 29.0555 53.1185 32.2772 54.7901C32.7523 55.07 33.7024 55.07 34.1774 54.7901C38.2403 52.453 42.3385 50.1507 46.4506 47.8407L46.4508 47.8406L46.4525 47.8396L46.4542 47.8387L46.4557 47.8378L46.457 47.8372C49.0741 46.367 51.6968 44.8937 54.3195 43.4062C55.0796 42.9397 55.5547 42.1932 55.5547 41.2601C55.5842 40.5064 55.6229 39.7346 55.6622 38.9504L55.6622 38.9503L55.6622 38.9501C55.7494 37.2104 55.8397 35.4095 55.8397 33.6087C55.8079 32.1089 55.7867 30.5987 55.7655 29.085C55.7234 26.0782 55.681 23.0578 55.5547 20.0787C55.5547 19.1456 55.4596 18.3991 55.2696 17.2794C54.8896 17.7459 54.7946 17.8393 54.6046 18.0259L54.6046 18.0259C50.8991 23.2747 47.0333 28.6809 43.1675 34.0872L43.1604 34.0972L43.1562 34.103L43.1526 34.1081L43.1526 34.1081C41.8691 35.9031 40.5856 37.698 39.308 39.4872C38.8329 40.1404 38.3579 40.4203 37.5978 40.4203H30.5671C30.4245 40.4203 30.2583 40.3736 30.092 40.327L30.092 40.327C29.9257 40.2803 29.7595 40.2337 29.617 40.2337C35.0456 32.5149 40.5434 24.8639 45.9924 17.2808L45.9929 17.2802L45.993 17.28L45.9932 17.2798L45.9934 17.2795C46.9336 15.9711 47.8723 14.6647 48.809 13.3604C48.693 13.2465 48.6242 13.148 48.5706 13.0713C48.4925 12.9595 48.4466 12.8938 48.3339 12.8938C46.7188 12.023 45.1036 11.1313 43.4884 10.2397L43.4884 10.2397C40.2581 8.45644 37.0277 6.67318 33.7974 5.05581C33.1323 4.9625 32.2772 4.9625 31.6122 5.24243C28.8027 6.76197 25.9933 8.33293 23.1838 9.90389L23.1837 9.90396L23.1835 9.90408L23.1835 9.90409L23.1834 9.90412L23.1834 9.90414C19.4373 11.9988 15.6912 14.0936 11.9451 16.0664C10.52 16.9062 10.0449 17.9326 10.0449 19.3322V38.7407C10.0449 39.3472 10.0924 40.0004 10.1399 40.6536ZM183.437 35.1946C183.532 32.3953 182.487 30.4358 179.827 29.3161C179.878 29.2911 179.922 29.2728 179.963 29.2558C180.074 29.2094 180.163 29.1728 180.302 29.0362C182.392 27.9164 183.152 25.9569 182.677 23.8108C182.202 21.758 180.587 20.5449 178.592 20.265C177.139 19.9677 175.57 19.9356 173.984 19.9032C173.081 19.8848 172.172 19.8662 171.276 19.7985H166.43C166.24 20.1717 166.24 20.4516 166.24 20.4516V39.0203C166.24 39.9534 166.715 39.9534 167.38 39.9534H175.646C176.881 39.9534 177.926 39.9534 179.067 39.6735C181.442 39.0203 183.247 37.1541 183.437 35.1946ZM173.074 35.9832C172.419 35.9623 171.758 35.9411 171.086 35.9411C171.086 34.5725 171.09 33.2019 171.276 31.7421C173.176 31.7421 175.171 31.8355 177.071 32.0221C178.116 32.1154 178.782 32.8619 178.782 33.9816C178.592 35.008 177.831 35.7545 176.881 35.9411C175.621 36.0648 174.361 36.0245 173.074 35.9832ZM172.796 27.8646C172.226 27.8439 171.656 27.8231 171.086 27.8231H170.991V23.8108C171.564 23.8108 172.149 23.7898 172.729 23.7689C173.88 23.7276 175.016 23.6868 176.026 23.8108C176.976 23.9974 177.926 24.464 177.926 25.677C177.926 26.89 177.451 27.6365 176.216 27.8231C175.076 27.9475 173.936 27.9061 172.796 27.8646ZM127.287 19.9857C128.142 22.6916 128.973 25.3741 129.805 28.0566C130.636 30.7394 131.468 33.4222 132.323 36.1284H132.608C133.463 33.4226 134.294 30.74 135.125 28.0575C135.957 25.3747 136.788 22.6919 137.643 19.9857H140.589C139.93 21.8402 139.312 23.6947 138.697 25.5399C137.981 27.6871 137.27 29.8217 136.503 31.9294C136.224 32.7852 135.92 33.6284 135.613 34.4775C135.084 35.9429 134.549 37.4259 134.128 39.021C133.883 40.2219 133.009 40.1863 132.166 40.152C132.026 40.1464 131.888 40.1407 131.753 40.1407C130.993 40.1407 130.517 39.8608 130.327 39.021C128.902 34.0756 127.382 29.3167 125.672 23.9981C125.007 25.6777 124.532 27.2639 124.152 28.5703C123.582 30.3426 123.036 32.0683 122.49 33.794L122.489 33.7951C121.943 35.5215 121.397 37.2479 120.826 39.021C120.636 39.7675 120.161 40.1407 119.401 40.1407C119.165 40.0828 118.893 40.1058 118.621 40.1287C118.016 40.1798 117.413 40.2307 117.216 39.3942C116.124 36.1757 115.079 32.9805 114.034 29.7853L114.033 29.7833L114.033 29.7813C112.988 26.5861 111.943 23.3909 110.85 20.1724C110.962 20.1724 111.008 20.1083 111.046 20.0553C111.073 20.0178 111.096 19.9857 111.135 19.9857C113.796 19.7991 113.986 19.7991 114.746 22.3185C114.916 22.8527 115.086 23.3855 115.255 23.9174C116.508 27.8448 117.743 31.7171 118.831 35.6618C118.831 35.7509 118.875 35.8186 118.93 35.9057C118.991 36.0012 119.067 36.1198 119.116 36.315C119.904 33.6835 120.721 31.1091 121.536 28.5444L121.536 28.5443L121.536 28.5441L121.536 28.5438L121.536 28.5432L121.536 28.5428L121.536 28.5425L121.536 28.5422L121.536 28.5418L121.536 28.5417L121.536 28.5415C122.194 26.4692 122.85 24.4031 123.487 22.3185C123.658 21.856 123.784 21.4798 123.887 21.1744C124.115 20.4933 124.226 20.1645 124.453 20.0161C124.666 19.8775 124.981 19.8961 125.591 19.932C125.984 19.9553 126.501 19.9857 127.192 19.9857H127.287ZM220.303 35.0081C219.875 34.5415 219.448 34.075 218.973 33.6084C214.412 36.6876 211.562 36.6876 209.092 33.795C207.191 31.5556 207.381 27.8232 209.377 25.677C210.327 24.5573 211.562 23.9975 212.987 23.8108C215.362 23.4376 217.262 24.5573 218.973 26.2369C219.19 25.9802 219.408 25.7285 219.624 25.4794L219.624 25.4783L219.625 25.4779C220.349 24.6408 221.047 23.8336 221.633 22.971C217.642 18.4922 210.137 18.3989 205.956 22.5045C201.871 26.7034 201.871 33.795 206.906 37.9006C211.277 41.4464 217.927 40.8866 221.633 36.4077C221.158 35.9412 220.73 35.4746 220.303 35.0081ZM74.4619 25.0243V39.9539H71.6116V20.0789C73.5118 19.6123 74.747 20.0789 75.7921 21.5718C77.7787 24.467 79.9382 27.3622 82.1832 30.3719C83.2666 31.8243 84.3698 33.3033 85.4831 34.8219V19.8923H88.3334V39.674C86.3382 40.3272 85.8631 39.9539 84.723 38.461C84.2094 37.7692 83.6981 37.0819 83.1891 36.3977L83.1637 36.3636L83.1555 36.3526L83.1552 36.3523C80.3801 32.6222 77.6724 28.9828 75.032 25.2109C74.9413 25.2109 74.8723 25.1685 74.7837 25.1139C74.6865 25.0541 74.5657 24.9798 74.3669 24.931L74.4619 25.0243ZM96.7884 31.1823H106.479L106.384 31.089V31.0889C106.384 30.1558 106.384 29.316 106.574 28.1964H96.8834V22.2245H107.81V19.7985H93.9381V39.7668H108V37.1541H96.7884V31.1823ZM202.06 19.7986L202.25 20.0785C202.44 22.629 201.237 23.9042 198.64 23.9042H196.264V39.7669H191.609V23.9042H186.763C185.623 23.9042 185.338 23.6243 185.338 22.5046C185.338 20.6384 186.288 19.7053 188.189 19.7053H202.06V19.7986ZM142.503 35.9567C142.345 36.2453 142.179 36.5487 142.013 36.875H141.823C144.673 39.4876 147.998 40.5141 151.704 40.2341C153.984 39.9542 156.074 38.8345 156.834 36.6883C157.974 33.6091 157.309 30.9964 153.414 29.5035C152.464 29.1302 151.538 28.7803 150.611 28.4304C149.685 28.0805 148.758 27.7306 147.808 27.3573C146.668 26.8908 146.098 26.051 146.383 24.9313C146.668 24.1848 147.428 23.5316 148.093 23.0651C148.568 22.7851 149.329 22.5985 149.994 22.7851C151.204 22.9635 152.415 23.2934 153.651 23.6301C154.354 23.8217 155.065 24.0155 155.789 24.1848C156.006 23.8122 156.192 23.4092 156.4 22.9586C156.556 22.6192 156.725 22.2529 156.929 21.852C153.984 20.1725 150.849 19.426 147.428 20.3591C144.958 20.9189 143.438 22.5985 143.248 24.4647C142.963 27.7306 144.198 29.2235 146.858 30.3433C147.501 30.5661 148.159 30.7741 148.826 30.985C149.835 31.304 150.864 31.6296 151.894 32.0228C152.939 32.4894 153.889 33.0493 154.079 34.4489C154.269 35.9419 152.939 37.1549 150.944 37.3415C147.903 37.5281 145.433 36.4084 143.248 34.4489C143.062 34.9344 142.797 35.4199 142.503 35.9567Z"/>
</mask>
<path fill-rule="evenodd" clip-rule="evenodd" d="M10.1399 40.6536C10.1874 41.3068 10.2349 41.9599 10.2349 42.5664V42.6597H10.995C11.2325 42.3332 11.4226 42.0299 11.6126 41.7266L11.6126 41.7266C11.8026 41.4233 11.9926 41.1201 12.2301 40.7935C15.5751 36.0914 19.0105 31.3448 22.4115 26.6458L22.4123 26.6447C23.9378 24.537 25.4563 22.4389 26.9567 20.3587C27.2417 20.0787 27.9068 19.6122 27.9068 19.6122H36.6477C30.092 28.6632 23.6313 37.621 17.2657 46.4855C17.2657 46.5788 17.4557 46.7654 17.4557 46.7654C19.2008 47.7063 20.9582 48.6715 22.7279 49.6434L22.7287 49.6438C25.8727 51.3705 29.0555 53.1185 32.2772 54.7901C32.7523 55.07 33.7024 55.07 34.1774 54.7901C38.2403 52.453 42.3385 50.1507 46.4506 47.8407L46.4508 47.8406L46.4525 47.8396L46.4542 47.8387L46.4557 47.8378L46.457 47.8372C49.0741 46.367 51.6968 44.8937 54.3195 43.4062C55.0796 42.9397 55.5547 42.1932 55.5547 41.2601C55.5842 40.5064 55.6229 39.7346 55.6622 38.9504L55.6622 38.9503L55.6622 38.9501C55.7494 37.2104 55.8397 35.4095 55.8397 33.6087C55.8079 32.1089 55.7867 30.5987 55.7655 29.085C55.7234 26.0782 55.681 23.0578 55.5547 20.0787C55.5547 19.1456 55.4596 18.3991 55.2696 17.2794C54.8896 17.7459 54.7946 17.8393 54.6046 18.0259L54.6046 18.0259C50.8991 23.2747 47.0333 28.6809 43.1675 34.0872L43.1604 34.0972L43.1562 34.103L43.1526 34.1081L43.1526 34.1081C41.8691 35.9031 40.5856 37.698 39.308 39.4872C38.8329 40.1404 38.3579 40.4203 37.5978 40.4203H30.5671C30.4245 40.4203 30.2583 40.3736 30.092 40.327L30.092 40.327C29.9257 40.2803 29.7595 40.2337 29.617 40.2337C35.0456 32.5149 40.5434 24.8639 45.9924 17.2808L45.9929 17.2802L45.993 17.28L45.9932 17.2798L45.9934 17.2795C46.9336 15.9711 47.8723 14.6647 48.809 13.3604C48.693 13.2465 48.6242 13.148 48.5706 13.0713C48.4925 12.9595 48.4466 12.8938 48.3339 12.8938C46.7188 12.023 45.1036 11.1313 43.4884 10.2397L43.4884 10.2397C40.2581 8.45644 37.0277 6.67318 33.7974 5.05581C33.1323 4.9625 32.2772 4.9625 31.6122 5.24243C28.8027 6.76197 25.9933 8.33293 23.1838 9.90389L23.1837 9.90396L23.1835 9.90408L23.1835 9.90409L23.1834 9.90412L23.1834 9.90414C19.4373 11.9988 15.6912 14.0936 11.9451 16.0664C10.52 16.9062 10.0449 17.9326 10.0449 19.3322V38.7407C10.0449 39.3472 10.0924 40.0004 10.1399 40.6536ZM183.437 35.1946C183.532 32.3953 182.487 30.4358 179.827 29.3161C179.878 29.2911 179.922 29.2728 179.963 29.2558C180.074 29.2094 180.163 29.1728 180.302 29.0362C182.392 27.9164 183.152 25.9569 182.677 23.8108C182.202 21.758 180.587 20.5449 178.592 20.265C177.139 19.9677 175.57 19.9356 173.984 19.9032C173.081 19.8848 172.172 19.8662 171.276 19.7985H166.43C166.24 20.1717 166.24 20.4516 166.24 20.4516V39.0203C166.24 39.9534 166.715 39.9534 167.38 39.9534H175.646C176.881 39.9534 177.926 39.9534 179.067 39.6735C181.442 39.0203 183.247 37.1541 183.437 35.1946ZM173.074 35.9832C172.419 35.9623 171.758 35.9411 171.086 35.9411C171.086 34.5725 171.09 33.2019 171.276 31.7421C173.176 31.7421 175.171 31.8355 177.071 32.0221C178.116 32.1154 178.782 32.8619 178.782 33.9816C178.592 35.008 177.831 35.7545 176.881 35.9411C175.621 36.0648 174.361 36.0245 173.074 35.9832ZM172.796 27.8646C172.226 27.8439 171.656 27.8231 171.086 27.8231H170.991V23.8108C171.564 23.8108 172.149 23.7898 172.729 23.7689C173.88 23.7276 175.016 23.6868 176.026 23.8108C176.976 23.9974 177.926 24.464 177.926 25.677C177.926 26.89 177.451 27.6365 176.216 27.8231C175.076 27.9475 173.936 27.9061 172.796 27.8646ZM127.287 19.9857C128.142 22.6916 128.973 25.3741 129.805 28.0566C130.636 30.7394 131.468 33.4222 132.323 36.1284H132.608C133.463 33.4226 134.294 30.74 135.125 28.0575C135.957 25.3747 136.788 22.6919 137.643 19.9857H140.589C139.93 21.8402 139.312 23.6947 138.697 25.5399C137.981 27.6871 137.27 29.8217 136.503 31.9294C136.224 32.7852 135.92 33.6284 135.613 34.4775C135.084 35.9429 134.549 37.4259 134.128 39.021C133.883 40.2219 133.009 40.1863 132.166 40.152C132.026 40.1464 131.888 40.1407 131.753 40.1407C130.993 40.1407 130.517 39.8608 130.327 39.021C128.902 34.0756 127.382 29.3167 125.672 23.9981C125.007 25.6777 124.532 27.2639 124.152 28.5703C123.582 30.3426 123.036 32.0683 122.49 33.794L122.489 33.7951C121.943 35.5215 121.397 37.2479 120.826 39.021C120.636 39.7675 120.161 40.1407 119.401 40.1407C119.165 40.0828 118.893 40.1058 118.621 40.1287C118.016 40.1798 117.413 40.2307 117.216 39.3942C116.124 36.1757 115.079 32.9805 114.034 29.7853L114.033 29.7833L114.033 29.7813C112.988 26.5861 111.943 23.3909 110.85 20.1724C110.962 20.1724 111.008 20.1083 111.046 20.0553C111.073 20.0178 111.096 19.9857 111.135 19.9857C113.796 19.7991 113.986 19.7991 114.746 22.3185C114.916 22.8527 115.086 23.3855 115.255 23.9174C116.508 27.8448 117.743 31.7171 118.831 35.6618C118.831 35.7509 118.875 35.8186 118.93 35.9057C118.991 36.0012 119.067 36.1198 119.116 36.315C119.904 33.6835 120.721 31.1091 121.536 28.5444L121.536 28.5443L121.536 28.5441L121.536 28.5438L121.536 28.5432L121.536 28.5428L121.536 28.5425L121.536 28.5422L121.536 28.5418L121.536 28.5417L121.536 28.5415C122.194 26.4692 122.85 24.4031 123.487 22.3185C123.658 21.856 123.784 21.4798 123.887 21.1744C124.115 20.4933 124.226 20.1645 124.453 20.0161C124.666 19.8775 124.981 19.8961 125.591 19.932C125.984 19.9553 126.501 19.9857 127.192 19.9857H127.287ZM220.303 35.0081C219.875 34.5415 219.448 34.075 218.973 33.6084C214.412 36.6876 211.562 36.6876 209.092 33.795C207.191 31.5556 207.381 27.8232 209.377 25.677C210.327 24.5573 211.562 23.9975 212.987 23.8108C215.362 23.4376 217.262 24.5573 218.973 26.2369C219.19 25.9802 219.408 25.7285 219.624 25.4794L219.624 25.4783L219.625 25.4779C220.349 24.6408 221.047 23.8336 221.633 22.971C217.642 18.4922 210.137 18.3989 205.956 22.5045C201.871 26.7034 201.871 33.795 206.906 37.9006C211.277 41.4464 217.927 40.8866 221.633 36.4077C221.158 35.9412 220.73 35.4746 220.303 35.0081ZM74.4619 25.0243V39.9539H71.6116V20.0789C73.5118 19.6123 74.747 20.0789 75.7921 21.5718C77.7787 24.467 79.9382 27.3622 82.1832 30.3719C83.2666 31.8243 84.3698 33.3033 85.4831 34.8219V19.8923H88.3334V39.674C86.3382 40.3272 85.8631 39.9539 84.723 38.461C84.2094 37.7692 83.6981 37.0819 83.1891 36.3977L83.1637 36.3636L83.1555 36.3526L83.1552 36.3523C80.3801 32.6222 77.6724 28.9828 75.032 25.2109C74.9413 25.2109 74.8723 25.1685 74.7837 25.1139C74.6865 25.0541 74.5657 24.9798 74.3669 24.931L74.4619 25.0243ZM96.7884 31.1823H106.479L106.384 31.089V31.0889C106.384 30.1558 106.384 29.316 106.574 28.1964H96.8834V22.2245H107.81V19.7985H93.9381V39.7668H108V37.1541H96.7884V31.1823ZM202.06 19.7986L202.25 20.0785C202.44 22.629 201.237 23.9042 198.64 23.9042H196.264V39.7669H191.609V23.9042H186.763C185.623 23.9042 185.338 23.6243 185.338 22.5046C185.338 20.6384 186.288 19.7053 188.189 19.7053H202.06V19.7986ZM142.503 35.9567C142.345 36.2453 142.179 36.5487 142.013 36.875H141.823C144.673 39.4876 147.998 40.5141 151.704 40.2341C153.984 39.9542 156.074 38.8345 156.834 36.6883C157.974 33.6091 157.309 30.9964 153.414 29.5035C152.464 29.1302 151.538 28.7803 150.611 28.4304C149.685 28.0805 148.758 27.7306 147.808 27.3573C146.668 26.8908 146.098 26.051 146.383 24.9313C146.668 24.1848 147.428 23.5316 148.093 23.0651C148.568 22.7851 149.329 22.5985 149.994 22.7851C151.204 22.9635 152.415 23.2934 153.651 23.6301C154.354 23.8217 155.065 24.0155 155.789 24.1848C156.006 23.8122 156.192 23.4092 156.4 22.9586C156.556 22.6192 156.725 22.2529 156.929 21.852C153.984 20.1725 150.849 19.426 147.428 20.3591C144.958 20.9189 143.438 22.5985 143.248 24.4647C142.963 27.7306 144.198 29.2235 146.858 30.3433C147.501 30.5661 148.159 30.7741 148.826 30.985C149.835 31.304 150.864 31.6296 151.894 32.0228C152.939 32.4894 153.889 33.0493 154.079 34.4489C154.269 35.9419 152.939 37.1549 150.944 37.3415C147.903 37.5281 145.433 36.4084 143.248 34.4489C143.062 34.9344 142.797 35.4199 142.503 35.9567Z" fill="black"/>
<path d="M10.1399 40.6536L14.8932 40.3079L14.8932 40.3079L10.1399 40.6536ZM10.2349 42.6597H5.46909C5.46909 45.2919 7.60283 47.4256 10.2349 47.4256L10.2349 42.6597ZM10.995 42.6597V47.4256C12.5198 47.4256 13.9525 46.6961 14.8493 45.463L10.995 42.6597ZM11.6126 41.7266L15.6511 44.2572C15.6648 44.2353 15.6784 44.2133 15.6918 44.1911L11.6126 41.7266ZM11.6126 41.7266L7.57409 39.196C7.56037 39.2179 7.54682 39.24 7.53346 39.2621L11.6126 41.7266ZM12.2301 40.7935L16.0844 43.5968C16.0942 43.5833 16.104 43.5697 16.1137 43.5561L12.2301 40.7935ZM22.4115 26.6458L26.2723 29.4401L26.2757 29.4353L22.4115 26.6458ZM22.4123 26.6447L18.5515 23.8505L18.5481 23.8552L22.4123 26.6447ZM26.9567 20.3587L23.6173 16.9584C23.4249 17.1473 23.249 17.3522 23.0913 17.5708L26.9567 20.3587ZM27.9068 19.6122V14.8463C26.9273 14.8463 25.9716 15.1481 25.1698 15.7106L27.9068 19.6122ZM36.6477 19.6122L40.5075 22.4078C41.558 20.9574 41.7067 19.0405 40.8925 17.4454C40.0783 15.8503 38.4386 14.8463 36.6477 14.8463V19.6122ZM17.2657 46.4855L13.3946 43.7056C12.8128 44.5157 12.4998 45.488 12.4998 46.4855H17.2657ZM17.4557 46.7654L14.1163 50.1656C14.4363 50.4799 14.799 50.7474 15.1938 50.9603L17.4557 46.7654ZM22.7279 49.6434L20.4337 53.8207C20.4398 53.8241 20.4458 53.8274 20.4519 53.8307L22.7279 49.6434ZM22.7287 49.6438L25.0229 45.4665C25.0168 45.4632 25.0108 45.4599 25.0047 45.4566L22.7287 49.6438ZM32.2772 54.7901L34.6968 50.684C34.623 50.6406 34.5481 50.5991 34.4721 50.5597L32.2772 54.7901ZM34.1774 54.7901L31.8011 50.6589C31.7866 50.6672 31.7722 50.6756 31.7579 50.684L34.1774 54.7901ZM46.4506 47.8407L44.2079 43.6355C44.1772 43.6519 44.1467 43.6686 44.1164 43.6856L46.4506 47.8407ZM46.4508 47.8406L48.6935 52.0458C48.7245 52.0293 48.7554 52.0124 48.786 51.9951L46.4508 47.8406ZM46.4525 47.8396L44.1283 43.6789L44.1173 43.6851L46.4525 47.8396ZM46.4542 47.8387L48.7784 51.9994L48.7791 51.999L46.4542 47.8387ZM46.4557 47.8378L44.1379 43.6736L44.1309 43.6775L46.4557 47.8378ZM46.457 47.8372L48.7748 52.0014C48.7802 51.9984 48.7857 51.9953 48.7911 51.9923L46.457 47.8372ZM54.3195 43.4062L56.6706 47.5518C56.7184 47.5247 56.7658 47.4967 56.8127 47.4679L54.3195 43.4062ZM55.5547 41.2601L50.7924 41.0736C50.79 41.1357 50.7888 41.1979 50.7888 41.2601H55.5547ZM55.6622 38.9504L50.9128 38.5546C50.9084 38.607 50.9049 38.6594 50.9023 38.7118L55.6622 38.9504ZM55.6622 38.9503L60.4116 39.3461C60.4138 39.3198 60.4157 39.2936 60.4175 39.2673L55.6622 38.9503ZM55.6622 38.9501L60.4175 39.2671C60.4192 39.241 60.4208 39.2149 60.4221 39.1887L55.6622 38.9501ZM55.8397 33.6087H60.6055C60.6055 33.575 60.6052 33.5413 60.6045 33.5076L55.8397 33.6087ZM55.7655 29.085L51.0001 29.1518L51.0001 29.1518L55.7655 29.085ZM55.5547 20.0787H50.7888C50.7888 20.1461 50.7902 20.2134 50.7931 20.2807L55.5547 20.0787ZM55.2696 17.2794L59.9683 16.482C59.6554 14.6381 58.2929 13.1477 56.4844 12.671C54.6759 12.1943 52.7557 12.8194 51.5745 14.2695L55.2696 17.2794ZM54.6046 18.0259L51.2652 14.6256C51.1883 14.7011 51.1141 14.7791 51.0425 14.8596L54.6046 18.0259ZM54.6046 18.0259L51.0425 14.8596C50.9244 14.9926 50.8137 15.132 50.7112 15.2773L54.6046 18.0259ZM43.1675 34.0872L39.2908 31.3151L39.2903 31.3158L43.1675 34.0872ZM43.1604 34.0972L47.0375 36.8687L47.0376 36.8685L43.1604 34.0972ZM43.1562 34.103L47.0329 36.8752L47.0333 36.8745L43.1562 34.103ZM43.1526 34.1081L47.0069 36.9112C47.0144 36.9009 47.0219 36.8906 47.0293 36.8802L43.1526 34.1081ZM43.1526 34.1081L39.2982 31.305C39.2907 31.3153 39.2833 31.3257 39.2758 31.336L43.1526 34.1081ZM39.308 39.4872L43.1622 42.2904C43.1704 42.2792 43.1785 42.268 43.1865 42.2568L39.308 39.4872ZM30.092 40.327L31.3796 35.7384C31.3358 35.7261 31.2919 35.7144 31.2479 35.7034L30.092 40.327ZM30.092 40.327L28.8044 44.9156C28.8481 44.9279 28.892 44.9395 28.9361 44.9505L30.092 40.327ZM29.617 40.2337L25.7187 37.492C24.6953 38.9471 24.5675 40.8511 25.3873 42.4299C26.2071 44.0087 27.838 44.9995 29.617 44.9995V40.2337ZM45.9924 17.2808L42.1228 14.4989L42.1222 14.4997L45.9924 17.2808ZM45.9929 17.2802L42.1386 14.477C42.1334 14.4841 42.1283 14.4912 42.1232 14.4983L45.9929 17.2802ZM45.993 17.28L42.1592 14.4488C42.1524 14.4581 42.1455 14.4675 42.1387 14.4768L45.993 17.28ZM45.9932 17.2798L49.827 20.1109C49.8406 20.0925 49.8541 20.074 49.8674 20.0553L45.9932 17.2798ZM45.9934 17.2795L42.1231 14.4984L42.1192 14.5039L45.9934 17.2795ZM48.809 13.3604L52.6801 16.1403C54.0512 14.231 53.8254 11.6072 52.1483 9.96012L48.809 13.3604ZM48.5706 13.0713L44.6637 15.8008L44.6637 15.8008L48.5706 13.0713ZM48.3339 12.8938L46.072 17.0888C46.767 17.4635 47.5443 17.6597 48.3339 17.6597V12.8938ZM43.4884 10.2397L45.7917 6.06739C45.735 6.0361 45.6777 6.00596 45.6198 5.97701L43.4884 10.2397ZM43.4884 10.2397L41.1851 14.412C41.2418 14.4433 41.2991 14.4734 41.357 14.5024L43.4884 10.2397ZM33.7974 5.05581L35.9311 0.794261C35.4687 0.562743 34.9717 0.408026 34.4596 0.336176L33.7974 5.05581ZM31.6122 5.24243L29.7633 0.849811C29.6206 0.909857 29.481 0.976817 29.3448 1.05045L31.6122 5.24243ZM23.1838 9.90389L25.5024 14.0678L25.5098 14.0636L23.1838 9.90389ZM23.1837 9.90396L20.8652 5.74008C20.8575 5.74437 20.8498 5.74867 20.8422 5.753L23.1837 9.90396ZM23.1835 9.90408L20.8419 5.75313C20.8343 5.75745 20.8266 5.7618 20.819 5.76616L23.1835 9.90408ZM23.1835 9.90409L25.434 14.1051C25.4723 14.0846 25.5103 14.0636 25.548 14.042L23.1835 9.90409ZM23.1834 9.90412L20.9329 5.70311C20.8997 5.72092 20.8666 5.73912 20.8338 5.75772L23.1834 9.90412ZM23.1834 9.90414L25.5094 14.0638C25.5173 14.0594 25.5252 14.055 25.533 14.0505L23.1834 9.90414ZM11.9451 16.0664L9.72438 11.8496C9.65724 11.8849 9.59096 11.9219 9.52559 11.9604L11.9451 16.0664ZM179.827 29.3161L177.726 25.0381C176.05 25.8612 175.009 27.5876 175.063 29.4544C175.117 31.3211 176.256 32.9842 177.978 33.7087L179.827 29.3161ZM183.437 35.1946L188.181 35.6546C188.19 35.5554 188.197 35.4559 188.2 35.3563L183.437 35.1946ZM179.963 29.2558L181.79 33.6574L181.79 33.6574L179.963 29.2558ZM180.302 29.0362L178.051 24.8351C177.652 25.0489 177.285 25.3185 176.962 25.6358L180.302 29.0362ZM182.677 23.8108L187.33 22.7808C187.327 22.766 187.324 22.7511 187.32 22.7363L182.677 23.8108ZM178.592 20.265L177.636 24.9341C177.733 24.954 177.831 24.9709 177.929 24.9846L178.592 20.265ZM173.984 19.9032L173.886 24.6681L173.886 24.6681L173.984 19.9032ZM171.276 19.7985L171.635 15.0462C171.515 15.0371 171.396 15.0326 171.276 15.0326V19.7985ZM166.43 19.7985V15.0326C164.638 15.0326 162.996 16.0386 162.183 17.6362L166.43 19.7985ZM166.24 20.4516L171.006 20.4516L171.006 20.4514L166.24 20.4516ZM179.067 39.6735L180.203 44.3019C180.246 44.2914 180.288 44.2804 180.33 44.2688L179.067 39.6735ZM171.086 35.9411L166.32 35.9408C166.32 37.2048 166.822 38.4171 167.716 39.311C168.609 40.2048 169.822 40.707 171.086 40.707V35.9411ZM173.074 35.9832L172.921 40.7467L172.921 40.7467L173.074 35.9832ZM171.276 31.7421V26.9763C168.876 26.9763 166.851 28.7602 166.548 31.1404L171.276 31.7421ZM177.071 32.0221L176.606 36.7651C176.62 36.7665 176.634 36.7678 176.648 36.7691L177.071 32.0221ZM178.782 33.9816L183.468 34.8491C183.521 34.563 183.547 34.2726 183.547 33.9816H178.782ZM176.881 35.9411L177.347 40.6841C177.499 40.6692 177.65 40.647 177.8 40.6176L176.881 35.9411ZM172.796 27.8646L172.969 23.1019L172.969 23.1019L172.796 27.8646ZM170.991 27.8231H166.225C166.225 30.4552 168.359 32.589 170.991 32.589V27.8231ZM170.991 23.8108V19.0449C168.359 19.0449 166.225 21.1787 166.225 23.8108H170.991ZM172.729 23.7689L172.558 19.0062L172.558 19.0062L172.729 23.7689ZM176.026 23.8108L176.945 19.1343C176.833 19.1123 176.72 19.0944 176.607 19.0805L176.026 23.8108ZM176.216 27.8231L176.733 32.5609C176.798 32.5538 176.863 32.5453 176.928 32.5355L176.216 27.8231ZM129.805 28.0566L125.252 29.4673L125.252 29.4673L129.805 28.0566ZM127.287 19.9857L131.832 18.5497C131.205 16.5674 129.366 15.2199 127.287 15.2199V19.9857ZM132.323 36.1284L127.778 37.5644C128.405 39.5467 130.244 40.8942 132.323 40.8942V36.1284ZM132.608 36.1284V40.8942C134.687 40.8942 136.526 39.5467 137.152 37.5644L132.608 36.1284ZM135.125 28.0575L130.573 26.6468L130.573 26.6468L135.125 28.0575ZM137.643 19.9857V15.2199C135.564 15.2199 133.725 16.5674 133.099 18.5497L137.643 19.9857ZM140.589 19.9857L145.08 21.5809C145.598 20.1218 145.375 18.5019 144.482 17.237C143.589 15.9721 142.137 15.2199 140.589 15.2199V19.9857ZM138.697 25.5399L143.218 27.0469L143.218 27.0469L138.697 25.5399ZM136.503 31.9294L132.024 30.3007C132.006 30.3511 131.988 30.4019 131.972 30.453L136.503 31.9294ZM135.613 34.4775L131.131 32.8592L131.131 32.8592L135.613 34.4775ZM134.128 39.021L129.52 37.8046C129.497 37.8924 129.476 37.9809 129.458 38.07L134.128 39.021ZM132.166 40.152L131.972 44.9139L131.972 44.914L132.166 40.152ZM130.327 39.021L134.976 37.9692C134.955 37.8793 134.933 37.7899 134.907 37.7013L130.327 39.021ZM125.672 23.9981L130.209 22.5392C129.593 20.6235 127.84 19.3011 125.829 19.2348C123.818 19.1685 121.982 20.3725 121.241 22.2435L125.672 23.9981ZM124.152 28.5703L128.689 30.0291C128.703 29.9868 128.716 29.9443 128.728 29.9016L124.152 28.5703ZM122.49 33.794L117.946 32.3561C117.942 32.3682 117.938 32.3803 117.935 32.3925L122.49 33.794ZM122.489 33.7951L127.033 35.233C127.037 35.2209 127.041 35.2088 127.044 35.1967L122.489 33.7951ZM120.826 39.021L116.289 37.5621C116.259 37.6557 116.232 37.7501 116.208 37.8453L120.826 39.021ZM119.401 40.1407L118.265 44.7691C118.637 44.8604 119.018 44.9066 119.401 44.9066V40.1407ZM118.621 40.1287L118.22 35.3798L118.22 35.3798L118.621 40.1287ZM117.216 39.3942L121.856 38.3041C121.821 38.1549 121.778 38.0076 121.729 37.8625L117.216 39.3942ZM114.034 29.7853L109.498 31.2492C109.5 31.255 109.502 31.2608 109.504 31.2666L114.034 29.7853ZM114.033 29.7813L118.568 28.3174C118.566 28.3116 118.564 28.3058 118.562 28.3L114.033 29.7813ZM110.85 20.1724V15.4065C109.314 15.4065 107.872 16.1473 106.977 17.3963C106.082 18.6452 105.844 20.2491 106.337 21.7041L110.85 20.1724ZM111.046 20.0553L107.178 17.2706L107.178 17.2707L111.046 20.0553ZM111.135 19.9857V24.7516C111.247 24.7516 111.358 24.7477 111.469 24.7399L111.135 19.9857ZM114.746 22.3185L110.183 23.695C110.19 23.7179 110.197 23.7408 110.204 23.7636L114.746 22.3185ZM115.255 23.9174L119.796 22.4691L119.796 22.469L115.255 23.9174ZM118.831 35.6618H123.597C123.597 35.2337 123.539 34.8076 123.426 34.3949L118.831 35.6618ZM118.93 35.9057L122.948 33.3429L122.948 33.3427L118.93 35.9057ZM119.116 36.315L114.498 37.4907C115.026 39.5668 116.875 41.0352 119.017 41.0798C121.159 41.1245 123.067 39.7345 123.682 37.6823L119.116 36.315ZM121.536 28.5444L126.078 29.9862C126.115 29.8707 126.147 29.7539 126.175 29.636L121.536 28.5444ZM121.536 28.5443L117.041 26.9581C116.984 27.1203 116.936 27.2854 116.896 27.4528L121.536 28.5443ZM121.536 28.5441L126.03 30.1303C126.048 30.0774 126.066 30.0242 126.083 29.9707L121.536 28.5441ZM121.536 28.5438L126.083 29.9704L126.087 29.9578L121.536 28.5438ZM121.536 28.5432L117.009 27.0521C117.001 27.0778 116.993 27.1035 116.985 27.1293L121.536 28.5432ZM121.536 28.5428L126.063 30.0339C126.075 29.9961 126.087 29.9582 126.099 29.9201L121.536 28.5428ZM121.536 28.5418L126.099 29.9192C126.101 29.9114 126.103 29.9036 126.106 29.8958L121.536 28.5418ZM121.536 28.5415L116.994 27.0997C116.985 27.1289 116.976 27.1582 116.967 27.1876L121.536 28.5415ZM123.487 22.3185L119.017 20.6637C118.985 20.7503 118.956 20.8378 118.929 20.9262L123.487 22.3185ZM123.887 21.1744L119.368 19.6582L119.368 19.6583L123.887 21.1744ZM124.453 20.0161L121.852 16.023L121.852 16.023L124.453 20.0161ZM125.591 19.932L125.871 15.1744L125.871 15.1744L125.591 19.932ZM218.973 33.6084L222.312 30.2081C220.695 28.6202 218.184 28.3905 216.306 29.6586L218.973 33.6084ZM220.303 35.0081L223.816 31.7882L223.816 31.7882L220.303 35.0081ZM209.092 33.795L205.458 36.8785C205.461 36.8823 205.464 36.8861 205.467 36.89L209.092 33.795ZM209.377 25.677L212.867 28.922C212.916 28.8693 212.964 28.8154 213.01 28.7605L209.377 25.677ZM212.987 23.8108L213.606 28.5363C213.646 28.5311 213.686 28.5252 213.727 28.5189L212.987 23.8108ZM218.973 26.2369L215.633 29.6371C216.578 30.565 217.866 31.0579 219.189 30.9978C220.512 30.9378 221.75 30.33 222.606 29.3204L218.973 26.2369ZM219.624 25.4794L223.228 28.5973L223.23 28.5944L219.624 25.4794ZM219.624 25.4783L216.041 22.3365C216.033 22.3454 216.025 22.3543 216.018 22.3633L219.624 25.4783ZM219.625 25.4779L223.208 28.6197C223.215 28.6118 223.222 28.6039 223.229 28.596L219.625 25.4779ZM221.633 22.971L225.576 25.6477C226.803 23.8407 226.644 21.4313 225.191 19.8007L221.633 22.971ZM205.956 22.5045L202.617 19.1042C202.591 19.1295 202.566 19.1551 202.54 19.181L205.956 22.5045ZM206.906 37.9006L203.895 41.5944L203.904 41.6017L206.906 37.9006ZM221.633 36.4077L225.305 39.4456C226.882 37.5387 226.738 34.7416 224.972 33.0075L221.633 36.4077ZM74.4619 39.9539V44.7198C77.094 44.7198 79.2278 42.586 79.2278 39.9539H74.4619ZM74.4619 25.0243H79.2278C79.2278 23.7454 78.7137 22.5201 77.8012 21.6239L74.4619 25.0243ZM71.6116 39.9539H66.8458C66.8458 42.586 68.9795 44.7198 71.6116 44.7198V39.9539ZM71.6116 20.0789L70.4752 15.4505C68.3441 15.9737 66.8458 17.8845 66.8458 20.0789H71.6116ZM75.7921 21.5718L79.7217 18.8753C79.7133 18.8631 79.7049 18.8509 79.6964 18.8387L75.7921 21.5718ZM82.1832 30.3719L78.3631 33.2214L78.3631 33.2214L82.1832 30.3719ZM85.4831 34.8219L81.6395 37.6397C82.858 39.3018 85.0068 39.9924 86.9655 39.3513C88.9242 38.7102 90.2489 36.8828 90.2489 34.8219H85.4831ZM85.4831 19.8923V15.1264C82.851 15.1264 80.7172 17.2602 80.7172 19.8923L85.4831 19.8923ZM88.3334 19.8923H93.0992C93.0992 17.2602 90.9655 15.1264 88.3334 15.1264V19.8923ZM88.3334 39.674L89.8161 44.2033C91.7747 43.5622 93.0992 41.7348 93.0992 39.674H88.3334ZM84.723 38.461L80.8965 41.3019C80.9093 41.3192 80.9222 41.3364 80.9353 41.3535L84.723 38.461ZM83.1891 36.3977L79.3653 39.2424L79.3653 39.2425L83.1891 36.3977ZM83.1637 36.3636L86.9875 33.5189L86.9854 33.5162L83.1637 36.3636ZM83.1555 36.3526L86.9772 33.5052C86.9742 33.5012 86.9712 33.4971 86.9682 33.4931L83.1555 36.3526ZM83.1552 36.3523L79.3316 39.1971C79.3352 39.202 79.3389 39.2069 79.3426 39.2118L83.1552 36.3523ZM75.032 25.2109L78.9363 22.4778C78.0444 21.2038 76.5871 20.4451 75.032 20.4451V25.2109ZM74.7837 25.1139L77.2811 21.0548L77.281 21.0548L74.7837 25.1139ZM74.3669 24.931L75.5033 20.3026C73.4187 19.7908 71.2493 20.7357 70.2042 22.6105C69.159 24.4853 69.4962 26.8274 71.0276 28.3314L74.3669 24.931ZM106.479 31.1823V35.9481C108.415 35.9481 110.158 34.7777 110.891 32.9863C111.623 31.1949 111.2 29.1384 109.819 27.7822L106.479 31.1823ZM96.7884 31.1823V26.4164C94.1562 26.4164 92.0225 28.5502 92.0225 31.1823H96.7884ZM106.384 31.089H101.618C101.618 32.3678 102.132 33.593 103.045 34.4891L106.384 31.089ZM106.574 28.1964L111.273 28.9938C111.508 27.6102 111.121 26.1934 110.215 25.1212C109.31 24.0491 107.978 23.4305 106.574 23.4305V28.1964ZM96.8834 28.1964H92.1175C92.1175 30.8285 94.2513 32.9622 96.8834 32.9622V28.1964ZM96.8834 22.2245V17.4587C94.2513 17.4587 92.1175 19.5924 92.1175 22.2245H96.8834ZM107.81 22.2245V26.9904C110.442 26.9904 112.575 24.8566 112.575 22.2245H107.81ZM107.81 19.7985H112.575C112.575 17.1664 110.442 15.0326 107.81 15.0326V19.7985ZM93.9381 19.7985V15.0326C91.3059 15.0326 89.1722 17.1664 89.1722 19.7985L93.9381 19.7985ZM93.9381 39.7668H89.1722C89.1722 42.3989 91.3059 44.5327 93.9381 44.5327V39.7668ZM108 39.7668V44.5327C110.632 44.5327 112.765 42.3989 112.765 39.7668H108ZM108 37.1541H112.765C112.765 34.522 110.632 32.3883 108 32.3883V37.1541ZM96.7884 37.1541H92.0225C92.0225 39.7862 94.1562 41.92 96.7884 41.92V37.1541ZM202.25 20.0785L207.003 19.7244C206.941 18.8927 206.662 18.0919 206.193 17.4018L202.25 20.0785ZM202.06 19.7986H197.294C197.294 20.7531 197.581 21.6855 198.117 22.4753L202.06 19.7986ZM196.264 23.9042V19.1384C193.632 19.1384 191.499 21.2721 191.499 23.9042H196.264ZM196.264 39.7669V44.5328C198.896 44.5328 201.03 42.399 201.03 39.7669H196.264ZM191.609 39.7669H186.843C186.843 42.399 188.977 44.5328 191.609 44.5328V39.7669ZM191.609 23.9042H196.375C196.375 21.2721 194.241 19.1384 191.609 19.1384V23.9042ZM202.06 19.7053H206.826C206.826 17.0732 204.692 14.9394 202.06 14.9394V19.7053ZM142.013 36.875V41.6408C143.805 41.6408 145.447 40.6348 146.26 39.0372L142.013 36.875ZM142.503 35.9567L138.322 33.6683L138.322 33.6683L142.503 35.9567ZM141.823 36.875V32.1091C139.857 32.1091 138.094 33.3156 137.381 35.1473C136.669 36.979 137.154 39.0602 138.602 40.3882L141.823 36.875ZM151.704 40.2341L152.063 44.9864C152.137 44.9808 152.211 44.9735 152.284 44.9645L151.704 40.2341ZM156.834 36.6883L152.365 35.0335C152.357 35.0547 152.349 35.076 152.342 35.0973L156.834 36.6883ZM153.414 29.5035L151.671 33.9393C151.684 33.9442 151.696 33.9489 151.708 33.9537L153.414 29.5035ZM150.611 28.4304L152.295 23.972L152.295 23.972L150.611 28.4304ZM147.808 27.3573L146.003 31.7682C146.024 31.7767 146.045 31.785 146.066 31.7932L147.808 27.3573ZM146.383 24.9313L141.931 23.2313C141.865 23.4027 141.81 23.5778 141.765 23.7556L146.383 24.9313ZM148.093 23.0651L145.674 18.9591C145.565 19.023 145.459 19.0912 145.356 19.1635L148.093 23.0651ZM149.994 22.7851L148.706 27.3738C148.901 27.4284 149.099 27.4706 149.299 27.5001L149.994 22.7851ZM153.651 23.6301L152.398 28.2283L152.398 28.2283L153.651 23.6301ZM155.789 24.1848L154.704 28.8255C156.743 29.3024 158.855 28.3919 159.909 26.5816L155.789 24.1848ZM156.4 22.9586L160.727 24.9547L160.727 24.9546L156.4 22.9586ZM156.929 21.852L161.176 24.0143C162.331 21.7469 161.5 18.9725 159.29 17.712L156.929 21.852ZM147.428 20.3591L148.482 25.0071C148.549 24.9918 148.616 24.9751 148.683 24.9569L147.428 20.3591ZM143.248 24.4647L138.507 23.982C138.504 24.0047 138.502 24.0275 138.5 24.0504L143.248 24.4647ZM146.858 30.3433L145.009 34.7359C145.104 34.7758 145.2 34.8126 145.297 34.8463L146.858 30.3433ZM148.826 30.985L150.263 26.4409L150.263 26.4409L148.826 30.985ZM151.894 32.0228L153.836 27.6709C153.757 27.6353 153.676 27.6019 153.594 27.5707L151.894 32.0228ZM154.079 34.4489L158.807 33.8472C158.805 33.834 158.803 33.8209 158.802 33.8078L154.079 34.4489ZM150.944 37.3415L151.236 42.0984C151.286 42.0953 151.337 42.0914 151.388 42.0867L150.944 37.3415ZM143.248 34.4489L146.43 30.9007C145.261 29.8529 143.652 29.4476 142.126 29.8169C140.601 30.1861 139.355 31.2827 138.796 32.7488L143.248 34.4489ZM15.0008 42.5664C15.0008 41.7548 14.9379 40.9223 14.8932 40.3079L5.38663 40.9993C5.43695 41.6912 5.46909 42.165 5.46909 42.5664H15.0008ZM15.0008 42.6597V42.5664H5.46909V42.6597H15.0008ZM10.995 37.8939H10.2349V47.4256H10.995V37.8939ZM7.57405 39.1961C7.37744 39.5099 7.26844 39.681 7.14075 39.8565L14.8493 45.463C15.1966 44.9854 15.4677 44.5499 15.6511 44.2572L7.57405 39.1961ZM7.53346 39.2621L7.53342 39.2621L15.6918 44.1911L15.6918 44.1911L7.53346 39.2621ZM8.37588 37.9903C8.02854 38.4679 7.75752 38.9033 7.57409 39.196L15.6512 44.2571C15.8477 43.9434 15.9567 43.7723 16.0844 43.5968L8.37588 37.9903ZM18.5508 23.8515C15.1518 28.5477 11.7048 33.3102 8.34664 38.031L16.1137 43.5561C19.4453 38.8726 22.8693 34.1418 26.2723 29.4401L18.5508 23.8515ZM18.5481 23.8552L18.5474 23.8562L26.2757 29.4353L26.2764 29.4343L18.5481 23.8552ZM23.0913 17.5708C21.5937 19.6473 20.0774 21.7422 18.5515 23.8505L26.273 29.439C27.7981 27.3319 29.319 25.2305 30.8221 23.1465L23.0913 17.5708ZM27.9068 19.6122C25.1698 15.7106 25.1696 15.7107 25.1695 15.7108C25.1694 15.7109 25.1693 15.711 25.1691 15.711C25.1689 15.7112 25.1687 15.7114 25.1684 15.7115C25.1679 15.7119 25.1674 15.7123 25.1668 15.7127C25.1657 15.7135 25.1643 15.7144 25.1628 15.7155C25.1599 15.7176 25.1562 15.7201 25.152 15.7232C25.1434 15.7292 25.1323 15.737 25.119 15.7465C25.0924 15.7654 25.0563 15.7911 25.0132 15.8222C24.9278 15.8836 24.8092 15.97 24.6766 16.0696C24.4843 16.2141 24.0117 16.571 23.6173 16.9584L30.2961 23.7589C30.1867 23.8664 30.1892 23.85 30.4006 23.6912C30.4699 23.6392 30.5354 23.5915 30.5837 23.5567C30.6073 23.5397 30.6254 23.5268 30.6363 23.5191C30.6417 23.5152 30.6452 23.5128 30.6465 23.5118C30.6472 23.5113 30.6473 23.5112 30.6469 23.5116C30.6467 23.5117 30.6463 23.512 30.6458 23.5123C30.6455 23.5125 30.6452 23.5127 30.6449 23.513C30.6447 23.5131 30.6445 23.5132 30.6443 23.5133C30.6443 23.5134 30.6441 23.5135 30.6441 23.5135C30.6439 23.5136 30.6438 23.5137 27.9068 19.6122ZM36.6477 14.8463H27.9068V24.378H36.6477V14.8463ZM21.1368 49.2653C27.4986 40.4063 33.9555 31.4538 40.5075 22.4078L32.7879 16.8165C26.2285 25.8727 19.7641 34.8357 13.3946 43.7056L21.1368 49.2653ZM17.4557 46.7654C20.7951 43.3651 20.7955 43.3655 20.7959 43.3659C20.7961 43.3661 20.7965 43.3665 20.7968 43.3668C20.7973 43.3673 20.7979 43.3678 20.7984 43.3684C20.7995 43.3695 20.8006 43.3705 20.8017 43.3716C20.8039 43.3738 20.806 43.3759 20.8082 43.378C20.8125 43.3823 20.8167 43.3865 20.8209 43.3907C20.8294 43.3991 20.8377 43.4075 20.8461 43.416C20.8625 43.4328 20.8801 43.451 20.8987 43.4708C20.9312 43.5053 20.9874 43.5665 21.0558 43.6505C21.1088 43.7156 21.2564 43.8998 21.4147 44.1718C21.4957 44.311 21.6251 44.5505 21.7432 44.8695C21.851 45.1608 22.0315 45.7344 22.0315 46.4855H12.4998C12.4998 47.8485 13.0869 48.8121 13.176 48.9653C13.3699 49.2986 13.5651 49.5469 13.6656 49.6703C13.7815 49.8126 13.8852 49.9263 13.9533 49.9988C13.9897 50.0375 14.0221 50.071 14.049 50.0983C14.0625 50.1121 14.075 50.1246 14.0862 50.1358C14.0918 50.1414 14.0971 50.1467 14.1021 50.1517C14.1046 50.1542 14.1071 50.1566 14.1094 50.1589C14.1106 50.1601 14.1118 50.1612 14.1129 50.1623C14.1135 50.1629 14.1141 50.1634 14.1146 50.164C14.1149 50.1643 14.1153 50.1647 14.1155 50.1648C14.1159 50.1652 14.1163 50.1656 17.4557 46.7654ZM25.0221 45.4661C23.2552 44.4957 21.4816 43.5216 19.7176 42.5705L15.1938 50.9603C16.92 51.891 18.6612 52.8473 20.4337 53.8207L25.0221 45.4661ZM25.0047 45.4566L25.0039 45.4561L20.4519 53.8307L20.4527 53.8311L25.0047 45.4566ZM34.4721 50.5597C31.3086 48.9183 28.1749 47.1976 25.0229 45.4665L20.4346 53.8212C23.5704 55.5434 26.8024 57.3186 30.0823 59.0204L34.4721 50.5597ZM31.7579 50.684C32.2028 50.4219 32.5729 50.325 32.7484 50.2874C32.9472 50.2448 33.1064 50.2341 33.2273 50.2341C33.3483 50.2341 33.5075 50.2448 33.7063 50.2874C33.8817 50.325 34.2519 50.4219 34.6968 50.684L29.8577 58.8961C31.1096 59.6337 32.4199 59.7659 33.2273 59.7659C34.0347 59.7659 35.3451 59.6337 36.597 58.8961L31.7579 50.684ZM44.1164 43.6856C40.0079 45.9936 35.8884 48.3077 31.8011 50.6589L36.5538 58.9212C40.5921 56.5982 44.6691 54.3078 48.7848 51.9958L44.1164 43.6856ZM44.208 43.6355L44.2079 43.6355L48.6934 52.0459L48.6935 52.0458L44.208 43.6355ZM44.1173 43.6851L44.1156 43.6861L48.786 51.9951L48.7878 51.9942L44.1173 43.6851ZM44.1299 43.678L44.1283 43.679L48.7768 52.0003L48.7784 51.9994L44.1299 43.678ZM44.1309 43.6775L44.1293 43.6784L48.7791 51.999L48.7806 51.9982L44.1309 43.6775ZM44.1391 43.6729L44.1379 43.6736L48.7736 52.0021L48.7748 52.0014L44.1391 43.6729ZM51.9684 39.2607C49.3556 40.7425 46.7413 42.2111 44.1228 43.682L48.7911 51.9923C51.4069 50.5229 54.038 49.0448 56.6706 47.5518L51.9684 39.2607ZM50.7888 41.2601C50.7888 40.8914 50.8901 40.4709 51.1196 40.0826C51.3414 39.7075 51.6158 39.4737 51.8264 39.3445L56.8127 47.4679C58.834 46.2272 60.3205 44.0197 60.3205 41.2601H50.7888ZM50.9023 38.7118C50.8632 39.4911 50.8232 40.2893 50.7924 41.0736L60.3169 41.4466C60.3452 40.7235 60.3825 39.9781 60.422 39.189L50.9023 38.7118ZM50.9128 38.5545L50.9128 38.5546L60.4116 39.3462L60.4116 39.3461L50.9128 38.5545ZM50.9069 38.6331L50.9069 38.6333L60.4175 39.2673L60.4175 39.2671L50.9069 38.6331ZM51.0738 33.6087C51.0738 35.2705 50.9905 36.9528 50.9023 38.7115L60.4221 39.1887C60.5083 37.468 60.6055 35.5485 60.6055 33.6087H51.0738ZM51.0001 29.1518C51.0213 30.6625 51.0427 32.1899 51.0749 33.7097L60.6045 33.5076C60.5731 32.0279 60.5521 30.5349 60.5309 29.0182L51.0001 29.1518ZM50.7931 20.2807C50.9161 23.1808 50.9578 26.1331 51.0001 29.1518L60.5309 29.0182C60.4889 26.0233 60.446 22.9349 60.3162 19.8767L50.7931 20.2807ZM50.571 18.0768C50.7438 19.0952 50.7888 19.5382 50.7888 20.0787H60.3205C60.3205 18.7531 60.1755 17.7031 59.9683 16.482L50.571 18.0768ZM57.944 21.4261C58.2745 21.1015 58.4874 20.8753 58.9647 20.2893L51.5745 14.2695C51.4006 14.483 51.3435 14.5472 51.3324 14.5595C51.3311 14.5609 51.3319 14.56 51.3343 14.5575C51.3366 14.555 51.3378 14.5538 51.3367 14.555C51.3295 14.5623 51.3183 14.5734 51.2652 14.6256L57.944 21.4261ZM58.1666 21.1922L58.1666 21.1921L51.0425 14.8596L51.0425 14.8596L58.1666 21.1922ZM47.0443 36.8592C50.9084 31.4553 54.7828 26.0371 58.498 20.7745L50.7112 15.2773C47.0155 20.5123 43.1582 25.9066 39.2908 31.3151L47.0443 36.8592ZM47.0376 36.8685L47.0448 36.8585L39.2903 31.3158L39.2832 31.3258L47.0376 36.8685ZM47.0333 36.8745L47.0375 36.8687L39.2833 31.3256L39.2791 31.3315L47.0333 36.8745ZM47.0293 36.8802L47.0329 36.8752L39.2796 31.3308L39.276 31.3359L47.0293 36.8802ZM47.0069 36.9113L47.0069 36.9112L39.2983 31.3049L39.2982 31.305L47.0069 36.9113ZM43.1865 42.2568C44.463 40.4691 45.7456 38.6754 47.0293 36.8802L39.2758 31.336C37.9925 33.1308 36.7081 34.927 35.4294 36.7176L43.1865 42.2568ZM37.5978 45.1862C38.5948 45.1862 39.741 44.9939 40.8728 44.3656C41.959 43.7627 42.6825 42.95 43.1622 42.2904L35.4537 36.684C35.4584 36.6776 35.7068 36.3315 36.2467 36.0318C36.8323 35.7067 37.3608 35.6544 37.5978 35.6544V45.1862ZM30.5671 45.1862H37.5978V35.6544H30.5671V45.1862ZM28.8045 44.9156C28.86 44.9312 29.0809 44.9947 29.3223 45.0474C29.56 45.0993 30.0116 45.1862 30.5671 45.1862V35.6544C30.7866 35.6544 30.9649 35.6721 31.0867 35.6883C31.2095 35.7047 31.3027 35.7235 31.3546 35.7349C31.4356 35.7526 31.4903 35.7694 31.3796 35.7384L28.8045 44.9156ZM28.9361 44.9505L28.9361 44.9506L31.2479 35.7034L31.2479 35.7034L28.9361 44.9505ZM29.617 44.9995C29.3974 44.9995 29.2191 44.9819 29.0973 44.9657C28.9745 44.9493 28.8813 44.9304 28.8294 44.9191C28.7484 44.9014 28.6936 44.8845 28.8044 44.9156L31.3795 35.7383C31.324 35.7228 31.1031 35.6592 30.8618 35.6066C30.624 35.5547 30.1724 35.4678 29.617 35.4678V44.9995ZM42.1222 14.4997C36.6755 22.0796 31.1636 29.7501 25.7187 37.492L33.5152 42.9754C38.9277 35.2796 44.4114 27.6482 49.8627 20.0619L42.1222 14.4997ZM42.1232 14.4983L42.1228 14.4989L49.8621 20.0627L49.8626 20.0621L42.1232 14.4983ZM42.1387 14.4768L42.1386 14.477L49.8472 20.0833L49.8474 20.0831L42.1387 14.4768ZM42.1594 14.4487L42.1592 14.4488L49.8269 20.1111L49.827 20.1109L42.1594 14.4487ZM42.1192 14.5039L42.119 14.5042L49.8674 20.0553L49.8676 20.055L42.1192 14.5039ZM44.9378 10.5805C44.0017 11.8841 43.0634 13.1899 42.1231 14.4984L49.8637 20.0605C50.8038 18.7523 51.7429 17.4453 52.6801 16.1403L44.9378 10.5805ZM44.6637 15.8008C44.7486 15.9223 45.0239 16.323 45.4696 16.7607L52.1483 9.96012C52.248 10.058 52.3327 10.155 52.4014 10.2417C52.4626 10.3189 52.5061 10.383 52.4774 10.3418L44.6637 15.8008ZM48.3339 17.6597C47.8879 17.6597 47.3406 17.5926 46.7546 17.3759C46.1636 17.1574 45.6996 16.8482 45.3568 16.5533C45.0408 16.2814 44.8382 16.0297 44.757 15.9255C44.6827 15.8301 44.6252 15.7457 44.6637 15.8008L52.4774 10.3419C52.4769 10.341 52.3844 10.2065 52.276 10.0673C52.1607 9.91933 51.9249 9.63026 51.5736 9.32801C50.668 8.54876 49.5236 8.12799 48.3339 8.12799V17.6597ZM41.1852 14.412C42.7968 15.3017 44.4326 16.2048 46.072 17.0888L50.5958 8.69894C49.0049 7.84112 47.4104 6.96096 45.7917 6.06739L41.1852 14.412ZM41.357 14.5024L41.3571 14.5024L45.6198 5.97701L45.6198 5.97699L41.357 14.5024ZM31.6637 9.31735C34.7936 10.8844 37.9395 12.6203 41.1851 14.412L45.7917 6.06737C42.5767 4.29257 39.2618 2.46191 35.9311 0.794261L31.6637 9.31735ZM33.461 9.63504C33.2951 9.70487 33.1689 9.73617 33.1019 9.74996C33.0335 9.76404 32.9968 9.76605 32.9968 9.76605C32.9955 9.76613 33.0114 9.76523 33.0427 9.76672C33.0734 9.76818 33.106 9.77134 33.1352 9.77544L34.4596 0.336176C33.4432 0.193576 31.5833 0.083759 29.7633 0.849811L33.461 9.63504ZM25.5098 14.0636C28.3243 12.4898 31.1045 10.9353 33.8795 9.4344L29.3448 1.05045C26.501 2.58861 23.6623 4.17604 20.8579 5.74418L25.5098 14.0636ZM25.5022 14.0678L25.5024 14.0678L20.8653 5.74001L20.8652 5.74008L25.5022 14.0678ZM25.5251 14.055L25.5253 14.0549L20.8422 5.753L20.8419 5.75313L25.5251 14.055ZM25.548 14.042L25.548 14.042L20.819 5.76616L20.8189 5.76617L25.548 14.042ZM25.434 14.1051L25.434 14.1051L20.9329 5.70309L20.9329 5.70311L25.434 14.1051ZM25.533 14.0505L25.5331 14.0505L20.8338 5.75772L20.8338 5.75774L25.533 14.0505ZM14.1659 20.2832C17.9739 18.2777 21.7725 16.1534 25.5094 14.0638L20.8574 5.74443C17.1021 7.84431 13.4085 9.90937 9.72438 11.8496L14.1659 20.2832ZM14.8108 19.3322C14.8108 19.1728 14.836 19.4256 14.6305 19.7969C14.5351 19.9695 14.43 20.0926 14.3551 20.1649C14.2869 20.2306 14.2721 20.2269 14.3646 20.1724L9.52559 11.9604C8.26982 12.7004 7.09515 13.728 6.29064 15.1818C5.49132 16.6262 5.27907 18.0921 5.27907 19.3322H14.8108ZM14.8108 38.7407V19.3322H5.27907V38.7407H14.8108ZM14.8932 40.3079C14.8429 39.616 14.8108 39.1421 14.8108 38.7407H5.27907C5.27907 39.5523 5.34194 40.3848 5.38663 40.9993L14.8932 40.3079ZM177.978 33.7087C178.289 33.8396 178.445 33.9496 178.509 34.0024C178.541 34.0288 178.556 34.0453 178.561 34.0507C178.565 34.0558 178.567 34.0577 178.567 34.0593C178.569 34.0611 178.575 34.0719 178.585 34.0971C178.594 34.1229 178.61 34.1691 178.625 34.2416C178.656 34.3901 178.687 34.6427 178.674 35.0329L188.2 35.3563C188.268 33.3434 187.942 31.177 186.763 29.1917C185.559 27.1651 183.745 25.7945 181.676 24.9235L177.978 33.7087ZM178.135 24.8541C178.097 24.8701 177.927 24.9396 177.726 25.0381L181.927 33.5941C181.828 33.6426 181.746 33.6755 181.79 33.6574L178.135 24.8541ZM176.962 25.6358C177.111 25.4896 177.348 25.2864 177.671 25.0925C177.96 24.9193 178.221 24.8186 178.135 24.8542L181.79 33.6574C182.167 33.5009 182.884 33.18 183.641 32.4365L176.962 25.6358ZM178.024 24.8408C178.052 24.9668 178.047 25.0255 178.047 25.0245C178.047 25.024 178.048 25.011 178.054 24.9879C178.06 24.9645 178.069 24.935 178.083 24.9022C178.098 24.8693 178.115 24.8386 178.133 24.8116C178.15 24.7847 178.166 24.7669 178.175 24.7579C178.183 24.749 178.181 24.7524 178.164 24.7656C178.146 24.7789 178.11 24.8035 178.051 24.8351L182.552 33.2372C184.437 32.2274 185.955 30.6963 186.819 28.7145C187.674 26.7557 187.751 24.6816 187.33 22.7808L178.024 24.8408ZM177.929 24.9846C178.173 25.0188 178.212 25.0833 178.15 25.0317C178.119 25.0058 178.084 24.967 178.056 24.9212C178.043 24.9002 178.035 24.8837 178.032 24.8746C178.028 24.8655 178.03 24.868 178.034 24.8853L187.32 22.7363C186.323 18.4293 182.841 16.0487 179.254 15.5454L177.929 24.9846ZM173.886 24.6681C175.566 24.7024 176.685 24.7395 177.636 24.9341L179.547 15.5959C177.592 15.196 175.574 15.1689 174.081 15.1384L173.886 24.6681ZM170.917 24.5508C171.966 24.63 173.006 24.6501 173.886 24.6681L174.081 15.1384C173.155 15.1194 172.378 15.1023 171.635 15.0462L170.917 24.5508ZM166.43 24.5643H171.276V15.0326H166.43V24.5643ZM166.24 20.4516C171.006 20.4514 171.006 20.453 171.006 20.4545C171.006 20.4551 171.006 20.4566 171.006 20.4577C171.006 20.4598 171.006 20.4619 171.006 20.464C171.006 20.4682 171.006 20.4724 171.006 20.4766C171.006 20.485 171.006 20.4933 171.006 20.5016C171.006 20.5183 171.005 20.5349 171.005 20.5514C171.004 20.5844 171.003 20.617 171.002 20.6494C170.999 20.7142 170.995 20.778 170.989 20.8411C170.977 20.967 170.959 21.0919 170.934 21.2159C170.884 21.4638 170.802 21.7163 170.677 21.9607L162.183 17.6362C161.869 18.2539 161.692 18.8329 161.594 19.3142C161.545 19.5547 161.515 19.773 161.498 19.963C161.489 20.0582 161.483 20.1468 161.479 20.2283C161.478 20.2691 161.476 20.3082 161.476 20.3454C161.475 20.3641 161.475 20.3823 161.475 20.4C161.475 20.4089 161.474 20.4176 161.474 20.4263C161.474 20.4306 161.474 20.4349 161.474 20.4392C161.474 20.4413 161.474 20.4434 161.474 20.4456C161.474 20.4466 161.474 20.4482 161.474 20.4487C161.474 20.4503 161.474 20.4519 166.24 20.4516ZM171.006 39.0203V20.4516H161.474V39.0203H171.006ZM167.38 35.1876C167.148 35.1876 167.261 35.1824 167.422 35.1993C167.595 35.2176 168.224 35.2937 168.945 35.7101C169.788 36.1969 170.392 36.9335 170.721 37.7196C170.999 38.3843 171.006 38.9033 171.006 39.0203H161.474C161.474 40.1571 161.785 42.5816 164.177 43.9635C165.1 44.4965 165.972 44.6309 166.421 44.6784C166.858 44.7245 167.281 44.7193 167.38 44.7193V35.1876ZM175.646 35.1876H167.38V44.7193H175.646V35.1876ZM177.93 35.0451C177.435 35.1667 176.956 35.1876 175.646 35.1876V44.7193C176.806 44.7193 178.418 44.7402 180.203 44.3019L177.93 35.0451ZM178.693 34.7346C178.724 34.4192 178.84 34.4104 178.656 34.5999C178.487 34.774 178.189 34.9722 177.803 35.0782L180.33 44.2688C184.045 43.2473 187.749 40.1062 188.181 35.6546L178.693 34.7346ZM171.086 40.707C171.669 40.707 172.255 40.7253 172.921 40.7467L173.226 31.2198C172.584 31.1992 171.847 31.1752 171.086 31.1752V40.707ZM166.548 31.1404C166.319 32.9391 166.32 34.5933 166.32 35.9408L175.852 35.9414C175.852 34.5517 175.861 33.4647 176.003 32.3439L166.548 31.1404ZM177.537 27.279C175.475 27.0766 173.325 26.9763 171.276 26.9763V36.508C173.027 36.508 174.867 36.5944 176.606 36.7651L177.537 27.279ZM183.547 33.9816C183.547 32.4701 183.086 30.8235 181.9 29.4729C180.7 28.106 179.085 27.4171 177.495 27.2751L176.648 36.7691C176.103 36.7204 175.343 36.4514 174.737 35.7609C174.145 35.0868 174.016 34.3734 174.016 33.9816H183.547ZM177.8 40.6176C180.691 40.0497 182.926 37.7746 183.468 34.8491L174.095 33.114C174.257 32.2414 174.972 31.4593 175.963 31.2646L177.8 40.6176ZM172.921 40.7467C174.156 40.7862 175.727 40.8433 177.347 40.6841L176.416 31.1981C175.516 31.2864 174.567 31.2628 173.226 31.2198L172.921 40.7467ZM171.086 32.589C171.555 32.589 172.038 32.606 172.623 32.6273L172.969 23.1019C172.414 23.0817 171.757 23.0573 171.086 23.0573V32.589ZM170.991 32.589H171.086V23.0573H170.991V32.589ZM166.225 23.8108V27.8231H175.757V23.8108H166.225ZM172.558 19.0062C171.962 19.0276 171.464 19.0449 170.991 19.0449V28.5767C171.665 28.5767 172.335 28.552 172.9 28.5317L172.558 19.0062ZM176.607 19.0805C175.15 18.9015 173.613 18.9683 172.558 19.0062L172.9 28.5317C174.147 28.4869 174.882 28.472 175.446 28.5411L176.607 19.0805ZM182.692 25.677C182.692 23.6152 181.793 21.851 180.351 20.6709C179.12 19.663 177.76 19.2943 176.945 19.1343L175.108 28.4873C175.243 28.5139 174.833 28.4718 174.314 28.0471C174.016 27.8028 173.696 27.442 173.464 26.9565C173.231 26.469 173.161 26.0127 173.161 25.677H182.692ZM176.928 32.5355C178.407 32.312 180.115 31.6255 181.337 30.0077C182.479 28.4962 182.692 26.8261 182.692 25.677H173.161C173.161 25.6747 173.161 25.6394 173.168 25.5769C173.175 25.5142 173.19 25.4154 173.223 25.2892C173.291 25.0305 173.436 24.6543 173.732 24.2622C174.408 23.3676 175.26 23.1476 175.504 23.1108L176.928 32.5355ZM172.623 32.6273C173.706 32.6667 175.192 32.7291 176.733 32.5609L175.699 23.0854C174.96 23.166 174.166 23.1454 172.969 23.1019L172.623 32.6273ZM134.357 26.6459C133.526 23.9654 132.691 21.2703 131.832 18.5497L122.743 21.4218C123.593 24.1129 124.421 26.7828 125.252 29.4673L134.357 26.6459ZM136.867 34.6924C136.017 32.0009 135.189 29.3307 134.357 26.6459L125.252 29.4673C126.083 32.1481 126.919 34.8435 127.778 37.5644L136.867 34.6924ZM132.608 31.3625H132.323V40.8942H132.608V31.3625ZM130.573 26.6468C129.741 29.3313 128.914 32.0012 128.063 34.6924L137.152 37.5644C138.012 34.8439 138.847 32.1488 139.678 29.4683L130.573 26.6468ZM133.099 18.5497C132.239 21.2706 131.404 23.966 130.573 26.6468L139.678 29.4683C140.51 26.7834 141.337 24.1132 142.188 21.4218L133.099 18.5497ZM140.589 15.2199H137.643V24.7516H140.589V15.2199ZM143.218 27.0469C143.835 25.1945 144.439 23.3842 145.08 21.5809L136.098 18.3906C135.421 20.2962 134.788 22.1948 134.175 24.0329L143.218 27.0469ZM140.982 33.5582C141.774 31.3797 142.506 29.1836 143.218 27.0469L134.175 24.0329C133.456 26.1905 132.765 28.2638 132.024 30.3007L140.982 33.5582ZM140.096 36.0958C140.398 35.2584 140.729 34.3448 141.034 33.4059L131.972 30.453C131.72 31.2256 131.441 31.9985 131.131 32.8592L140.096 36.0958ZM138.736 40.2374C139.095 38.8774 139.558 37.5871 140.096 36.0958L131.131 32.8592C130.611 34.2988 130.003 35.9744 129.52 37.8046L138.736 40.2374ZM131.972 44.914C132.124 44.9201 133.631 45.0584 135.089 44.4954C135.974 44.1535 136.869 43.5652 137.586 42.6517C138.276 41.7717 138.626 40.8144 138.798 39.972L129.458 38.07C129.507 37.828 129.656 37.3166 130.088 36.7667C130.546 36.1832 131.123 35.809 131.654 35.604C132.123 35.4228 132.479 35.4027 132.547 35.3992C132.601 35.3964 132.613 35.4004 132.36 35.3901L131.972 44.914ZM131.753 44.9066C131.774 44.9066 131.814 44.9075 131.972 44.9139L132.36 35.3901C132.238 35.3852 132.001 35.3749 131.753 35.3749V44.9066ZM125.679 40.0728C125.936 41.2068 126.554 42.6682 128 43.733C129.383 44.7521 130.855 44.9066 131.753 44.9066V35.3749C131.89 35.3749 132.744 35.3893 133.653 36.0585C134.623 36.7734 134.909 37.675 134.976 37.9692L125.679 40.0728ZM121.135 25.4569C122.846 30.7794 124.346 35.474 125.748 40.3407L134.907 37.7013C133.459 32.6771 131.918 27.8541 130.209 22.5392L121.135 25.4569ZM128.728 29.9016C129.101 28.6179 129.525 27.212 130.103 25.7527L121.241 22.2435C120.489 24.1433 119.962 25.91 119.576 27.239L128.728 29.9016ZM127.033 35.232C127.58 33.5048 128.123 31.7894 128.689 30.0291L119.615 27.1114C119.041 28.8958 118.492 30.6319 117.946 32.3561L127.033 35.232ZM127.044 35.1967L127.045 35.1956L117.935 32.3925L117.934 32.3935L127.044 35.1967ZM125.364 40.4799C125.938 38.6947 126.487 36.958 127.033 35.233L117.946 32.3571C117.399 34.085 116.856 35.8012 116.289 37.5621L125.364 40.4799ZM119.401 44.9066C120.568 44.9066 121.998 44.6094 123.272 43.6083C124.54 42.6124 125.163 41.305 125.445 40.1967L116.208 37.8453C116.3 37.4835 116.591 36.7359 117.383 36.1133C118.182 35.4854 118.994 35.3749 119.401 35.3749V44.9066ZM119.021 44.8777C119.097 44.8714 119.122 44.8693 119.14 44.8682C119.154 44.8673 119.126 44.8694 119.074 44.87C118.99 44.8709 118.68 44.871 118.265 44.7691L120.538 35.5123C119.395 35.2318 118.285 35.3743 118.22 35.3798L119.021 44.8777ZM112.577 40.4844C112.75 41.2231 113.094 42.1082 113.776 42.9249C114.49 43.7789 115.369 44.313 116.229 44.6057C117.611 45.0765 119.003 44.8793 119.021 44.8777L118.22 35.3798C118.024 35.3963 118.097 35.3865 118.211 35.3874C118.336 35.3884 118.76 35.3985 119.302 35.5828C119.91 35.7901 120.564 36.1834 121.091 36.8132C121.586 37.4058 121.78 37.9836 121.856 38.3041L112.577 40.4844ZM109.504 31.2666C110.548 34.4578 111.601 37.6782 112.703 40.926L121.729 37.8625C120.647 34.6732 119.61 31.5031 118.564 28.3039L109.504 31.2666ZM109.498 31.2472L109.498 31.2492L118.569 28.3214L118.569 28.3194L109.498 31.2472ZM109.497 31.2452L109.498 31.2472L118.569 28.3194L118.568 28.3174L109.497 31.2452ZM106.337 21.7041C107.42 24.8934 108.457 28.0634 109.503 31.2626L118.562 28.3C117.519 25.1088 116.466 21.8884 115.363 18.6406L106.337 21.7041ZM107.178 17.2707C107.109 17.3673 107.479 16.7988 108.118 16.3197C108.917 15.721 109.882 15.4065 110.85 15.4065V24.9382C111.931 24.9382 112.974 24.5917 113.833 23.9477C114.211 23.6646 114.479 23.3796 114.648 23.1808C114.732 23.0814 114.798 22.9962 114.841 22.9395C114.88 22.887 114.913 22.8407 114.914 22.8398L107.178 17.2707ZM111.135 15.2199C109.624 15.2199 108.519 15.9032 107.892 16.4691C107.617 16.7178 107.428 16.9464 107.334 17.0644C107.283 17.1284 107.243 17.1817 107.22 17.2135C107.198 17.2433 107.179 17.27 107.178 17.2706L114.914 22.8399C115.011 22.7052 114.719 23.1477 114.28 23.5438C113.681 24.0843 112.608 24.7516 111.135 24.7516V15.2199ZM119.309 20.9419C119.13 20.349 118.884 19.5461 118.543 18.8264C118.17 18.037 117.479 16.8934 116.146 16.0757C114.874 15.2945 113.601 15.1776 112.87 15.1539C112.166 15.131 111.376 15.1913 110.802 15.2316L111.469 24.7399C111.812 24.7159 112.056 24.6992 112.259 24.6891C112.356 24.6843 112.428 24.6818 112.481 24.6808C112.507 24.6804 112.526 24.6802 112.54 24.6803C112.547 24.6803 112.552 24.6804 112.555 24.6804C112.559 24.6805 112.56 24.6806 112.56 24.6806C112.56 24.6806 112.558 24.6805 112.555 24.6803C112.551 24.6801 112.545 24.6798 112.538 24.6793C112.523 24.6783 112.5 24.6765 112.47 24.6731C112.41 24.6664 112.313 24.6528 112.188 24.6243C111.927 24.565 111.558 24.4435 111.16 24.1991C110.303 23.6729 109.968 22.9901 109.927 22.9034C109.908 22.8619 109.924 22.889 109.977 23.0429C110.029 23.193 110.093 23.3966 110.183 23.695L119.309 20.9419ZM119.796 22.469C119.626 21.9369 119.457 21.4057 119.287 20.8734L110.204 23.7636C110.375 24.2997 110.545 24.8342 110.715 25.3658L119.796 22.469ZM123.426 34.3949C122.308 30.3438 121.044 26.3816 119.796 22.4691L110.715 25.3657C111.973 29.3081 113.178 33.0905 114.237 36.9288L123.426 34.3949ZM122.948 33.3427C122.875 33.2283 123.049 33.4839 123.197 33.8082C123.391 34.2345 123.597 34.8723 123.597 35.6618H114.065C114.065 36.5403 114.293 37.2566 114.523 37.7608C114.628 37.9907 114.73 38.1703 114.793 38.2758C114.851 38.3738 114.907 38.461 114.912 38.4687L122.948 33.3427ZM123.735 35.1392C123.491 34.1809 123.073 33.538 122.948 33.3429L114.912 38.4685C114.946 38.5219 114.852 38.3804 114.758 38.191C114.653 37.9799 114.562 37.7434 114.498 37.4907L123.735 35.1392ZM116.993 27.1026C116.181 29.6616 115.352 32.2728 114.551 34.9477L123.682 37.6823C124.457 35.0942 125.262 32.5566 126.078 29.9862L116.993 27.1026ZM116.896 27.4528L116.896 27.4528L126.175 29.636L126.175 29.6359L116.896 27.4528ZM117.041 26.958L117.041 26.9581L126.03 30.1305L126.03 30.1303L117.041 26.958ZM116.988 27.1172L116.988 27.1175L126.083 29.9707L126.083 29.9704L116.988 27.1172ZM116.985 27.1293L116.984 27.1298L126.087 29.9578L126.087 29.9572L116.985 27.1293ZM117.009 27.0516L117.009 27.0521L126.062 30.0344L126.063 30.0339L117.009 27.0516ZM116.974 27.1651L116.974 27.1654L126.099 29.9201L126.099 29.9198L116.974 27.1651ZM116.974 27.1648L116.974 27.1651L126.099 29.9198L126.099 29.9195L116.974 27.1648ZM116.974 27.1645L116.974 27.1648L126.099 29.9195L126.099 29.9192L116.974 27.1645ZM116.967 27.1878L116.967 27.1879L126.106 29.8958L126.106 29.8956L116.967 27.1878ZM116.967 27.1876L116.967 27.1878L126.106 29.8956L126.106 29.8955L116.967 27.1876ZM118.929 20.9262C118.301 22.9819 117.653 25.0233 116.994 27.0997L126.079 29.9834C126.735 27.915 127.399 25.8244 128.045 23.7108L118.929 20.9262ZM119.368 19.6583C119.267 19.9601 119.161 20.2758 119.017 20.6637L127.956 23.9733C128.155 23.4361 128.301 22.9994 128.405 22.6904L119.368 19.6583ZM121.852 16.023C120.617 16.8274 120.06 17.9209 119.833 18.4208C119.621 18.8854 119.449 19.4191 119.368 19.6582L128.405 22.6905C128.466 22.5072 128.5 22.4066 128.528 22.3298C128.556 22.2505 128.547 22.285 128.508 22.3702C128.45 22.4983 128.062 23.3531 127.055 24.0091L121.852 16.023ZM125.871 15.1744C125.669 15.1625 125.146 15.1256 124.659 15.1476C124.123 15.1717 122.995 15.2778 121.852 16.023L127.055 24.0091C126.124 24.6157 125.261 24.6618 125.088 24.6696C124.985 24.6742 124.937 24.6703 125 24.6727C125.061 24.6751 125.144 24.6798 125.31 24.6896L125.871 15.1744ZM127.192 15.2199C126.648 15.2199 126.248 15.1967 125.871 15.1744L125.31 24.6896C125.721 24.7138 126.353 24.7516 127.192 24.7516V15.2199ZM127.287 15.2199H127.192V24.7516H127.287V15.2199ZM215.633 37.0086C216.005 37.3738 216.351 37.7495 216.789 38.228L223.816 31.7882C223.4 31.3335 222.89 30.7761 222.312 30.2081L215.633 37.0086ZM205.467 36.89C207.347 39.0915 209.931 40.7561 213.318 40.7065C216.316 40.6625 219.12 39.2594 221.639 37.5582L216.306 29.6586C214.265 31.0366 213.364 31.1731 213.178 31.1758C213.156 31.1761 213.167 31.1739 213.199 31.1815C213.232 31.1891 213.25 31.1984 213.245 31.1959C213.23 31.1881 213.047 31.088 212.716 30.7L205.467 36.89ZM205.886 22.432C202.348 26.2373 201.9 32.6862 205.458 36.8785L212.725 30.7115C212.672 30.648 212.516 30.3833 212.535 29.8919C212.555 29.3977 212.741 29.0578 212.867 28.922L205.886 22.432ZM212.368 19.0853C210.012 19.3938 207.604 20.3998 205.743 22.5936L213.01 28.7605C213.066 28.6956 213.1 28.6743 213.137 28.6556C213.188 28.63 213.325 28.5731 213.606 28.5363L212.368 19.0853ZM222.312 22.8366C220.158 20.7211 216.812 18.3854 212.247 19.1028L213.727 28.5189C213.925 28.4878 214.061 28.5045 214.275 28.6007C214.561 28.7295 215.004 29.0191 215.633 29.6371L222.312 22.8366ZM216.019 22.3615C215.806 22.6078 215.573 22.8766 215.339 23.1534L222.606 29.3204C222.807 29.0838 223.01 28.8491 223.228 28.5973L216.019 22.3615ZM216.018 22.3633L216.017 22.3643L223.23 28.5944L223.231 28.5934L216.018 22.3633ZM216.041 22.3361L216.041 22.3365L223.208 28.6202L223.208 28.6197L216.041 22.3361ZM217.69 20.2944C217.288 20.8859 216.78 21.4817 216.02 22.3599L223.229 28.596C223.918 27.7999 224.806 26.7813 225.576 25.6477L217.69 20.2944ZM209.296 25.9047C211.594 23.6476 215.951 23.7584 218.074 26.1414L225.191 19.8007C219.333 13.2259 208.679 13.1501 202.617 19.1042L209.296 25.9047ZM209.918 34.2069C207.161 31.959 207.136 28.1264 209.372 25.828L202.54 19.181C196.606 25.2805 196.581 35.631 203.895 41.5944L209.918 34.2069ZM217.961 33.3698C215.94 35.8117 212.272 36.1168 209.909 34.1996L203.904 41.6017C210.281 46.776 219.914 45.9614 225.305 39.4456L217.961 33.3698ZM216.789 38.2279C217.206 38.6826 217.715 39.24 218.293 39.8079L224.972 33.0075C224.6 32.6423 224.255 32.2666 223.816 31.7882L216.789 38.2279ZM79.2278 39.9539V25.0243H69.6961V39.9539H79.2278ZM71.6116 44.7198H74.4619V35.1881H71.6116V44.7198ZM66.8458 20.0789V39.9539H76.3775V20.0789H66.8458ZM79.6964 18.8387C78.8019 17.5609 77.5138 16.2856 75.6441 15.609C73.7985 14.9413 71.9935 15.0777 70.4752 15.4505L72.748 24.7073C73.13 24.6135 72.8926 24.75 72.401 24.5721C72.1685 24.488 71.9961 24.3735 71.8944 24.2878C71.805 24.2125 71.8087 24.192 71.8878 24.3049L79.6964 18.8387ZM86.0034 27.5224C83.7473 24.4978 81.6457 21.6792 79.7217 18.8753L71.8624 24.2683C73.9117 27.2548 76.1292 30.2266 78.3631 33.2214L86.0034 27.5224ZM89.3267 32.0041C88.1999 30.467 87.085 28.9724 86.0034 27.5224L78.3631 33.2214C79.4481 34.6761 80.5397 36.1395 81.6395 37.6397L89.3267 32.0041ZM80.7172 19.8923V34.8219H90.2489V19.8923H80.7172ZM88.3334 15.1264H85.4831V24.6581H88.3334V15.1264ZM93.0992 39.674V19.8923H83.5675V39.674H93.0992ZM80.9353 41.3535C81.3499 41.8964 82.516 43.5514 84.4825 44.315C86.6652 45.1625 88.7064 44.5666 89.8161 44.2033L86.8506 35.1447C86.4893 35.2629 86.4641 35.2424 86.624 35.2267C86.8512 35.2045 87.3462 35.2019 87.9325 35.4296C88.4881 35.6453 88.7972 35.9422 88.8481 35.9929C88.8642 36.0089 88.7919 35.9367 88.5107 35.5684L80.9353 41.3535ZM79.3653 39.2425C79.8746 39.927 80.3845 40.6124 80.8965 41.3019L88.5495 35.62C88.0343 34.926 87.5216 34.2369 87.0128 33.553L79.3653 39.2425ZM79.34 39.2083L79.3653 39.2424L87.0128 33.553L86.9875 33.5189L79.34 39.2083ZM79.3338 39.2L79.342 39.211L86.9854 33.5162L86.9772 33.5052L79.3338 39.2ZM79.3426 39.2118L79.3428 39.2121L86.9682 33.4931L86.9679 33.4928L79.3426 39.2118ZM71.1277 27.944C73.8141 31.7816 76.5631 35.476 79.3316 39.1971L86.9789 33.5075C84.1971 29.7685 81.5306 26.1839 78.9363 22.4778L71.1277 27.944ZM72.2862 29.173C72.2945 29.1781 72.3816 29.2322 72.4794 29.2882C72.5848 29.3485 72.7626 29.4462 72.9894 29.5459C73.4868 29.7645 74.1831 29.9768 75.032 29.9768V20.4451C75.7903 20.4451 76.4067 20.6361 76.8247 20.8199C77.143 20.9598 77.3946 21.1247 77.2811 21.0548L72.2862 29.173ZM73.2306 29.5594C72.9899 29.5003 72.762 29.4158 72.5562 29.3173C72.3712 29.2288 72.2327 29.1401 72.2863 29.1731L77.281 21.0548C77.0812 20.9319 76.4456 20.534 75.5033 20.3026L73.2306 29.5594ZM77.8012 21.6239L77.7062 21.5306L71.0276 28.3314L71.1227 28.4247L77.8012 21.6239ZM106.479 26.4164H96.7884V35.9481H106.479V26.4164ZM103.045 34.4891L103.14 34.5824L109.819 27.7822L109.724 27.6889L103.045 34.4891ZM101.618 31.0889V31.089H111.15V31.0889H101.618ZM101.876 27.399C101.613 28.9496 101.618 30.1419 101.618 31.0889H111.15C111.15 30.1698 111.156 29.6825 111.273 28.9938L101.876 27.399ZM96.8834 32.9622H106.574V23.4305H96.8834V32.9622ZM92.1175 22.2245V28.1964H101.649V22.2245H92.1175ZM107.81 17.4587H96.8834V26.9904H107.81V17.4587ZM103.044 19.7985V22.2245H112.575V19.7985H103.044ZM93.9381 24.5643H107.81V15.0326H93.9381V24.5643ZM98.7039 39.7668V19.7985H89.1722V39.7668H98.7039ZM108 35.001H93.9381V44.5327H108V35.001ZM103.234 37.1541V39.7668H112.765V37.1541H103.234ZM96.7884 41.92H108V32.3883H96.7884V41.92ZM92.0225 31.1823V37.1541H101.554V31.1823H92.0225ZM206.193 17.4018L206.003 17.1219L198.117 22.4753L198.307 22.7552L206.193 17.4018ZM198.64 28.6701C200.617 28.6701 203.096 28.1893 204.956 26.2188C206.831 24.2316 207.151 21.7143 207.003 19.7244L197.497 20.4326C197.539 20.9932 197.352 20.3887 198.024 19.6768C198.68 18.9815 199.259 19.1384 198.64 19.1384V28.6701ZM196.264 28.6701H198.64V19.1384H196.264V28.6701ZM201.03 39.7669V23.9042H191.499V39.7669H201.03ZM191.609 44.5328H196.264V35.0011H191.609V44.5328ZM186.843 23.9042V39.7669H196.375V23.9042H186.843ZM186.763 28.6701H191.609V19.1384H186.763V28.6701ZM180.572 22.5046C180.572 23.0416 180.526 25.2981 182.284 27.0245C184.012 28.7215 186.238 28.6701 186.763 28.6701V19.1384C186.62 19.1384 186.81 19.1239 187.145 19.2023C187.53 19.2923 188.269 19.543 188.963 20.2241C189.662 20.911 189.932 21.6593 190.032 22.0728C190.119 22.4285 190.104 22.6373 190.104 22.5046H180.572ZM188.189 14.9394C186.525 14.9394 184.398 15.3482 182.711 17.0049C181.009 18.6771 180.572 20.8148 180.572 22.5046H190.104C190.104 22.3281 190.143 23.0662 189.39 23.8053C188.654 24.5289 187.952 24.4711 188.189 24.4711V14.9394ZM202.06 14.9394H188.189V24.4711H202.06V14.9394ZM206.826 19.7986V19.7053H197.294V19.7986H206.826ZM146.26 39.0372C146.389 38.7839 146.522 38.5406 146.683 38.245L138.322 33.6683C138.168 33.95 137.969 34.3136 137.766 34.7128L146.26 39.0372ZM141.823 41.6408H142.013V32.1091H141.823V41.6408ZM151.345 35.4818C148.864 35.6692 146.859 35.0263 145.043 33.3617L138.602 40.3882C142.487 43.9489 147.133 45.3589 152.063 44.9864L151.345 35.4818ZM152.342 35.0973C152.341 35.099 152.347 35.0868 152.353 35.0793C152.356 35.0762 152.332 35.1069 152.253 35.1581C152.076 35.2723 151.706 35.4322 151.123 35.5038L152.284 44.9645C155.535 44.5654 159.729 42.7907 161.327 38.2794L152.342 35.0973ZM151.708 33.9537C152.303 34.1815 152.575 34.3774 152.667 34.4557C152.739 34.5163 152.674 34.4792 152.614 34.3353C152.486 34.0302 152.706 34.1129 152.365 35.0335L161.304 38.3431C162.103 36.1846 162.56 33.4213 161.411 30.6668C160.235 27.8454 157.82 26.0884 155.12 25.0533L151.708 33.9537ZM148.927 32.8888C149.858 33.2403 150.755 33.5794 151.671 33.9393L155.157 25.0676C154.173 24.6811 153.217 24.3203 152.295 23.972L148.927 32.8888ZM146.066 31.7932C147.05 32.1797 148.005 32.5405 148.927 32.8888L152.295 23.972C151.365 23.6205 150.467 23.2815 149.551 22.9215L146.066 31.7932ZM141.765 23.7556C141.344 25.4075 141.498 27.2423 142.494 28.8739C143.426 30.3989 144.807 31.2785 146.003 31.7682L149.613 22.9465C149.67 22.9696 150.195 23.196 150.628 23.9046C151.126 24.7197 151.137 25.5747 151.002 26.107L141.765 23.7556ZM145.356 19.1635C144.644 19.6631 142.774 21.0229 141.931 23.2313L150.836 26.6313C150.74 26.8822 150.635 27.0475 150.579 27.1276C150.521 27.2089 150.487 27.2418 150.499 27.2298C150.509 27.2196 150.542 27.1877 150.604 27.1366C150.665 27.0865 150.741 27.0294 150.83 26.9667L145.356 19.1635ZM151.281 18.1965C149.088 17.5811 146.991 18.1829 145.674 18.9591L150.513 27.1711C150.233 27.3359 149.997 27.409 149.795 27.4444C149.592 27.4801 149.206 27.5141 148.706 27.3738L151.281 18.1965ZM154.904 19.0318C153.721 18.7097 152.231 18.2975 150.688 18.0702L149.299 27.5001C150.178 27.6296 151.109 27.8772 152.398 28.2283L154.904 19.0318ZM156.874 19.5441C156.249 19.3978 155.62 19.2271 154.903 19.0318L152.398 28.2283C153.088 28.4163 153.882 28.6333 154.704 28.8255L156.874 19.5441ZM152.072 20.9624C151.844 21.4577 151.752 21.6465 151.67 21.788L159.909 26.5816C160.26 25.9779 160.54 25.3607 160.727 24.9547L152.072 20.9624ZM152.682 19.6898C152.431 20.1836 152.226 20.6285 152.072 20.9625L160.727 24.9546C160.886 24.6099 161.02 24.3221 161.176 24.0143L152.682 19.6898ZM148.683 24.9569C150.577 24.4402 152.407 24.7596 154.568 25.9921L159.29 17.712C155.561 15.5854 151.121 14.4117 146.174 15.7613L148.683 24.9569ZM147.989 24.9475C147.966 25.1712 147.87 25.2744 147.878 25.2671C147.887 25.2574 148.043 25.1064 148.482 25.0071L146.375 15.7111C142.33 16.6278 138.945 19.6798 138.507 23.982L147.989 24.9475ZM148.707 25.9506C147.762 25.5527 147.788 25.3733 147.931 25.591C148.004 25.7013 148.011 25.7713 148 25.7132C147.984 25.63 147.952 25.3791 147.996 24.8791L138.5 24.0504C138.302 26.3202 138.571 28.7046 139.966 30.8266C141.32 32.8871 143.295 34.0141 145.009 34.7359L148.707 25.9506ZM150.263 26.4409C149.585 26.2265 148.99 26.038 148.419 25.8402L145.297 34.8463C146.012 35.0941 146.733 35.3217 147.389 35.529L150.263 26.4409ZM153.594 27.5707C152.413 27.1197 151.252 26.7538 150.263 26.4409L147.389 35.529C148.417 35.8542 149.315 36.1395 150.193 36.475L153.594 27.5707ZM158.802 33.8078C158.558 32.0147 157.754 30.5399 156.594 29.4348C155.575 28.4648 154.435 27.9382 153.836 27.6709L149.951 36.3748C150.147 36.4621 150.221 36.5028 150.241 36.5145C150.255 36.5226 150.158 36.4685 150.02 36.3371C149.871 36.1952 149.703 35.9906 149.567 35.7266C149.432 35.4633 149.376 35.2337 149.356 35.09L158.802 33.8078ZM151.388 42.0867C153.193 41.9178 155.077 41.2535 156.556 39.8934C158.11 38.4647 159.12 36.3074 158.807 33.8472L149.351 35.0506C149.298 34.6298 149.35 34.1754 149.518 33.7518C149.681 33.3404 149.913 33.0538 150.105 32.8767C150.468 32.5431 150.689 32.5786 150.5 32.5964L151.388 42.0867ZM140.066 37.9971C142.98 40.61 146.654 42.3796 151.236 42.0984L150.652 32.5846C149.153 32.6766 147.886 32.2068 146.43 30.9007L140.066 37.9971ZM146.683 38.2451C146.94 37.7769 147.377 36.9955 147.7 36.149L138.796 32.7488C138.748 32.8733 138.654 33.0628 138.322 33.6683L146.683 38.2451Z" fill="white" mask="url(#path-2-outside-1_9_43)"/>
</g>
<defs>
<filter id="filter0_d_9_43" x="0.513442" y="0.234131" width="230.651" height="69.0634" filterUnits="userSpaceOnUse" color-interpolation-filters="sRGB">
<feFlood flood-opacity="0" result="BackgroundImageFix"/>
<feColorMatrix in="SourceAlpha" type="matrix" values="0 0 0 0 0 0 0 0 0 0 0 0 0 0 0 0 0 0 127 0" result="hardAlpha"/>
<feOffset dy="4.76586"/>
<feGaussianBlur stdDeviation="2.38293"/>
<feComposite in2="hardAlpha" operator="out"/>
<feColorMatrix type="matrix" values="0 0 0 0 0 0 0 0 0 0 0 0 0 0 0 0 0 0 0.25 0"/>
<feBlend mode="normal" in2="BackgroundImageFix" result="effect1_dropShadow_9_43"/>
<feBlend mode="normal" in="SourceGraphic" in2="effect1_dropShadow_9_43" result="shape"/>
</filter>
</defs>
</svg>
