<svg width="35" height="35" viewBox="0 0 35 35" fill="none" xmlns="http://www.w3.org/2000/svg">
<rect x="1.5" y="1.21631" width="32" height="32" rx="16" fill="white"/>
<rect x="1.5" y="1.21631" width="32" height="32" rx="16" stroke="black" stroke-width="2"/>
<path fill-rule="evenodd" clip-rule="evenodd" d="M25.6999 12.2628C25.7362 12.0423 25.7128 11.816 25.632 11.6076C25.5511 11.3992 25.4159 11.2162 25.2403 11.0778C25.0647 10.9395 24.8553 10.8507 24.6337 10.8208C24.4122 10.7909 24.1867 10.821 23.9807 10.9078L9.73073 16.9078C8.7374 17.3262 8.68657 18.7628 9.73073 19.1962C10.7647 19.6274 11.8137 20.0215 12.8757 20.3778C13.8491 20.6995 14.9107 20.997 15.7616 21.0812C15.9941 21.3595 16.2866 21.6278 16.5849 21.8728C17.0407 22.2478 17.5891 22.6337 18.1557 23.0037C19.2907 23.7453 20.5499 24.4545 21.3982 24.9162C22.4124 25.4662 23.6266 24.8328 23.8082 23.727L25.6999 12.2628ZM11.3282 18.0437L23.9316 12.737L22.1666 23.437C21.3341 22.9845 20.1349 22.307 19.0666 21.6087C18.5742 21.2925 18.0988 20.9507 17.6424 20.5845C17.5204 20.4849 17.402 20.3809 17.2874 20.2728L20.5882 16.9728C20.7446 16.8166 20.8325 16.6046 20.8326 16.3835C20.8326 16.1625 20.7449 15.9505 20.5886 15.7941C20.4324 15.6377 20.2204 15.5498 19.9994 15.5497C19.7783 15.5497 19.5663 15.6374 19.4099 15.7937L15.7957 19.4078C15.1841 19.3295 14.3324 19.1028 13.3974 18.7945C12.7013 18.5626 12.0116 18.312 11.3291 18.0428L11.3282 18.0437Z" fill="black"/>
</svg>
