<svg width="35" height="35" viewBox="0 0 35 35" fill="none" xmlns="http://www.w3.org/2000/svg">
<rect x="1.5" y="1.27502" width="32" height="32" rx="16" fill="white"/>
<rect x="1.5" y="1.27502" width="32" height="32" rx="16" stroke="black" stroke-width="2"/>
<path fill-rule="evenodd" clip-rule="evenodd" d="M25.6999 12.3217C25.7362 12.1011 25.7128 11.8748 25.632 11.6664C25.5511 11.458 25.4159 11.2751 25.2403 11.1367C25.0647 10.9983 24.8553 10.9095 24.6337 10.8796C24.4122 10.8497 24.1867 10.8798 23.9807 10.9667L9.73073 16.9667C8.7374 17.385 8.68657 18.8217 9.73073 19.255C10.7647 19.6862 11.8137 20.0803 12.8757 20.4367C13.8491 20.7583 14.9107 21.0558 15.7616 21.14C15.9941 21.4183 16.2866 21.6867 16.5849 21.9317C17.0407 22.3067 17.5891 22.6925 18.1557 23.0625C19.2907 23.8042 20.5499 24.5133 21.3982 24.975C22.4124 25.525 23.6266 24.8917 23.8082 23.7858L25.6999 12.3217ZM11.3282 18.1025L23.9316 12.7958L22.1666 23.4958C21.3341 23.0433 20.1349 22.3658 19.0666 21.6675C18.5742 21.3514 18.0988 21.0095 17.6424 20.6433C17.5204 20.5437 17.402 20.4397 17.2874 20.3317L20.5882 17.0317C20.7446 16.8754 20.8325 16.6634 20.8326 16.4424C20.8326 16.2213 20.7449 16.0093 20.5886 15.8529C20.4324 15.6966 20.2204 15.6087 19.9994 15.6086C19.7783 15.6085 19.5663 15.6962 19.4099 15.8525L15.7957 19.4667C15.1841 19.3883 14.3324 19.1617 13.3974 18.8533C12.7013 18.6215 12.0116 18.3708 11.3291 18.1017L11.3282 18.1025Z" fill="black"/>
</svg>
