<svg width="222" height="177" viewBox="0 0 222 177" fill="none" xmlns="http://www.w3.org/2000/svg">
<path d="M4.97937 118.494L30.0389 13.6301C31.5365 7.363 37.8717 3.48527 44.2076 4.99938L208.285 44.2092C214.621 45.7233 218.518 52.0463 217.021 58.3134L191.961 163.177C190.463 169.444 184.128 173.322 177.792 171.808L13.7151 132.598C7.37916 131.084 3.48172 124.761 4.97937 118.494Z" fill="url(#paint0_linear_303_6896)" stroke="black" stroke-width="3.75568"/>
<path d="M43.8812 16.783L198.586 53.7531C199.819 54.0476 200.579 55.2855 200.285 56.5181L177.209 153.079C176.915 154.311 175.677 155.072 174.445 154.777L19.7394 117.807C18.5069 117.512 17.7465 116.274 18.0411 115.042L41.1163 18.4813C41.4108 17.2488 42.6487 16.4885 43.8812 16.783Z" fill="white" stroke="black" stroke-width="3.75568"/>
<path d="M32.2352 106.211L50.4192 30.1176L99.7915 41.9162L81.6075 118.009L32.2352 106.211Z" fill="#333333" stroke="black" stroke-width="3.75568"/>
<path d="M119.071 126.978L137.255 50.8852L186.627 62.6838L168.443 138.777L119.071 126.978Z" fill="#333333" stroke="black" stroke-width="3.75568"/>
<path d="M109.075 72.0686L110.574 65.7949L116.848 67.2941L115.348 73.5679L109.075 72.0686Z" fill="#333333" stroke="black" stroke-width="3.75568"/>
<path d="M101.399 104.23L102.898 97.9565L109.172 99.4557L107.673 105.73L101.399 104.23Z" fill="#333333" stroke="black" stroke-width="3.75568"/>
<mask id="path-7-inside-1_303_6896" fill="white">
<path d="M92.2556 81.6471L39.2305 68.9756L38.8525 70.5572L91.8776 83.2287L92.2556 81.6471Z"/>
</mask>
<path d="M92.2556 81.6471L39.2305 68.9756L38.8525 70.5572L91.8776 83.2287L92.2556 81.6471Z" fill="#333333"/>
<path d="M39.2305 68.9756L40.1034 65.3228L36.4506 64.4498L35.5776 68.1027L39.2305 68.9756ZM92.2556 81.6471L95.9084 82.52L96.7813 78.8672L93.1285 77.9942L92.2556 81.6471ZM91.8776 83.2287L91.0047 86.8815L94.6575 87.7544L95.5305 84.1016L91.8776 83.2287ZM38.8525 70.5572L35.1997 69.6843L34.3268 73.3371L37.9796 74.21L38.8525 70.5572ZM38.3575 72.6284L91.3827 85.2999L93.1285 77.9942L40.1034 65.3228L38.3575 72.6284ZM88.6028 80.7742L88.2248 82.3558L95.5305 84.1016L95.9084 82.52L88.6028 80.7742ZM92.7505 79.5759L39.7254 66.9044L37.9796 74.21L91.0047 86.8815L92.7505 79.5759ZM42.5053 71.4301L42.8833 69.8485L35.5776 68.1027L35.1997 69.6843L42.5053 71.4301Z" fill="black" mask="url(#path-7-inside-1_303_6896)"/>
<mask id="path-9-inside-2_303_6896" fill="white">
<path d="M179.054 102.368L126.029 89.6965L125.651 91.2782L178.676 103.95L179.054 102.368Z"/>
</mask>
<path d="M179.054 102.368L126.029 89.6965L125.651 91.2782L178.676 103.95L179.054 102.368Z" fill="#333333"/>
<path d="M126.029 89.6965L126.902 86.0437L123.249 85.1708L122.376 88.8236L126.029 89.6965ZM179.054 102.368L182.707 103.241L183.579 99.5881L179.927 98.7152L179.054 102.368ZM178.676 103.95L177.803 107.602L181.456 108.475L182.329 104.823L178.676 103.95ZM125.651 91.2782L121.998 90.4052L121.125 94.0581L124.778 94.931L125.651 91.2782ZM125.156 93.3494L178.181 106.021L179.927 98.7152L126.902 86.0437L125.156 93.3494ZM175.401 101.495L175.023 103.077L182.329 104.823L182.707 103.241L175.401 101.495ZM179.549 100.297L126.524 87.6253L124.778 94.931L177.803 107.602L179.549 100.297ZM129.303 92.1511L129.681 90.5695L122.376 88.8236L121.998 90.4052L129.303 92.1511Z" fill="black" mask="url(#path-9-inside-2_303_6896)"/>
<path d="M71.4105 56.7594C72.15 56.9399 72.701 57.3011 73.0635 57.8432C73.4261 58.3852 73.6785 59.2097 73.8208 60.3165C74.0247 62.0157 73.95 64.2655 73.5966 67.0658C73.2432 69.866 72.5917 73.2121 71.6421 77.104C71.0533 79.517 70.343 81.9209 69.5112 84.3158C68.7184 86.7202 67.8999 88.8916 67.0558 90.8299C66.2118 92.7682 65.4138 94.2641 64.6618 95.3177C63.9678 96.303 63.3256 96.9916 62.7351 97.3836C62.1541 97.7367 61.4939 97.823 60.7545 97.6426C60.015 97.4622 59.483 97.0231 59.1584 96.3253C58.8822 95.5982 58.7646 94.5592 58.8056 93.2084C58.8655 91.7798 59.0456 90.1124 59.3457 88.2063C59.6943 86.2708 60.125 84.2523 60.6378 82.1506C61.1221 80.1658 61.7469 78.1121 62.5122 75.9896C63.2775 73.8672 64.1306 71.8074 65.0715 69.8102C66.0124 67.8131 66.969 66.0053 67.9412 64.3869L68.2772 64.5307C66.7288 65.6374 65.1203 66.3995 63.4514 66.817C61.7826 67.2346 60.2865 67.2819 58.9633 66.959C58.3017 66.7976 57.819 66.4942 57.5153 66.049C57.2505 65.6133 57.1941 65.084 57.346 64.4613C57.6404 63.2549 58.2656 62.1291 59.2216 61.084C60.226 60.0096 61.416 59.1041 62.7915 58.3676C64.1766 57.5922 65.6261 57.0593 67.1402 56.769C68.6638 56.4397 70.0873 56.4366 71.4105 56.7594Z" fill="#FF5600"/>
<path d="M161.089 74.3669C161.829 74.5473 162.38 74.9085 162.742 75.4506C163.105 75.9927 163.357 76.8171 163.5 77.924C163.703 79.6232 163.629 81.8729 163.275 84.6732C162.922 87.4735 162.27 90.8196 161.321 94.7114C160.732 97.1244 160.022 99.5283 159.19 101.923C158.397 104.328 157.579 106.499 156.735 108.437C155.89 110.376 155.092 111.872 154.341 112.925C153.647 113.91 153.004 114.599 152.414 114.991C151.833 115.344 151.173 115.43 150.433 115.25C149.694 115.07 149.162 114.631 148.837 113.933C148.561 113.206 148.443 112.167 148.484 110.816C148.544 109.387 148.724 107.72 149.024 105.814C149.373 103.878 149.804 101.86 150.316 99.7581C150.801 97.7732 151.426 95.7196 152.191 93.5971C152.956 91.4746 153.809 89.4148 154.75 87.4176C155.691 85.4205 156.648 83.6127 157.62 81.9943L157.956 82.1382C156.408 83.2448 154.799 84.007 153.13 84.4245C151.461 84.842 149.965 84.8893 148.642 84.5664C147.98 84.405 147.498 84.1017 147.194 83.6564C146.929 83.2207 146.873 82.6915 147.025 82.0688C147.319 80.8623 147.944 79.7365 148.9 78.6915C149.905 77.617 151.095 76.7115 152.47 75.975C153.855 75.1996 155.305 74.6668 156.819 74.3764C158.343 74.0472 159.766 74.044 161.089 74.3669Z" fill="#FF5600"/>
<defs>
<linearGradient id="paint0_linear_303_6896" x1="120.221" y1="21.2336" x2="80.1269" y2="148.767" gradientUnits="userSpaceOnUse">
<stop stop-color="#141109"/>
<stop offset="1" stop-color="#808080"/>
</linearGradient>
</defs>
</svg>
